<mxfile host="app.diagrams.net" modified="2024-03-04T10:58:42.173Z" agent="Mozilla/5.0 (Windows NT 10.0; Win64; x64) AppleWebKit/537.36 (KHTML, like Gecko) Chrome/122.0.0.0 Safari/537.36" etag="NbbUU-l78maxa0dzk63m" version="24.0.0" type="github">
  <diagram name="第 1 页" id="OzjiZXIuu_ywZxEzUD-4">
    <mxGraphModel dx="643" dy="602" grid="1" gridSize="10" guides="1" tooltips="1" connect="1" arrows="1" fold="1" page="1" pageScale="1" pageWidth="1169" pageHeight="827" background="#050305" math="0" shadow="0">
      <root>
        <mxCell id="0" />
        <mxCell id="1" parent="0" />
        <mxCell id="WzrB27unxxDF3hPiiffK-23" value="" style="rounded=0;whiteSpace=wrap;html=1;labelBackgroundColor=#000000;" vertex="1" parent="1">
          <mxGeometry x="260" y="352.5" width="640" height="395" as="geometry" />
        </mxCell>
        <mxCell id="WzrB27unxxDF3hPiiffK-10" style="edgeStyle=orthogonalEdgeStyle;rounded=0;orthogonalLoop=1;jettySize=auto;html=1;labelBackgroundColor=none;fontColor=default;" edge="1" parent="1" source="WzrB27unxxDF3hPiiffK-3" target="WzrB27unxxDF3hPiiffK-4">
          <mxGeometry relative="1" as="geometry" />
        </mxCell>
        <mxCell id="WzrB27unxxDF3hPiiffK-3" value="运行Lisflood模型" style="points=[[0.25,0,0],[0.5,0,0],[0.75,0,0],[1,0.25,0],[1,0.5,0],[1,0.75,0],[0.75,1,0],[0.5,1,0],[0.25,1,0],[0,0.75,0],[0,0.5,0],[0,0.25,0]];shape=mxgraph.bpmn.task;whiteSpace=wrap;rectStyle=rounded;size=10;html=1;container=1;expand=0;collapsible=0;taskMarker=user;labelBackgroundColor=none;" vertex="1" parent="1">
          <mxGeometry x="430" y="420" width="120" height="80" as="geometry" />
        </mxCell>
        <mxCell id="WzrB27unxxDF3hPiiffK-11" style="edgeStyle=orthogonalEdgeStyle;rounded=0;orthogonalLoop=1;jettySize=auto;html=1;labelBackgroundColor=none;fontColor=default;" edge="1" parent="1" source="WzrB27unxxDF3hPiiffK-4" target="WzrB27unxxDF3hPiiffK-6">
          <mxGeometry relative="1" as="geometry" />
        </mxCell>
        <mxCell id="WzrB27unxxDF3hPiiffK-4" value="生成洪涝可视化&lt;div&gt;所需时间序列数据&lt;/div&gt;" style="points=[[0.25,0,0],[0.5,0,0],[0.75,0,0],[1,0.25,0],[1,0.5,0],[1,0.75,0],[0.75,1,0],[0.5,1,0],[0.25,1,0],[0,0.75,0],[0,0.5,0],[0,0.25,0]];shape=mxgraph.bpmn.task;whiteSpace=wrap;rectStyle=rounded;size=10;html=1;container=1;expand=0;collapsible=0;taskMarker=user;labelBackgroundColor=none;" vertex="1" parent="1">
          <mxGeometry x="610" y="420" width="120" height="80" as="geometry" />
        </mxCell>
        <mxCell id="WzrB27unxxDF3hPiiffK-7" style="edgeStyle=orthogonalEdgeStyle;rounded=0;orthogonalLoop=1;jettySize=auto;html=1;labelBackgroundColor=none;fontColor=default;" edge="1" parent="1" source="WzrB27unxxDF3hPiiffK-5" target="WzrB27unxxDF3hPiiffK-3">
          <mxGeometry relative="1" as="geometry" />
        </mxCell>
        <mxCell id="WzrB27unxxDF3hPiiffK-5" value="开始" style="points=[[0.145,0.145,0],[0.5,0,0],[0.855,0.145,0],[1,0.5,0],[0.855,0.855,0],[0.5,1,0],[0.145,0.855,0],[0,0.5,0]];shape=mxgraph.bpmn.event;html=1;verticalLabelPosition=bottom;labelBackgroundColor=none;verticalAlign=top;align=center;perimeter=ellipsePerimeter;outlineConnect=0;aspect=fixed;outline=standard;symbol=general;" vertex="1" parent="1">
          <mxGeometry x="320" y="435" width="50" height="50" as="geometry" />
        </mxCell>
        <mxCell id="WzrB27unxxDF3hPiiffK-6" value="结束" style="points=[[0.145,0.145,0],[0.5,0,0],[0.855,0.145,0],[1,0.5,0],[0.855,0.855,0],[0.5,1,0],[0.145,0.855,0],[0,0.5,0]];shape=mxgraph.bpmn.event;html=1;verticalLabelPosition=bottom;labelBackgroundColor=none;verticalAlign=top;align=center;perimeter=ellipsePerimeter;outlineConnect=0;aspect=fixed;outline=throwing;symbol=general;" vertex="1" parent="1">
          <mxGeometry x="780" y="435" width="50" height="50" as="geometry" />
        </mxCell>
        <mxCell id="WzrB27unxxDF3hPiiffK-14" value="" style="strokeWidth=2;html=1;shape=mxgraph.flowchart.annotation_2;align=left;labelPosition=right;pointerEvents=1;direction=north;labelBackgroundColor=none;" vertex="1" parent="1">
          <mxGeometry x="450" y="510" width="240" height="30" as="geometry" />
        </mxCell>
        <mxCell id="WzrB27unxxDF3hPiiffK-15" value="模型运行时间长&lt;div&gt;先后顺序关系&lt;/div&gt;" style="text;html=1;align=center;verticalAlign=middle;whiteSpace=wrap;rounded=0;fontStyle=5;labelBackgroundColor=none;" vertex="1" parent="1">
          <mxGeometry x="520" y="535" width="100" height="30" as="geometry" />
        </mxCell>
        <mxCell id="WzrB27unxxDF3hPiiffK-16" value="&lt;font style=&quot;font-size: 24px;&quot;&gt;运行时间长&lt;/font&gt;" style="text;html=1;align=center;verticalAlign=middle;whiteSpace=wrap;rounded=0;labelBackgroundColor=none;" vertex="1" parent="1">
          <mxGeometry x="360" y="620" width="140" height="40" as="geometry" />
        </mxCell>
        <mxCell id="WzrB27unxxDF3hPiiffK-17" value="" style="shape=singleArrow;whiteSpace=wrap;html=1;labelBackgroundColor=none;" vertex="1" parent="1">
          <mxGeometry x="510" y="617.5" width="100" height="45" as="geometry" />
        </mxCell>
        <mxCell id="WzrB27unxxDF3hPiiffK-18" value="异步、缓存？" style="text;html=1;align=center;verticalAlign=middle;whiteSpace=wrap;rounded=0;fontSize=26;labelBackgroundColor=none;" vertex="1" parent="1">
          <mxGeometry x="630" y="625" width="170" height="30" as="geometry" />
        </mxCell>
        <mxCell id="WzrB27unxxDF3hPiiffK-19" value="&lt;span style=&quot;font-size: 24px;&quot;&gt;先后顺序&lt;/span&gt;" style="text;html=1;align=center;verticalAlign=middle;whiteSpace=wrap;rounded=0;labelBackgroundColor=none;" vertex="1" parent="1">
          <mxGeometry x="360" y="687.5" width="140" height="40" as="geometry" />
        </mxCell>
        <mxCell id="WzrB27unxxDF3hPiiffK-20" value="" style="shape=singleArrow;whiteSpace=wrap;html=1;labelBackgroundColor=none;" vertex="1" parent="1">
          <mxGeometry x="510" y="685" width="100" height="45" as="geometry" />
        </mxCell>
        <mxCell id="WzrB27unxxDF3hPiiffK-21" value="消息队列？" style="text;html=1;align=center;verticalAlign=middle;whiteSpace=wrap;rounded=0;fontSize=26;labelBackgroundColor=none;" vertex="1" parent="1">
          <mxGeometry x="630" y="692.5" width="150" height="30" as="geometry" />
        </mxCell>
        <mxCell id="WzrB27unxxDF3hPiiffK-24" value="&lt;font style=&quot;font-size: 36px;&quot;&gt;&lt;b&gt;运行&lt;/b&gt;&lt;/font&gt;" style="text;html=1;align=center;verticalAlign=middle;whiteSpace=wrap;rounded=0;labelBackgroundColor=none;" vertex="1" parent="1">
          <mxGeometry x="490" y="375" width="160" height="30" as="geometry" />
        </mxCell>
        <mxCell id="WzrB27unxxDF3hPiiffK-25" value="" style="rounded=0;whiteSpace=wrap;html=1;labelBackgroundColor=none;" vertex="1" parent="1">
          <mxGeometry x="260" y="770" width="640" height="270" as="geometry" />
        </mxCell>
        <mxCell id="WzrB27unxxDF3hPiiffK-50" style="edgeStyle=orthogonalEdgeStyle;rounded=0;orthogonalLoop=1;jettySize=auto;html=1;labelBackgroundColor=none;fontColor=default;" edge="1" parent="1" source="WzrB27unxxDF3hPiiffK-27" target="WzrB27unxxDF3hPiiffK-32">
          <mxGeometry relative="1" as="geometry" />
        </mxCell>
        <mxCell id="WzrB27unxxDF3hPiiffK-27" value="可视化" style="points=[[0.25,0,0],[0.5,0,0],[0.75,0,0],[1,0.25,0],[1,0.5,0],[1,0.75,0],[0.75,1,0],[0.5,1,0],[0.25,1,0],[0,0.75,0],[0,0.5,0],[0,0.25,0]];shape=mxgraph.bpmn.task;whiteSpace=wrap;rectStyle=rounded;size=10;html=1;container=1;expand=0;collapsible=0;taskMarker=user;labelBackgroundColor=none;" vertex="1" parent="1">
          <mxGeometry x="530" y="860" width="120" height="80" as="geometry" />
        </mxCell>
        <mxCell id="WzrB27unxxDF3hPiiffK-30" style="edgeStyle=orthogonalEdgeStyle;rounded=0;orthogonalLoop=1;jettySize=auto;html=1;labelBackgroundColor=none;fontColor=default;" edge="1" parent="1" source="WzrB27unxxDF3hPiiffK-31" target="WzrB27unxxDF3hPiiffK-27">
          <mxGeometry relative="1" as="geometry" />
        </mxCell>
        <mxCell id="WzrB27unxxDF3hPiiffK-31" value="开始" style="points=[[0.145,0.145,0],[0.5,0,0],[0.855,0.145,0],[1,0.5,0],[0.855,0.855,0],[0.5,1,0],[0.145,0.855,0],[0,0.5,0]];shape=mxgraph.bpmn.event;html=1;verticalLabelPosition=bottom;labelBackgroundColor=none;verticalAlign=top;align=center;perimeter=ellipsePerimeter;outlineConnect=0;aspect=fixed;outline=standard;symbol=general;" vertex="1" parent="1">
          <mxGeometry x="320" y="875" width="50" height="50" as="geometry" />
        </mxCell>
        <mxCell id="WzrB27unxxDF3hPiiffK-32" value="结束" style="points=[[0.145,0.145,0],[0.5,0,0],[0.855,0.145,0],[1,0.5,0],[0.855,0.855,0],[0.5,1,0],[0.145,0.855,0],[0,0.5,0]];shape=mxgraph.bpmn.event;html=1;verticalLabelPosition=bottom;labelBackgroundColor=none;verticalAlign=top;align=center;perimeter=ellipsePerimeter;outlineConnect=0;aspect=fixed;outline=throwing;symbol=general;" vertex="1" parent="1">
          <mxGeometry x="740" y="875" width="50" height="50" as="geometry" />
        </mxCell>
        <mxCell id="WzrB27unxxDF3hPiiffK-41" value="&lt;span style=&quot;font-size: 36px;&quot;&gt;&lt;b&gt;应用&lt;/b&gt;&lt;/span&gt;" style="text;html=1;align=center;verticalAlign=middle;whiteSpace=wrap;rounded=0;labelBackgroundColor=none;" vertex="1" parent="1">
          <mxGeometry x="490" y="785" width="160" height="30" as="geometry" />
        </mxCell>
        <mxCell id="WzrB27unxxDF3hPiiffK-51" value="" style="strokeWidth=2;html=1;shape=mxgraph.flowchart.annotation_2;align=left;labelPosition=right;pointerEvents=1;direction=north;labelBackgroundColor=none;" vertex="1" parent="1">
          <mxGeometry x="460" y="950" width="240" height="30" as="geometry" />
        </mxCell>
        <mxCell id="WzrB27unxxDF3hPiiffK-52" value="结果数据获取" style="text;html=1;align=center;verticalAlign=middle;whiteSpace=wrap;rounded=0;fontStyle=5;labelBackgroundColor=none;" vertex="1" parent="1">
          <mxGeometry x="530" y="975" width="100" height="30" as="geometry" />
        </mxCell>
        <mxCell id="WzrB27unxxDF3hPiiffK-54" value="" style="shape=singleArrow;direction=north;whiteSpace=wrap;html=1;" vertex="1" parent="1">
          <mxGeometry x="460" y="320" width="60" height="100" as="geometry" />
        </mxCell>
        <mxCell id="WzrB27unxxDF3hPiiffK-56" value="" style="shape=singleArrow;direction=north;whiteSpace=wrap;html=1;" vertex="1" parent="1">
          <mxGeometry x="640" y="314" width="60" height="106" as="geometry" />
        </mxCell>
        <mxCell id="WzrB27unxxDF3hPiiffK-57" value="" style="shape=image;verticalLabelPosition=bottom;labelBackgroundColor=default;verticalAlign=top;aspect=fixed;imageAspect=0;image=data:image/png,iVBORw0KGgoAAAANSUhEUgAABXIAAADuCAYAAACULv8HAAAgAElEQVR4Aey913IcWbpmOW/ShAZBAIQIrbXWGlprrbUWhCQA6iQzk6kr61TVKXGmxTl9us16rucZ5m6sbaytn2GNbQ+AAAkwi8lkVjKr9oVbEEBEuPveyz0Yy3///v9Dq9Xyj7yoTQ7q/C0EmkcZn5xmdnaQqclm2qNuImo1Zo3mg4+P2uRH7Wol0T7E4MwME7OzzJ4v0wNtjOesxD36D77ef+R5lvv+j32cy/mX8y8ZkAxIBiQDkoFfJwMvXrzgf//v/83/8//+Lz75v/8/Jv79f9L1n/6n8ih+Fr8XfxfPk3P865xjOW9y3iQDkgHJgGRAMvDuDPwf/+iDpdEb0JjdWFx+gqEw4XCAUNCF22rCqtWi/zlEt96M1ujB5vYTCIcJhcV680vI7ybgMGAzvfsk/qPPodx/yYpkQDIgGZAMSAYkA5KBv18Guru7+ctf/sL/+l95aSvErVjEz+L34u9y/v9+51/OrZxbyYBkQDIgGZAMXDLwDy9yJQyXMMixkGMhGZAMSAYkA5IByYBkQDLwsTJgMBhobGxUxK14FD9/rNsqt0seR5IByYBkQDIgGZAM/BwMSJH7c1TcyveU/6mWDEgGJAOSAcmAZEAyIBmQDEgGJAOSAcmAZEAyIBmQDEgGPiADUuR+wMH8OUy7fE95BUcyIBmQDEgGJAOSAcmAZEAyIBmQDEgGJAOSAcmAZEAyIBmQIleKXHllRDIgGZAMSAYkA5IByYBkQDIgGZAMSAYkA5IByYBkQDIgGfjIGZAi9yOfIHm1RV5tkQxIBiQDkgHJgGRAMiAZkAxIBiQDkgHJgGRAMiAZkAxIBqTIlSJXXm2RDEgGJAOSAcmAZEAyIBmQDEgGJAOSAcmAZEAyIBmQDEgGPnIGpMj9yCdIXm2RV1skA5IByYBkQDIgGZAMSAYkA5IByYBkQDIgGZAMSAYkA5IBKXKlyJVXWyQDkgHJgGRAMiAZkAxIBiQDkgHJgGRAMiAZkAxIBiQDkoGPnAEpcj/yCZJXW+TVFsmAZEAyIBmQDEgGJAOSAcmAZEAyIBmQDEgGJAOSAcmAZECKXCly5dUWyYBkQDIgGZAMSAYkA5IByYBkQDIgGZAMSAYkA5IByYBk4CNnQIrcj3yC5NUWebVFMiAZkAxIBiQDkgHJgGRAMiAZkAxIBiQDkgHJgGRAMiAZkCJXilx5tUUyIBmQDLwfAwY9WpsFk8OAw6nHaNSil2P5fmMpx02Om2RAMiAZkAxIBiQDkgHJgGRAMiAZkAz8FQakyP0rAySvdsirHZIByYBk4C0MWM3ogl7ccTvRlAGHXYdOo5EfvPJzRTIgGZAMSAYkA5IByYBkQDIgGZAMSAYkAz8DA1Lk/gyDKqXPW6TPBxpro02FM1lDqqmKwfZKMoFa7Go1xg/0/j/L/Bmd6OxxvKluUq19ZGNOYq56TAYpvX6W8f4FWdDpdOj1egwGAyaTCbPZrCxWqxWbzYbT5cLldiuL3e5A/N5isbx63sXz3+dRrM9oNCrrF9vx846tDoPPibU9RqTVRWNOg8clK3J/3jH/ec+tH3rbDb409swA6YZGmlJB/HYDVr1GVm3/guenDz3H8v1+XceknC85X5IByYBkQDIgGZAMSAZ+/Qz8akSuRqdBb9Rgtqqx2dQ4HCqcjnqcdhV2qwqLSY1Bp0GnuxRj4t9GqwarXY3TqcblrFcW8W/xWodNhc2ixqzXYNB9JJOp16IxaDBb1Mq+WY35L71vu11Z7KMyJmI8rGplHK6OgdGszu+/GCezGqP+1y1aNBoNZl8d4eHbjK2U8sl2IdPNdwiq1Zg/xkpAnQGd3oLRncaWHKdx/IDh1UMmukN0Ru5iM13y+jc7oep06Ew2jDY3NocHh9N9vjhxOK1YzAZFir+Nub/Zdv5KZYeQuEKmCjlrt9txuVx4fT78gRChSJR4Mk0inVOWcCxOIBjC5/Pj8XqV5zqdTn7s4nA4EItYnxDDQuiK7Xhd5urQ6fXozUYMZiGaNegM4nxjwGAyYDLr0Ove9fygQ6M1Yop58U1lyfR7aG9Q4XGpf2Z5/HGcp8XnkdZwPpYWA0arUVlMVgMmq5h/nSIrf9ZjSGdAK+bOrMdo0imffT/f+s7ZsejRm3TK54jOoFPGQLAj1q+/4bPFnBrEO3zK6NwK8+M9tCe9RJwGLIb89spzycfBs5wHOQ+SAcmAZEAyIBmQDEgGJAOSgV8PA78OkSvkpkmDN3mXlpE7TCyUsrFRzO5GEVtLJayO3WawoZqYtR7HlQpHi7OeRP8dhlZK2d4u4nA3vxxsF3JvvYiNmRKme27T5K/BZ1J9FDJXbVNRG6mltf8Om4sldMdq3iophUwwO1Q0j9xmZr2Y7YkyRhuqcBhVyu3NOr2aeHs1/culrC+WMt9bQcJej03z662IEiLXGqgjPl3O7G4xX90vZ6mzgpharezXx3by0Vj8aH19xPo2GN19yvzGHosz4/Tm3CRddViu8Pq32nad0YItN0F8/CHjaw9Y3j07X7ZZuTdNX2OMpE6FXfsLSOZfqbwVc3dRiSskrpCpQqy6XG6i8SQNrR109g3SOzrBwPgMgxOzytI3NkXP0Bgtnd2kczlF6grx+2NF7sXzL2SuqPwVFb2XMleHRm/F4HThafcSbLMT8mlw+SyoIwH8jU7SbUa8bh2mdzg/aPQG1EY7tmyAxEqCbI+DbKAOl/UfQ+QKiWuIeHC1Rkn2h8iNBJUlO+wlM+ggHDbg0uUvLv4sx7VOh9pmRxf0EG61E2s047bof6aLWXl2jD43vm4f4WYbIXc9dp8VfSxAqNlBssmE267B+AY7el8T9uYl2mbvM711zMr6DBP9ObIuA26jPL/8LGz8is+hcjx+PV8e5FzJuZIMSAYkA5IByYBkQDLwyzHwqxC5epsKS6yG5uEKVg+LODor4snDOzx7cIdn94t5tFfA5ngZw8lqEs46pRJK5DTaA/W0bxaz/rySr19Y+eYTEy+e1PHi0V2eP6jk2WkZ9zeKWGy/TXug5qO45VPtUVHTeJfJzRK+fWZksfUOmbdISrVejc1bz/i9Yu5/YeHbsxoOx8qJWuqx6NRorSo658rZeVHDy2danq4W0eauwa1W/2pvbRUi1+KtIzJ4h+HFUk43ihhvqiKsVmP9qL7A6tDqrBh9Ldg79ulefczes6esrsww0ZUlG7ThMavQ6//2MkNntOJsWyW78j3LZ99x+Px3HH76Lzz89js+/dND1kba6NLX45Ui90dVlwqRK+IUhMQVYlVU4AqJ29rZy8DkLJPL68xu3GN+a4/5rX1lmVnbZXxxjf6Jadq6+0lmGwiEwrg9nveWuRdSV8jci8pcrVaHWu/A5A8QmYmRmfaSi6vxR+1oGtIkhv30TlmJhgxY3+H8oDGa0LgCuFuDNK0HybbbCFnrsf0CFyZ+if9A6Ix6TKkA3t4EDdNx2haStC2l6NyI0bvjI9tgIqBXYfm5zkk6HfVuL4Z0lOyEj5ZhO0GHTomY+eBVuToDaoMbczRIbClKZsxNLlSPJ+5C35QkO+ajc8RC0KPD8obI1VoDGIMdxPq26Ft7yubDJ2xszDDR4CHtMf78Vcs/1/jL9/1R58Zf4hiV6/zlvljIsZdjLxmQDEgGJAOSAcmAZODnZeCjF7lC3DliNWTmS1m8V8Tn98vYnS9huvc2/d0V9A7eZmSxjPXVEp6tlDCSq1K+zBquiNy1s1u8WC9iZ6yUjtZKOjoq6em/zeRmMTv3C3m+U8hmXwURk+oXl4E/VuRaPXWMbxZz/NLEixcGjhZK6LHX4rfVownVML5YxtOndXz2VMPRWhEt7tpftcgVJwQlYsOtwuOvJxaqw2NXKZVoH1xg/JQv6zoran0CT8McbYffM7tzj72ZHD0NQXxOKzZj/vbkX2KbdXoDRm8SR6KbZGM3uc5psgNnjO0/4cGfHrI0KkXu+3zwiOpXUQUr4g3cbjepXCO9wxOMzC4xvbrD7MYuc5uXElfI3LGFNXpHJ+kZmVCe2z08TlN7F75gUMnQvZCy7/N4EbMgKoQvRW6QyHREEbnZmBpf1Ia6IUViKEDPpIVwyHBdxt1wHOisVrTxMIHuMN0LYl9NOHRqTB9LRM0N2/w+c/rW14gYAYcZc8COK2rHk/LgzkVIjofp2PGT/nsSuVojar0TSzRIfCmmiFxRfe2Ou9A1JsiM+ugathL06K9Vc2v0ZrQmF2ZXAm9ulNzKp0zcO+X+eifDzf6PP9v85+ZIvr8UwpIByYBkQDIgGZAMSAYkA5IBycCPZODjFrnnkQrh1iqmzgrY3Svk4XQJEy35BldBXx3+aA3x9krG5kp5eFbKfF8FKYO4LVz1qiJ3+aiAJxMlzDRU5bNx3XV4w7WkBisY3SzmxcMqTudLaLfV4tee3xosvqib1TiDdUTSd8k1VdHSXEVbcxVNybukAjV4LPkGW6/JOCXjVoUjUEskm39dm5DHrVW0NVXRnLpLzFuHXX8uPfRaRJyCLVhLrqmatoE7tM6Vs3dWwPefuThZLGa29Q797ZV0tlTRnasi7q/N38Kq13Ahcg9f6jl9VsvhcgkLoWpy0WqMrVXMLJXw2WkFnz6qZX+tmGbPFZGr16I15rc1fL6PrWI7m6toyVSTi9QSuEGSmhz1+DJ3iSVqyIbqSKVqSDXepUmMjxinZA0xbz12vfa1BmRiPN3xWsS6MuE60vEa4g3VNJyPa0v6LqlQHW5zfmwuxlVESJjc9bjjNcoYdYqxOB+PrlyVMp4iH/fi+Vfli8VdR6Chmni8hmy4hlT6LunG/Fy2NlTTFL9LWEQcCEF85eBRMjD1WiyuevzJu6Qb7tLaUkVLrpqGVA3ReC2x2F1aoneJuupfe61Yv8boRuUeINp/j8XnX7G8Ps1s1kzSpVdiL65uo1ZvR2OO44qmSbRkificeA2vSzG1yY3akcUfT5FuiBBwWq5EZJjQ6J2YPXE8yRZijR1kWrpoaOkgm8uSivkIuK1YRM602EeRkWu0orc6sdpcWL0NmOKbtC2fcPynxyz8oMg1otXZsYdy+LPtxEJOgg41JsPlFSe9M4Il2kEsFiEdsmEz66+cmE1ohRTyJvCm2og3dirbmmtpJZtNk4y48TrNv8qMXiFyRTWuyMONxBO09w4wubTB7NruqwpcUZE7tbLN+OI6wzOLdPYPK/PU1NZJa1cfImqha2CEZKYBfyj0k6pyL2IWRFWuELkanQOj1094KkJ60k0mosEbsVGfS5IYCNA7YSMUvC7jXmNVOUZ06J12LC1xov1BekZMxOM3RTKIqnQDeqsZs08wY8MTO18iZlw+Izb7Wy5oiGxp0bjNY8UetOOO2nHHbHijFuV1docOo+HymBVRDxqjBYvHjDtqwRG04gjY8UTMOPwmzA6rEgWgrN9vxGHXKjm2+X3TobeasISc2PxWnG4j9oAFR8SOS2xvxIzbn99WkaUujqF8Rq7Ims5n1OrtNnT+AIG+AG2KyDX/9YpckXFrNGJyW7EGbbhiDmV8vDErroARu0uHyXi5jyIPVyPyj302vEkH7uYQgb4ErQthOmZ8ZBqdRBJ2fAkHvpgFX0BEfFx5vfZiPkzKe9jDdjzn6xT76PLqsdp0SsTQ1XNhnh0nlnCAqKjIHXWR8atwRh1oGxJkhn10Dlnxe25iQJwXRNM9EwZnFkfnCR0rjzl9ssbsSI6EsR7nL3BXwnWmL89f8m9yLCQDkgHJgGRAMiAZkAxIBiQDkoGPmYGPWuRqjBpU3jqyQxXcf17P7nwpw64aJQvXaNRgMGiVhj0Gk4pU9x1mn5cyP1bGuKOWkJC559EKy/uFPBoqZyxxV7mVXTRlMZg06IN1xAcq2H9WxelOIdOeGtKGekU6qY1qzN5aGoYrmN4t4uTxHZ4/VfHycT1PtgrZGSynNVBz7VZWkeWrsteTHqhg9rCQ48d3ePHcwBfPjbx8UM3z3UIWOu+QNokvsGol+7dWSMGxCu4/ruDl5w6+/MLLb74K87tvk3z/RYBvP3PyzWdOvn2q558Oy1nruYNHI0RfXuSO7ZSw+1LLvbNb7C+UcNR8h8HuCtyTt5lbKuWznUI+fVB5TeSKbdW765Rtnb5XpKz/+TMNL5+oeX5QwP2ZEvoS1Xi0+YpXAbKokBYSt3u/iIX1Yg7HytjeKmb7YRFPntby2cNqnm4WMd95h5ix/lXOqnidzVdHy2IZM7sl7E2Ws7tayupZAadPqvj8qZrnewXsDJfnZbNO9UqOioZM7tYqmtdLlG386jMHYhHj8duTKhbbK27MERbrDLVUMXBayMpKCYcTJWztFrH7qIRnz1SK4H6yWsRUUxVBnYhmuBJzcH4Rwd9YTb/IYz4r4MUzDZ8eF3O2WcjMSinLi6V8vlDEbHMlujcqEdX2CKrsDg1zDzh7sc3iRAtZk/pGaaE2J6j3LtA4u8/6p8dM9qRos9YpfFycPFSuJuoyh3Qvb7J3OsNgNkxMm2/wJiRuvSWDv3WJ9s3PmH/wPYef/Y6TT7/i6PSIreUeBpqDBAzaywxNIXPFotejscap9y/TOH/E4Z8eMTfa+gPRCk60+iSx0WP6jr5ifjTDcKoWp+UyG9WamyE09x2LizPsjMWI+MyXIlfvQmVME2hfpmPzJYuPfsvR57/j7NMvOTraZmO6ma60V7kQI/I2L/b/1/B4IXJFQ7OWzh6GJxeUCtyrVbiiMndoap6ugWEaW9uJJ1P4/EGl2ZlofCbkb8/wOB29gySy2Z8kckUVr5C5r0Su1obJ4yc4FSEx4SYV0uAJ2qhLJUj0++kds76DyNWh0YiKbieuwRTJ4SAd7RpCgRviWnQGNAYz5pAbV3eE5ESc1oUEHQsx2qcDNPTYiCb02I2a1y74iAsN4nUGjxNnW5jYaIzmhQRtC1E6Z0I09tqIp3Q4rVrEnRdCOqqNNlT2AIF2L42zPpIjUZJDUVqnPDT0e/Cl/MR6w7QsRWnpsZNJaLHZNGg04pxmxBz24h1LE+sJkG1xkBwMkZpO0rIQo20mQHO/nWjCoETWiKaayrlQp1GErjj2NSYrKqcff3eQlncSuSLqwoTe6cDRHCAyEqNxIU7bUozOhRAtA04yDQY8Th3G86gLIXHrQhF8PXHa1pJ0bqTp2krTt5OibydJz0aS7vX80jPnp2vIQjB4+Xoh1cW4WsIePL0RkpNxWpbjtC9G6ZgK0NhlJRLV3xAxJObcgSXkJ7IQITnsIu1R4Qw50WbjZAa9dA5a8Hm0r7b1+vGqQ2v0o/ZMkxg+ZO3rT1lcGmTYXUPYfHnuuP46+R9IOSaSAcmAZEAyIBmQDEgGJAOSAcmAZOAqAx+1yFVb1dQnamiZvM3nD++yOVJGUq/CZa/HEqwl01ZNd3cFA81VjEyVMf2skKWpUpaDd4lb6l8TuQ8HyxmNV7+Sg1q9FpVbRbCrku1ndzjZK2LBd5ecsR6tTo05XEuku5K59WKODwvZ3yrMN1fbLOJor5DTe0UsdlXQ7qnFabr8Imrw1mFtrmZ0qYSz02KOdovYWStme6OIe7uFnJwUsjtdwlK6ipSzDo1BQ72vHl9LFTOiidu9AjZPCnn2XMdvvwzy+cltztaL2NsoYmelhHtTZfRnq/PxETqNkpE7tlfM9ucqljeL2J0q5cVIKcvzpeS2i5X3PJkv4dP7pa9FK4gMYXO4Bn93JZPLJRweFLK/XaTso9jWfSGvjwtYHahgIFCD36LKywuNhmBjNYMPbrF7WsAXW0UcrBazvFyiNKDbF1XTZ6XsLxYznczvowBOSNULsb766BYvdgs5Wy9WZOj6Rgm7u0WcnRRyul2k5AK3empfVXnqxH7Ga4n23WFirpTNnSI2Twt48qiKPz8ystFbfmNGrlhnpLOS0U8KObhfwGebheytFCtSd3OriMPDWzw5K1fGdCx0l7Atv49ie3U2FeZUDW0T5RyeFXFyWMDx+RysrxWzdlTAyfEtfr9ZwHJ7xTWRq3MlMHY9omP5MZ+cTTI7kMR1RYhfPQg1hhAq6wi52TOWvvqepakOxiIqfJZLkakL92Ec/JaJrX0eHQ3Qk/bh0eQFmMGdwdqyQ/P0fVaPHrC4c8T85iGzGyfM75ywfnTI3PQAAzEDEcfle15sg9ocpc67RHbuXUSuC40+TWL6CSOP/5m1qQamsjWvNbmyNi8RWfsXNjZXuD+TJB6wnQtZHQZPA+ambTpmj1k6PGNh55C5jUPmNk9Z2r3PxsE+06OddIe0BGw/9WRtR2eK4M31kxqYpWN4lt6RmWtL39Ao/Z1ZmhJupXr49WrEd98GIXJFnEEinaF/fFqpxr3Iwr14nFhao3twlFxzO0Lc+gMBJYZBNDjz+f0kszklK1c0RGts61T+JmIavF4f8WRaydANhiN4vH7ebIqmvIfPhxDJItZB5PO63R4sFku+Ildjw+j2EpgIEh9zk/Rrcfls1CYTxHu99Iic04D+B2ScqOYWealWzGEf4ek46WEPDXEVPuflsXPBlc5iRhf04WkJkpkIkxkOkOnzk+4Pkh4Mkh3zk+60Ew1qcF5pkqYxGND5PNhzIRJDQbKjQTL94nUBUgNBsiN+Mr0OolE9bqtGuTinMdmod4YI9gZpXQ0oz012B2mYDpMbC5Bpc5PsCxAfj9M86qa1K9/YzaDRotUYscT8+GdyZMYjtA04Sfd4FakrGpmlR0I0TgfIdNiI+tQ4rhyXF/uqMVqpd/jxdgfeSeRq9Hq0HieWdIBoX4DMSIDMQH67U/0hMsN+soMeYkkD3vOKd7XJhMrtwZn1kRwIkBqNkZ1J0bkWp2c1QutIgIb+/HtkuhykG024z+8A0Gl0XJ2P7GiAzFD+uWJc04N+csNe0m12wn6xj5efaUpFrsaOOeglNBciMegk4VTh8DvRZGJk+j109puVRnkXYv1iXF571LtQGzsIdW4z8fnvWVibYiFxl6TjOjuvve7KnRLy9+9+PpJjJcdKMiAZkAxIBiQDkgHJgGRAMvD3ycBHLXI1DjWq5mo6psv4w34Zq913MGs1GIO1ioBcPi7gyZNavr5XyNl+AdMPbrE6Xcq2EIj2ulfiUFTk3iRy1a56gp1VbH1SqYjcRf+5yNVr8HRU0b5VzOPTEl7uFDLVcgdx63+0sYrxjSKOPtPwcLmI7cZKole+iNpSdwktlbK7X8A/HZax2HWbXKiGcOwujf13mDwu5GirkC/GS+mK1igVXaL612RX4fXX4M9V4+mvYGW/gO+eW9kZLqMnUE0yWEMoUEPQIzrD1+dvz9flm52NHRSz8eldJqdK2Rwt5Tdrhdw/KmD0cYEiPlcGy3lxUMDZWhGt5xm5QuR626po2S3m+KBQkZwzHZU0J6uJpavpmy1n47NaRbbe76gg6627JnIPntzht6c17I2W05eqJpetomP0NhvPbvPopIjPxsoYiFW/et2FyBV///pBDQ/mSxhJVSsxDpmOOyzez1fnPp8vYTFXifVKV3OdSY3RocLlrseXuItnqIKpzSL++ZH+nUSuqKj+9qiczYHb9KarSTdUKvu495maJweFPOupoD1Q+2pbTf56vBO3md0v4p+emjidK2UgVU1jcyWtY+VsPSzgk0d3+eP2zSLX6E3jGvmcgbVnfLrbxURH4Fxm3nQicaLRpIgN3Wfw+b+yujLEcquOsPPyuZbMBP6Vf2NhY5snSymaow50ioTSY030E1r5M5N7L3h2NMPMUDvZVIZIeoD04D3GH/2JtYN9DgettEcu3/PipP63Ebn5Sk5regL/2r8yv/+YxwcTjPU0kYlnCWWGaZy4z8zz/8zWzhoHfUYag+KW7Ovb+66/U6tDmBz9NKy+ZOar/8aD7/8rn/7u364v3/6eLx4ssjueIuA0X4++eMdtEI3ORBVstrElH6mwcY+FzXxTM9HgbG7zHqNzS0oGroheeFPECmErZG62uUWJXhBVuULEiqiGYDhMR98QfSOTZBpaEDJXPP9qdq74ORiJkWtuo398RolqEA3XrDYh0sX4WzC63PhHg8SG3MQ8GhweO7WxGLFOL92DZvx+nbL/b5PZIsJAbfFgTYVIL4fIDTpIiOPS+LqME5WuOrcDU7uo3o7RN+8m22LD7zfhCDgUGRmZTNAwHqC9WUPYf17lKipkzWaMDVH8Qwk6Z3w099jxB404g3ZscT/h0TjZhSjN7SZiwXrE3RmvRG5/SBG5oqo2kXIRHkmSnojS2W8h0e7B2pQgM+6nY9JGOKDHphb7eylyG+aidE05yTRa8AfMOENuvC0RkgspmsZ8tDeqCHiuSs48nz9G5IqxETEJxnQY90CK5nEvrT02gmEzTr8NS9CNvy9Caj5BU7eVdKwei5DHolLZaMRgNWBxGTHFvDhaozTNBGgfdxINm/C6jFhdBqwOPRYRk2DQKPN5MR/GjhSx4Qi9k3bSjWY8XjM2ZT4CRKdSivRubdQQ8l3dR8GODVPAQ2AmSKzXScyuxu51ok7ESPW4aesx43bn2Xn78WlBo4nhbVql+8m/MbuxxFZrFTlf/rPl7a97/3OAfE85dpIByYBkQDIgGZAMSAYkA5IBycDfGwMftcjVutToOqromS3nDzsFLHXcwaBX42+tpG2lVKkafbhZyMp4ObOLpcye3mJjupTdTCVpxw+IXJ0ag1WFq6mKjoVSHj65q0jOAWctYZ0KrV5NfKiC4eMCRWQeDpXTFKzF66rH7qkjM1zBmPjbWhEPBspJevJxDAIOZ7aG5EYJe/cK+X6rUGm+5rWqsNtVuEN1xJqracpV0xW9q+TPKkCJPF6jGotVhSVch7G9mrntIr79xMxa921arPUErCpsYrGIPNKLrNNLkbv1rILZntus9Zfz9LiQhw9vc/ColNGZUvr6KniyX8CjtWLa3DWvmp2ZfXV4G2pobqqmO3tXyd4VlXV2Vz3x7kr67hdyuF7M89FSWoKXkvOiInf/uICvloqZaBhxASwAACAASURBVKok5KzD7a4j3HiXzs1itu8V8f1SEePZ6yJ3/cEtPt8oZK27gpizXhlXT6SW5rkyFg4KeblazGZnBfYrt9yKeAXR5MxoVmMO1mHsrmR4rZg/PtS9k8g9PizgxVwJQ5lqgq56nJ464p1VDB8XcrBdxNeTxfREa16JXEe4jtxaGUt7hXyzUcxixx1Cznrc3jqC2SoGtorZO73F77ZuFrkmXwbP+FcMbDzjk802xtp8PyAlRYapC0/nFo0H/5GNzXnujQVI+IRUNKLVuPG0LNJ48t9YWFlgb8BOxp/v+C4EncERxpYZJtrYQXtTnHjYh9vpwuYK5xsMbfwTU9vHPJ4N05u2XtuOv43IFRLHh7tlmeazf2d+fY3dkSDNcRdOh9jWKL6WWTKbf2RuY4cncyHaEheVvO/3wSNuB9ebYvhbRsmNr9E3vcrw9Mq1ZWRyhvG+RjoyXuwWw7XxedeTvtFkUqSryCYeX1h9lYMrcnInFtYUEZtuaFQqcYWwdbpcr4lYIXaFjBXVtKJBmhC3wVAYn89HIBhSYheGJueU5mjNHd2KtBWVukLmen0BJZe3tauX/tEpJb5BxDuI1+YrcsUYGjGYzFgjVuxhMw6LDpPZgNpuxxGwEAgb3shUvWHcjUY0gQCu1igts15ynRb8Zo0SOXA5Tnlpb/S5cA6mSQyF6OwyKLftWyx6jFajkpnraAkRaffR1KQn4NeeX5gwoLPasHXECY/GaO21kk7rsdn0mGwiT9aGsz2syFzxt0xKi8kkog3OK3L7ArQse0imLYT8NjzdCaL9IdradIQzdvTRMIlhP60zDiJBAw61WO+lyBWVqu1dRsJhPWJbTTYz1pgH91CK9JCf3m4t4RsuMPw4kWtAa7Biaw4TGIuT67KSTmlxOPJjY7CZsTUEFZHd3GunqUGDzZrPthaVvHqDHoNZj87vwdwQpWHKT9uog7BHj8ukw2jSYxDNFI0iPkWDVqNX4iMMfjeuwSTxwQDtrVrCYR1m8/l8BF04umLEBoJ0deuJvnbBR1xQMSpZx7a4DXvQpMRhGCxGNA4HzqARX1A0+tNd3vFy48UPC2p1EE/jAu0P/o25jVX2uupoOJf4l/zcwN2N7yefJ8dMMiAZkAxIBiQDkgHJgGRAMiAZ+Mdj4KMWuTq3CmN3Fb1z5fxus5DFtgpFsqZGbzN5WsDpSjH7Q2U0N1TTNlLBzFkBW7Ol7OUqyTiviNzjQp5Ml7LQUonPW4/PX0cocZfWmTLmjwqU2AGRn5oz1+MUeYQGNY0zt5l7/B84FFENmSq859EC4iBxNFWRXinldKOYz2ZKyJxXcoq/uTI1JNdKuLdbxLebhQw1VeJz1itxEHYhak35xlBvq3hTe1TUNN5lcrOEb58ZlZiBjFqtNLZ68wBV6y9F7vbjMuYbK1nsrFCqRU8flvPZcQmDE+Wkeu/wYL+Qp2tFr4lcIUdFVrDVrsbtUeEVYyNiHnz1xDvv5Kt1Nwv5ZqGI9iuS80Lk7mwX83ygnPZQXvKK7TMH6vEJsb5ewl92CplpqVTEmKgAvqjIXT0s5OlEGROpqldf/A1WNa7eO/SulvDFVgGHg7ffuL338uDUuOupb6+if7mEPzzUvpPIFdEUD3pukzuvLFbmMVFLbKWEtY0i/rBcqFTcit+LSAZ34i49B0Ws3yvik6Ey+qOXQtrirSc1V868kPUbhTdGK5j8OfyTXzMoRO56M6Mtrr8qCC25eYILf2Tt3hYnqy00hOxYNDY02hThni2GvvgvzC+OspipJea8jEjQ6Y3ojQ5MNg8Ojx+nJ4Db61cWf26A5NJvmdp+xGebjQw2ea5tx99G5DqUquNQ1w6DL/87i+uLrHbZaIx7Xm2rr3Gc8OLvmds64qvtZrqz17f1zWPgh38WDb7MGO0erL4gLl8Aj/+GxefD47LhsBnRv5F1/MPvf8mkeJ7JbMYXDCEal43OLSPiEdp6BhmYnFXyctMNTYqYFXL2YhHRCqLi9mp1bTyVYXhqQWmEJuIXRIauELUiakG85+TimvKYa2pVpLCQuaLCt7G1Q1mPaKQmoh1yLW3K+5rNVzKKf6IQ04lq2XQEX2+UjjEH2UYD1vMGYJdjJUSuyMb14JtMkRzw0pKsxee6rPLUmYzoA26ccReJtBGvN98EUKMxobe5cPXFiY+HaWzQEvXV54Wk2HaDHn0yhLs3TtugnaYmISN1V0Sun6ZFF7GIEY/dgrUljq/DT1NWTTBsQe0JEhr00TTnJBoy4HqjIjfd76E1U4/nSlSE3mPH2JYi1h9gaMhANHq9UvzHidz88eoW4nQmTq7dTCKmxe42YrXnFxG54OpN0DropL1dj8P+xjp1OurdXgzpKNkJHy3DdoIO3bXM9vyc5OfDEvISmE6TGvbTnFUp+bmv1hewY22NE+0L0T9sIpl8Y30/kZv8dpjyF3Ma5mk7+a/Mbqyz36uiIXh5Lrtk6PVjS/5ejodkQDIgGZAMSAYkA5IByYBkQDIgGcgz8NGLXEPP6yJXb1DROHWbuQeFbI+UMZeoJuSuJ9lZydjDAtbnr4vctWflfPk439zqeL8AUZ15cv8WDx+U8+joFocTZYymq3GLik9F5KponStn6WkJB+MlLIiGX1cyA225u0TnyzjZLOSLhWJygZpXQtIYqsPZd4fFe0W8fKblwb1CtuZKmBstZ6TjDp2Ju8RcdW/NofwpInep4Q4TDXfoXy5mcVE09ypV4hz8/Xc4PSjkk9UiJdPXfd48R++qx5aqoXOkgqX1fE7t4V4hR/uF3H9QwtkLLd8dV/CbxSI6YpfVqhcid2uziKc9t2m9IrIN/jrcQqqvFvMv90qZb72j3Np7VeQuHxbxaOS8+dy5INBZ1Dg7q+hcLuWrnQKOhstxmutfjevVA/Z9RO691WJOOivIXqmeFrm74cUyReT+aa2QwfSlrPUkqhk8LmTzXhGPu2/TE8rvv9gOk7uOyHgFk1tF/Gb97SLXN/U1g5ufvLPI1UZGsfZ9xuzBAcdH4/TEPQQMPnS2IRJj91j57ZfMTnUx6K4nYL6UHzprEGN4mETvGoOrJ0xvn7Gy95jV/cesn7xk88V/5uTRY77caWGo6Xpl8N9G5DpRq3NEevYY+up/sPXiOx4+PGP3+KGyncq2nn7NxvP/wsNHp3x1r42enPe9Yw7yvAgZpUNnMKE3WTCZrW9ZzJhMBowGUcH4/h+OFyJXCNex+RXae4cuq2THpxW5KgTr1aW1u1+pwBUVtxcxCSJjd2R6UWmIlhe5Ig/XrWTfitgF8frhmUVEdW5bzwDpbKOyLtFcbWRmkZ6RCUTlr4hjEFW+H07k6tDbbNjb40RGosrt9Mm4FqO4o+A10SfEoUXJ0Q3OpEgOummO1eJ1XN65IJrsKVLYasRm1ytVtWLOhMg12N24B+PEJ0M05rSEPW+I3EQQZ3eC9iEhcg1YzVcrcn+iyO1z05yqw+O4Ip3ddvRNSSXLdmjUSCyWl86vnZN+REaukNx6oxN3d4zESobW+bDS/K1pNETD+ZKbidO8kKR30k17h+EDiNzL+cgsxema8dM6cWV941Ea5pK0z4QYGrOQSl3fx6v7+37/flPkbnDQp6YxeDnW7/e+73/MyvXJsZMMSAYkA5IByYBkQDIgGZAMSAZ+bQz8KkRu32zZq4pcIXJbZstZeFTIatdtpeu1U68m2FrF4KMCVudLrlXkrj+v5MtnBr54ouLxWZnS4OrJaRmP9wvYmy1RJG7KoVKEhFarQayjfb6UlWflHIyXMxerxn3lNn9ztprwXF7kfr1YRGOg5pVw0jtU6OK1dM+UsXdWwIP7BTw6uMXRThH3lktYnyxlpKmSjKsW15X3vADnfUXu7pNyVhruMBSpJtF5h9bWO0qsQ6ClCtdgXuS+OBe5Ho1aEVau1F2yk7dZ3ilSGpQ9Oi1VxkcZoye1PP3czPcn1fxmqZCO2F2lklNUq16I3M2NIh51VtDqv8w4NPrqsQ/dZmqlmH/ZK2eh7Y7SWf41kXtDZrEQubaOKtqWSvhqt4DjkTI8ZtWrcb0YH/H4PiJXNIo7aqsg476USdZYLaGF24rI/fNGgRK7oLy/yA9OVjNymhe5Z+236QpcFbn1BEYrGFsv4ru1HxK53/wokat2tqPL7DG0f8bO420mGoNk3RGMkQ2aZg44+W6PqcEGcoZ6HDohP4xodXYswU4Cgyf0rD1j+8HnbJ99zr0HL/PLs99w8MW/8ujJE77cbWO42f8LVeS6FJEb7d1n5Jv/wc7Lf+bJ8885evI5ew9fni9fcO/hlxzeW+NwLqvELghurs79j/u3Cb3Bjc2fwJdsJJpuIJFpvLaICthk1EfQY8Fs0L/3+kwiWsHvp6E1H60gYg5EtW0yk1ViEURcwuzaLnObe1w0Pxuamqelo4dQNKaIXFGZm8w2KNEKnf3DhMJRpdGZkLxCyoZCESVjt29sSqnMFfK2a2CE4ekFJcpBSNyGljYCweCrDN4PJXLVejN60ZRtIEZyIkRTo4GwV41e/+YHf17kWsM+gnMpUkNumqI1eOyv5+jeNJdCcgqR6xmKk5wM0ZDVEHLXXanINaCLh3B0xWkfctDcLESuBrXxIlrhp4ncVI+LpmQt7ivSWeu0o2tMEO0NMjxm+iAiV2d04emJkVxL07YUpWM+TOt0hNaZy6VlMkRbv51szoDV8sYY/+iKXAvWsF+Zj9xKku7FMO2zl+sS622ZidI66qO920wk8tfybt/YntdE/tv+dilyW09FRa4UuTcdA/J3b+NH/l6yIRmQDEgGJAOSAcmAZEAyIBkQDPwKRa6a1rkyFh8XsNJVwZCrBrsQuc1VDD4UIvd6Re7K2X/g+VohW6NltLZU0tpURXO2mlSkRpEELosKs159XlX200SuiCvQmjW4w7UkWqroGb7N1Hwpq6JB2v0Cnj5T8XizkMPOCpquCNCLA/InidymO3S7anE4VNhsKlw2NbrUXZxDtzkTGbFXRK5WryE7VMHcs2KOdwu5P13KRPdtOlruKGPUM1mm5AA/2SuQIvc9Ra5XiVZ4zjMlWsH9VwWhxpDC4J6mfeMTFp89Y7E/SndDEmv3I7qX7vP500lGO6J4tCqMQnDqbKh1WbxNy/Q8+B0LRyfsLQwwOtCDyGkVS9PgIh07/8zSwSNebrf+4iI30rvLyDf/lZX9XbYmmujvaSPb0nG+dJJt6aQhl6Qh5sLlMP7VMbs4bm5+9GOwtZOcOGH47Hs2H3/LwdNvri2HD55xsjnGfF8Mr91048WDm9//9Q8Ro9GoyNNMUwsTS2u09w4iohN8wSDRRJKOgWHGFtaYW7/3SuQKAdva1adEJAhRKzJtRbM0kbErMnJFbMLV2AXR/CwYCikN0Qan5pTnTS1vMTq/gpC7ohJXVPe6PZ5XFb4fRuTqUJsdGIIBohMRclMeMhEdfovqhipmKXLTDWYCehWWGwTnRUWupydKYiFGY6+DTKMJX9yCO2Z9tXiiVrwBAy5XPu/2NQbfS+QKsZ4kMxGktdVEPGN+ta6L9XrDZrw+HTbb62y/tu4b9und/i5Erh93wzytZ//O7OYa+731Mlrhvcfz55gj+Z7vxrIcJzlOkgHJgGRAMiAZkAxIBiQDvxwDv1KRW87C41vXRa5SkXtd5C4fF/JospSZpircrnxerdNSj/GVvL06AXmRK6p+F58WcTBRxkKy6lq0QmyhlJPNIl7OF70WrSBg1ug06EVTLlcdgXgt2eZqOnoqGVsoZe3hLR4dFPLdXAl9iWpFHl+9LflC5E5sFvPNM8M7Z+TuPi5jpamSTlsd5osKOb2WukTtNZHr1qvRWNR0zJay+6WRo6US1nJVyn4o4+OqJdpepWTknmwXvVXkXkQrtN8QrTC9WsJf7hUze0O0wspBIY9HyhhLXGbkiopcR1clncslfLlTgGgw9yGjFX5sRa6IVhi4X/DWaIXQ+G2mNov4zVsycg3eNK6xl/Svf8Lz7U7G2/3X5vrNE59G60VnaSE1/4TRs2/YnG5heriD0Ny3DK4c89l2A/0NHkyai2Z3LlSmHiI995j+6ntW7q2x0uKnOeJVhKLd5cab7iW2+Fumdp7ycueHRW5u9ojDPz1ibrSVLn09Xu1N1bAOtPoE8YnHDD38ExszzUw31OO2Xj7X1rpCbOM/sbGxxNFUlLhfZLSKaIUs4Z4dhr7+d5bWZ1nrsJCNOhDbKRYl39cnKlC9BNxmLOb3r44VY6tWuzFYGoj0r9G5+YSZ3Yes7l1fVrb22ZjtYbQ9iFvk5L6nWDEYDNjtdlLZHEPTc0o0gmhcJvJwhdC9yLidWdt9JXJFnm3v6KRSxZtI55SYhdauHqVZmWhoJiSuELwXsQuvKnOjMeX9eobHlTzenqFRcq3tSsXum8//ICJXp0PjdmPKRMhMBGgecRDxaHEYLi6AXT2H5kWuJeQjMJ0kNei9MVpBa7NgcppxufXYLPlMViUj1+HGM/DD0Qru82iF5mb93zRaYXjESDRyPXZAZOSq7AF8XQFadvy8i8h1d0eJzUbJtpqJh9X5iAmrAZNYbAZMTiNWm2i6pr1e9fweItcsKqRF1MWwl+aUmoBPm1+X1YBRNJNzmDDbDVhtWkzGq/P5of4tGh5G8TYu0fXkX5nbXGa3s44G31+v1H7zXCl//lBzIt9HsiQZkAxIBiQDkgHJgGRAMiAZ+LUx8CsUuSJaofRS5LprEdEKoZYqhh4XsLZwg8jdL+TBkBCHd5UvxCIHUyw3CxshctU0TpW/ana2kq1+e7Oz6eLXmp0JiavTq5VFr9cgFoNBg9GowZaoITBTztqWiB0oZaKh6lLKncsjlbue2oYaJjZKfrTIXXuLyHUNV7xWkesyqRHCuG+lhNMvbWz0l9NvrsVnyEcuiE7nroZqMtslHO68XeTu7BTe2OzMP5FvdvZn0eysOd/sTEQyXG129mzyerMzT28lPWslfLlVxMHAh2129mNFrjdxl97DIjZ2i/hkoJy+8GW0hNlTT2ymnJndQr7bKLix2Znek8I+9Ck9a0/59GCAya7wW3ORL04aGq0BncmLf+iUrr3fc7A6yu7aLC37/5Gx9QPOxm20x0yvqlQ1Bh/1zkniQwes/eYpi0uDDFvVRIyCb5H3qsMSaiM4/zvGtj/5KyJ3kXcTuRZ0+iDRsQf0nf6Zjfk25lq0eKz5k79Go8XZtkZ6519ZX59nf8xPzCdErv282dku/S//LxZWJ1htrSXhEczlt1VnsmNwxnC6vYTdZmw/UeRqNEZ0ejtmbwRXNE0wniIcT15fYnEiQRd+txmD/v2bPOn1eqxWq5KL2943QPfQGD1DY8STaTxevxKZ0DUwzPTK1iuRO7O+i6ioFZW5oqK2f3RSybgVYlY0R7sqcK/+WwheUb0rpHF7zwAiHkII8KvVu+L5DocDEflwwdh7P4o5ivixdSZpHvXQ2m3GbdNhvFH2C5Frxhz04ptMkxzw0Zqqe73ZmdmMPuzFnXEr1ah+//mt/Brjq2Zn0fHQjc3ODKkQnt4k7QN2Ghs/bLOzjGh2llW9V7OzqyI3+YMVuVeanU3FyTUbiQXqMBs1yueS8vlkMmKwmRWRKyT3tfiK10Su/8c1OxNiPZFvPnfxWahkFltMGK1G7Hbdq8zi9+blxoshduViTqBlncFP/zPzm4tsNFWTvpJb/mHXJ/9DKsdTMiAZkAxIBiQDkgHJgGRAMiAZ+Ptj4Fchcnvnyl/LyBWSdfbhLXZHyplJVOGx15PsrmT+xW12V4qvZeQu35DJ+kMwCxEbG7zD8GEhZ5uFHI+W0Rypwe+pw+mvo2HsNpMntzhbLea07zaJK7mrNn8twa5K2jvvMNpaRS5Ui8+pUuIORLZs43op93aL+PNOAaPZqmtyT+1UUZusYWSjmM8/t7M9WEafu5aQsx6HTYXdUo/FkK9+VOvV2Lz1jB0UIypy31XkKhW5VhVd82UcfGniaKGE5UwVaW8NHk8d3nAtDSO3mXp4i2cHt95akbt/cotv1oqZbqkk5q7D56sj2lxF304Ru/eK+G6hmLHMZQOxC5G78fAWX2wXstlXQdJTp4yrL1ZD+2IZy0cFfL5SzHp7BfZXGcIa9EY1Rqsai9j/YC2mnjuMrBXzh8cGdobKSFrqldu8rRYVFoMagxDqGg2RzkpGPynkx4pce6SGxvUSVvaK+HatiNnmStwmFWabCmeyhp7NYu6d3OJ3WzeLXK0jhr71Pq1Lj3n0dJWF0UaiBhX2i2rpG0WHDq3RjqVth9TSd+zt3uPk5IipZ39kdnWVjSYtOc9l5atW50Zl7ifau8f819+xem+ZxUY/DSE3TmcAZ7CJcOcynXt/ZO3+E77YvbkiV2MIUW+fID15n60/fs3K4jBjYSsxlw2LxarISSEDRVMrnVaPTi/yPQ9o3vkTWzuLbE3nyMX8eL1RbIE2MpMnjD7+C5vLI6y2Wwg5hRw1KRWyruYlcvf/Ows7uxzOpenMBvC7vTjcMXzpPtKj23T29jCcsxBx/7SKXNHoTKszojfbMNkcWOxOrHbHtcVmc2C1mjCbdBh0P13k+vxBJRe3raefwYlZJTpBSNlkpkHJrxXNyiYW15WsXJGXK2SukLtjC6tKEzMhf0U8QzgafavIFVW3YhHVvrFU+rVM3AvhKySuqBD+6SJXh1ZvwpIN4RtO0NRvp6FBi81yXhl+jWUhcg0Y/G7sAyniw0G6+kzE4gZsdiMmuwVzwImrM0ys20dLi56gX4tOo0Or0aOz2rC1xQiNxGjrt5HOCrmoxyxe67Hj6owQGY/R3GUmk9Ao0lFj+jAZuZkxPx09RiIRAzZRFWu3YE148A6nSA/56e3UEgpcOQbP912jt6CyeHF3hGjYCZPpsBF3a3BYdehN54tBXGARr9WhNViwNoUJjInxdJJrMCiVyWa7CaPdgi3uxtPsI5IwE/JprlfICpHrcKFPREhNBWmecBEPGvFYdRgtOowmEcdwUcmbnw+jz4VjMD8fnT1GorHz+bCZMPvsOHJeAjkXsYgGl+P6Pv7QZ+a7/E1j8KByDBEdOGDxy29ZXBljKlRD1CYrct9l/ORz/v7+Ay7nVM6pZEAyIBmQDEgGJAOSAcnA+zDwUYtcrbMeY3cVQuT+frOAxbYKpVo2NXqbiZMCjuaL2ey6TSxaQ+vYbba/0HF/46eLXJEf626tonW1lIcnhXy6W8hM5x06GivJtFcyvVXE0QsVp/MlrGUrCZ038RFVp97Gapr3itg7KODL7QLmeytoSVWTTN6lZaCCifsFnO4V8tvFYvqT1dfyODVWFXXBWgZWi3n0pZ3jhWKWGytpS1WTiNwl6a/Fa8s37HpfkSuanYl9bJ4oZ+1lPQ8PCjmbKmWoqYqGhmqa+iqUiuDDT9V8fb/irSL34PFtvr9fyd5YGUO5KppaKumZKGf76W0eHRXwyVAZvZHLStZXIvdpGV+dVXMmRG+uivbmShp7K1g5vsXpozs8nSljLluF1ShkQn6xOOtxh+oIhmuINFQTGr3N7E4hf3hq4Wi6lPZwDWnxt0B+fGyiulirfm+RawnUEZoqY26vkN+d1bM7XEazp45QpIZ4VxUL9wt4/Liaf96+WeSqLUHqYqskp884+Oohq/N99Do1BI033Yp+efISt2irEwv4R1+ydfySJy+/YO8337CyOsmkt4a45ar0cKDRthBo22Lo07+wdnbG8WIXQ53NJNPtJDvX6Jh/zvzTP3P8+AFfvUXkavV+VMZ+EsP3mf+nf2F9d4WV3jit2TjBcJRgOIzX48Jp1GLSiWpzI6bGFSLzv2Hj9BHHByuMdbfR1DJAtOMeQzsv2PnyGzZnOhiPq/BZRWO2vEwyp0bxLf4Ls4fPeXK6xvRIFy25ZhKNo7RMHjP19P9kfXeNvX4LjUHDT68kvSYZL8f6fU6YP/QaUZFrsViUKliRUZttblEqbQcmZ+kaGiWVayCRzSIEr2hyNrd5mZWrCN21XUbnVpQKWyFo36yuvRC07/ooRK7NZkNk9/7Qdv/1vxnR6u242iPEZxM0dJhIhlVYTG+XfaIyW+e2Y2hNEBmJ0jfvIdtuIxi24Iq68DQEiU8laRjz0dqoJeQTjGgRr9OYzRgyEXwDCTqmfTT3OghGzXgiDpypANGxGLm5MI0tRmJ+lXK3w4cSueJ9uyedZJotBMIWnDE33rYI6cUUjWNe2nJqfFcvprziy4Ta4MbZEiK1lSQ36CKXNuALGrF5TFg9IrJAdxnnYzCgT4Zw9SdpnvTROuhQpK0nbMcW8RDsi5KaS9DUZSEdU2GxvDHWOh1qqxNDNERiMkLTnJ9cg5Vo2IzDZ8Lh1mO3iztB8ryLcdW6nBjbUsSGY/TOucm22fCHzTjDTlw5P9GJBNnRwGvz8dfZeMfjSWdAa42gTWyQnX3IwdenrMx10WWuU+4E+WDreTUf77hd8vk/8dwgx1myKxmQDEgGJAOSAcmAZEAyIBn4WzPwUYtcjaMeXUcVPbPl/GG3kOXOCox6Db62alpXSjk+LuDT42ION4uVCtCdx6UcLPx0kSviEUyBWgJtVUyulbB3VMDxXhHHe4Uc7QkRW8DJZiHTrRU0OeuwK8IxD685UI+7s4qx5RJOTwu5r7xWvK6Q+we3ODst4mCuhNVcJWl37bUvURqDGpVFRWawgoWHt7h/cotnhwU8OCjkeL2I++Ol9Kfz2bo/ReSKW2r9DdV0rJSytV/I45MiTvYLOdgu5N5qMetbxcwdFfL8B5qd7d4v4LP1QvbXi1gVFap7RZyKhm6npezNljIevUv8XDq/Fq3w4BafbBVysl7E8kYJ2/eKODq6xeOTEiV3eK6pikZXHSalek1EVaiId95hcLNYiTo4PC7g4FEpz57r+P3LIF8+queRmJN7BewslTCdq1TmRUjH96nIFQehwa7Ckr1Lx2w5p0+qFKF/ulXI/mYRO9vFHDVA8AAAIABJREFUbImK7OP/wB82C2+MVtAYHKhsrQS6Nhh99D3Lu9tsDydpF5mw+nzF8I0Hu96Myj2Au+2E2dPfcvrtb3jy1QmrM920mOrx6vPCK/9aI1qdB1u0n+j0U0Wg7p09YfPgjJWdQ5bWN5jZPGZ0//ds7J/x5VsycrVaC2ptGHfjDE273zFz8IL94wfKa1b27rO6t8PUeA9dfh0RswqtzoDe04KzYZmu5TPmjj5hdf8Ra3uPWdl/zsbeHhsbUww0RUjYVNjOK8iFzNW7MpgyK7TOHrNw/wXLh49Z23/Iyt4jVvaO2djfYXK4nfagHp/1/atjbxzbn1naCJErpKmIV3C6XITCMdK5ZqUit2doHJFnK6pxh2cWmVzafK0id0w0KxuZoKmtk2g8iceTzzl+V2l70/OExBX5uGK7fsp4iIsLGoePQF+IhvkQmZxJuUPAJBo7/sCYCiGr83twNgdJjoVJj4RoGA6RVZagInHT7TYiPg2Oq6LSYEDndmNLB4gNhcmMhciNBMmNiMcQjcM+st12wiE9TouI5tDwoURuejxMW5+TTL+fRH+YzEiYxvEwTVN+Mm1Wwm4VVvMbUlUZAx0anQmzEL9DCVKjEVrGgzSOBMkOB8iOeEk0WQnYVfnPCyE2XU6syQCRviDZ8fD5/onnh8gNe8kMuIgmDLjtaiWe582xVhss6NwuPN0h4pMxmsfDNI+FaBgN0dhtJ5vV4nJdztHFfLibQ2TGw2RG8+OaHc5vY27Ey//P3nt2t5Vkabo/ZUSC3hMeB95770HvvSdFiqJIUd4mlXLpTWV2V3dV35nb98tda+bPPbMiQNAopSxlZWY3syo+YEEiETgRsZ8IAm/s8+7CmEdmAIts63ev93f/32rH4ojjSi+Q2/6K1fuvOHm6wsZ0VhaEc7/XnuO833/3dX+GTfWean4VA4oBxYBiQDGgGFAMKAYUA4qBPyoDV1rItfiMGIf6mdhu5y/POrk910nQasSXGiQ5182tJzrevu3nmxddUoTcva3j5mInB/k+cl4D7pCe2k4nazfbuDvRzXRi8AO+uD8F2CRu5Q/pKcx3s3bcytOTZl592sYXJ22cHOg4nOlgKDKI13Q5w9LkNGIOGqjMd7P7QMfTF028ed3L5696+fy5jpfHzexOdFH16AleEIAvAiREz1Cpn9peO4dPdTLz84u3g3z7STvf7bewNdQrvRSF4OwKGJjZb2fvgY6NQi9DLgMOa3084vf6pB7vZA/HBy082Wyn6tfjOy2W5QjrCQ31sXijnYcnTbx61clnz5v59EjHzd02xjY6uLPdxuvVdqrxAfnFXvRNWEQsvrwmC4G93mjl7lELN5/pePFpi2z/4qCVrdFeknYj3tMv6ReF3AORlXy9lUc3W7n+WMeTEyH+tvPyuJXDhU6qQT0Ba2Ne68XnKstd7L5s5uRND1+9NXzw8dmTJo7HupgKDuDWTLKvM49a2F1v56DcQ8Zfz2YW8+1K6AmvdLG51c7XWy1MZOrZw+J3Zs2M0WckOdHNphC4X7fxzWcmvn7RxdtnTdx+3MSjB0389XYzt8a7ZTwuxtBisWM2B/Dllsnf+pHNh684ebLDxtwwxViAqMcuLTLqt1pf4M9qx2Sv4E7vMnXnS26+ecOzZ1tszhaJm0243yNO2HwZ7IVdSuufsPP8e45ffsfjl2+4d3eH6zd2GN16w/LWMc+ul5gsBd4j0Jzeeh0bwTf1lKlbX3L71Z959Nm/8fzLH3j+5Vtu31xlNWUl5xYZwVZM1gCav0J85pDxw7fsf/In7r/8hicvXnF7f42NyRi5iPMnHtBS4HbkiIzuMnLwGbvPvuf+6z/x+NUX3L9/xMHmCOPFCH6LCbv5NxST3jNvl+N1IQZ/52uF168QTYWVgRBRhbgaDIakpcLY9LwUcVeu32Rl74C1G0ds3DhCCLjCH1d451aGx2Sxst8iE1dYKghBWRRg+7VCrsnrxZRKkV6OM7obIJvRCNnFYcTfmDOrhklzYk8ECUwkyS6lqW2nGd5KMrwapTzpJpXWpNB/ya9cZJvaHNiCPvxDCVKLaarbGdludD1GZdJLOmfD67agnTIii415woRHgxRXvcRjGn63HVcpSbgWppgzEo46pCAdnQhQXPIRj2j4zMKb144rEyW6U6GwEGd4xE1+Lkp2LUNtO8XIWpTqjJtkRsNl/fAhjNjjrAEvjkJSZtRWdzKM7mUZu5Fi/EaC6pSPtLDZkZnMYox2bH4fvmqM5EKaylaGEXG9zRi1WR/5ikbQL3yIG3vh5fkW9hVWhxNnIUpkNkV5q3698Rs5xlcCjI5aCYcvHIacxsOZCBKaTJJfSTO0k2GkEY8JJ4m0Te5Ll+Lxd64Hub7sHjRvCm9qjtzMHZaffM+tRw95sJ5lIueWd6T8Ztf6Nf1Ubd/zd+Eyb7/1fqneT82vYkAxoBhQDCgGFAOKAcWAYuDvY+BKC7lmlwlDSs/wWidffGbg3mYHo3YDUY8BV2SQVLmf6nAvY5U+auU+MuU+CslBij49focRm10U2BokmhwkHTAQPPNc/duTJURQ4cvqDRmIpAbI5fspFgYo5/vJJwZJBfX4nPUv2Je+iNosmB1mfGED8cwgOdGm2C8fpVw/xfQA8YABn2Y+zTh9f18cHiO+uJ5kdoBisZ9KqZ9Kvp9KYoCoz3AmSIsxCsuBRGaQmMeEXxRYu/Cl1OwyowUNpJODZGMGmQ1mP/291WHC7jMQTujJ5gcoFPopiufkIMn4IIHooCzCU4zq8bkatz6fC7m377TwaraThVqv7GehMEAhN0A+oSfmN+ASc3h6rYtC7v5THZ+utHF9pId49nRuxbwKgT6kxyv6ZblQjM5qwhfRkygMkC/1U/3AQ8yRuH5K2DA46pl6Dp+BYHaQeHRQWmDU7Rrqc25zmnBGjMRig5TFeKUFQP13Iv5CzBVCeTQ7QGmoj7GJbkarfYyO9jKy18beXR1/PhIZue8TcoWAIgo3pXFmVimvP2bz5EcOn77g+HCHlaEopaD+zO/4fAMTvq5eNHecQLpEslgkn48RC3twngrw5689ZUdzY3XH8UbzJPJV0oUy2WKRTDpOPBEjECsSiaXIxj0EPB+6zd6KzelHC+YIJEukCjUypRq5UpVcqUAqGSXisuC2nYqrVjtWzYMzlCCQKpLIVcgUK2TzBZLJCLGAE49Dk/FvMCD7bbVjtrlx+OP4UyXijXaFMplMioTwTvU4Lsf/As8/GfsV+91FMVf4Cwt7A1GULJFMk8nlZcEz4X9bGRmlOjIhC5rlCkWSmSyxeEIKv8L79n0Ztn/rZw1PXCHgikxcIeKK/vzaObNGQmjDBUrLUSZX3cRjtktr+8PvL1jWsDnt2AMu3BEX3pgLf8yFN+LAG9BwCjH2fYUnrRpWuw2734krfN7OF3XgDdpxiXa28z3CbLNh1hw4/A48ETtOp1UWrrN5nTi8Qlg343CeviZgxxvR6p7IFhuWi0LuXJhayUQ0accdccv+ymuGbLjctvf39SKDdg2r8AAOufDFPfjibvwJF/6EU/Zb7D/Ca7q+FjSsmobmuzxGf8yJNyT8a099bi++/6V/WxFFykRRNGeo3teAvJ6bQMSO3285s1aox+g8Ho6giIdbxkJczy/mNWCT8RCHS5fW7KVrnvb9I39mi47hHbvDzMHnHDz7nPsPDthbG2Uk5SHqsf1m1/kwg7+sv+p91HwpBhQDigHFgGJAMaAYUAwoBhQDV52Bqy3kiqxIv5H8bI/0XX1w2CKzKkdjA4S8erx+Ix6vAa/TiMdpxC4EXvFvzXT+Zfkjv3Be9UBdlf5dysi93cLriU5Go/q/KRZdFHJvPtHxarGDlUzdIuKqjO19/RCF74Tg7fIaCIQNsmidEPYru+3s3mvmx30d+8M978nIPd38rB6MWoJAaY3S9des3XnJrbvHbIzHGY4OnPoAq43yfXP/R/1ZQ8wVNgvCM1c8hLjayNINhaOEIzH5CASDsiCZ+J14za99iGuJjODfIhNXFuWyWLGnI/iWKlQWw4xPWgkHRWGyP1a29IdZEtnoFzJyZwNUc4PSzuDDbdR6/di50VKzBGaesXj4Kbfu3mVvdYipUpCAXWQaq3n82HlUr1OsKAYUA4oBxYBiQDGgGFAMKAYUAw0GrraQazUjfGCjlX5mnui4/7yJHx82cTTfwWS2j2x8gHDAgNdhxGkzYbPVq4L/lhlFjYlSz/VF8xMhd7LrFwu5B4+bpZC7esWFXDFWm8Mos3L9IjM7oiccGSRT7WPxvo47T5v5aquNrdLPCdIiC86O5gziCKQJF+fJjC5TzQXIh96Xkas2p3+EtSbE3IagK6wNLj6EyNp4XPz5b/XvxrV//TwKexAX7lKc+F6FyqyfWsFEwPOPIuKKtfaOkDsTYCg/SNB3bsHy6+fxn3dNa9Ey3soKxUqFoVyMeMCFx/kRmc1K5P2bh6OKy3/edaVir2KvGFAMKAYUA4oBxYBi4J+bgSst5DbgdEf1JOd6WLnZJouHPTrWcXuvhZs77azNdDMaGSAurBTUl7/f/cvfJSH3WMfrXyPkZn9OAP3vX5hirMHkIJWVThY2O9jdauf6djs3b7by8HkTgsPj0W7GIx/jvXxqteBN4I7kCAedBN1GlTmu1uzvvmYb++gvfXZ7wySykxTmlxk+2GJCFLybHqVYHSNdHP/HeBRGSRXGyM8MUz6oMLI1xOTsEKWh0X+M8f2KOKXyI3j94V/Fp80bwRHJEQz6CLmtar9T+92v4umX7mHq9f/9n6NUDFQMFAOKAcWAYkAxoBhQDPz2DPwhhFyL8J11mkiN9LJwp4WHb9r56ns/P/6Y4PuTLu5Vu5nw6v928R31JepXf4n6ZxNy85M97H7bx6sfA/z1X7L89Yc0f/kmyI8v+ni62c5EUE/UVvcP/rgNSmToimzNc3/Pj2v32y9+dV01pz/HQDxdY/H6c9ZuvWX18DP5LP4tHwdvWPsHeKwevGT14ISVo12W7lVYurPD4u2XrBy+/ocY36+J0fKNlyTzo7/yb0Zjv7Oqg1b1+eNXsqT265/br9XvFB+KAcWAYkAxoBhQDCgG/nkY+EMIuaLwlBBzPaLgVaWPkake5he7WFnpZH6im6HwIHF7vbiVgvf3h9cTNpCe6KVa7WMiPkj0QpGwn5t/4WEcr/VTGuljPNVPxn/1b18OJPSU5nuYXeliY7WTjZUu1ha7WJroZiTbT8xpwG35R7rV/Pfn5+cYUb+7OvPv8YVkVmq2PMU/6iNXmSJTHiNbLZIZCpOuFUhXJslUJv9hx/zxsZzEF4gq8U0JsIoBxYBiQDGgGFAMKAYUA4oBxYBi4Aox8IcQcpW4c3XEHRULFQvFgGJAMaAYUAwoBhQDigHFgGJAMaAYUAwoBhQDigHFwH89A0rIvUKquloA//ULQM25mnPFgGJAMaAYUAwoBhQDigHFgGJAMaAYUAwoBhQDioE/AgNKyFVCrkqRVwwoBhQDigHFgGJAMaAYUAwoBhQDigHFgGJAMaAYUAwoBq44A0rIveIB+iOcBqg+qlMrxYBiQDGgGFAMKAYUA4oBxYBiQDGgGFAMKAYUA4oBxcDvy4AScpWQq05bFAOKAcWAYkAxoBhQDCgGFAOKAcWAYkAxoBhQDCgGFAOKgSvOgBJyr3iA1EnG73uSoeZXza9iQDGgGFAMKAYUA4oBxYBiQDGgGFAMKAYUA4oBxcAfgQEl5CohV522KAYUA4oBxYBiQDGgGFAMKAYUA4oBxYBiQDGgGFAMKAYUA1ecASXkXvEA/RFOA1Qf1amVYkAxoBhQDCgGFAOKAcWAYkAxoBhQDCgGFAOKAcWAYuD3ZUAJuUrIVactigHFgGJAMaAYUAwoBhQDigHFgGJAMaAYUAwoBhQDigHFwBVnQAm5VzxA6iTj9z3JUPOr5lcxoBhQDCgGFAOKAcWAYkAxoBhQDCgGFAOKAcWAYuCPwIAScpWQq05bFAOKAcWAYkAxoBhQDCgGFAOKAcWAYkAxoBhQDCgGFAOKgSvOgBJyr3iA/ginAaqP6tRKMaAYUAwoBhQDigHFgGJAMaAYUAwoBhQDigHFgGJAMfD7MqCEXCXkqtMWxYBiQDGgGFAMKAYUA4oBxYBiQDGgGFAMKAYUA4oBxYBi4IozoITcKx4gdZLx+55k/N7zq7mNuBODpLODDOf7iPuMOM1mbFeQO81rxJMaJJMdpJbtJ+I2YL+ifZVxs1qx2L1ovgTBdI1EOkc6ZCPgMqo/PFeQr997ran3/2PvlSp+Kn6/GwNOL/ZIiWCyQCEbJxZw47aZ0axqzn+3OVd/g9TnEMWAYkAxoBhQDCgGFAO/GwNKyFVw/W5w/bN/QTCbzbjigySXO1nfa+PlLR1zhT7CJpMUSK/S/Ii+etKDpDc62bnRxrPrrUwm+wmKvl7VNWLVsHgLuHNr1LY+YXF7j80RB9XogGL6qsZM9UuxqRhQDPwXM6AFs7gm71HbuMPh7gJztQQJp0GKuVfp77DqixLWFQOKAcWAYkAxoBhQDCgGPoaBP4aQa7NgdpjxJwYpjPcytdDF2lo7m2sdrC92sTzRw2h2gKjj8gdzs9WMxWbBFTSQrPUzOtvN2non62vtbC13sTzezViuj5jLiMti+W2yJG0WTHYTgdQghYleZhZP+7raztpMF/O1HopRPR6z+ZJA5goYSE/0MjzSy2yqn7Tv6mYVeiJ60lM9jIz0MpfuJ+H9uL7aPQYSI32MLnezsdHB9a32+mOjg20Ry7kuZmt95IJ6gnYzVhG//+IvfL/l9RriaH63g/37On540sxGtYe4ySSzcn/La/3a9xJ99RcHKNxq5/iBjq/uNrOU6yd2BUVnOVZXHC06QWbmJjM3nrF16wEb64vM5jUyfv0FbqxYbE40nxdfxU+44CbsM+EKOLBGg4RyHpIFO36PVa7Hq5gp/fOxtWKxajhifnyFENGEnZDfiKb90rVjxWrTsAe9eLIhorUgydEQ6bEw6TEf6WEX4aCGW7PhiPrwFiMkR8Tv6o/MWIDksJtwSMNj/Y320j/w2v/5mKkPJ2p+/jkZ0PxuHLkokVrkbO9IjwdJj3mJZZz4bWaclp/Zu6x2zDYPnpSf0LCfcMyG32fDFvbhSflIl52EI7af3Eli9caxl7bJLd1n6/YzdvZ22FoaZijlJ+ww4fiDf9ZQ6+mfcz2puKu4KwYUA4oBxYBi4J+XgT+GkGs3YgkYyM90s/1Yx7O3PXzzjZsfvvbww1sL3z1t5u5yBxPhQWJOw7kgKwRgl4lIqZ/5wzbuvdLxzbde/vSNh3/5XOPbJ9d4tNbGeGyAqGY8b/drBATRV5+B4kIXW090fPJZH99+7eLHr9z88KKXL263sDPSRVIz4rXVwRMiWjjXz8wTHYf3dbyZ62A2eTWzCkVfI9U+5k+auXtHxxcLHYwnBi8IZ+9fTKKdN2Zg/E4Lx98M8i8/xPnLDyn+/U8J/u27KP/6lYc/fdors1Y3y30UfXr55eqPJ6ydj1+Ko9lBSjc7OHzczI/PO9gZ6iFtMuH+NYz9Dm1FX4PlAaq327j7pIlvHjaxlusleeVEZysWixVrdBLP6FOWH33Lwy+/5cHtHbanSxTCNgIO0zmPVg2TFsCVjJPZy1DaCFJOGYlkfFiGChRXI0xvuElFNdwm02+zB/wO8fnwH2khVDvwDadIbhSoTjgppA24HOccfrjt+WvMFhsWuxNnKU50Kc/QzQKTdwrM3isyeyfF9K0AxbydsNOOr5Yivl5h/KjI3L0Sc/fLzD1IM3scplx0ELeafl6M+S+dn/Mxfsw8qNeo+VIM/H4MOFJhvAtVynslubeI/WP2fo75R3FG5r1kHCa8lg8fDJttboz2KKHZJKXjJOURO5mkhqOUJDKbZHbPT6XmwPvunSR2P5bgEJHxQybu/Jmjl1/x+vOH7M2XGA5Y8Nt/vzErntTcKgYUA4oBxYBiQDGgGFAM/NYMXHkhVwhMnoSe9Eo3G0etvHnexOOjFg6327i+0cb2Tjs3Dlu4vd/K0/V2ZnJ9uMxmNOHt6THirfUyvtXB86dNPLvbLNvtbbexu9vGvcdNPLmv457IBE314/rFWWyXgRR9dcYHCc12s33YwttPmnl42MItkXm63c6t2y08f9HMw91Wbpa6KQTqAqho988k5B69bua7x02cHOjYXOtkY71dxvHWAx0PnzTzYr+FvdFu4o6rl7n6Sxegw2vEnx8gX+5nqtZLJljPxr6KArXTbyRQ6Kdc6WO83EfSZ5CC85Xqq9WLScsSmThg9N4P3LhzzO3dGaaGc2SiPvxOK07bxYwuKyabH2figpCbNBHKeDHX8hRWIkyvu6SQK/aNKzXWjxI8fxsh16S5sPpCBGcS5HaSVObDlCcCpEaCpIa8JCsuggEbLpsVR8SHJxciLrN2oyQnM5R3EkwchykW7UrI/ai4Xf7b8Uv3FfV6NX9/RAZsPhf2dIhQOUhqJERyIkl+Jc3YcYzavJfU3xByLVYPJluE8ExdyC2N2EknNOzFpPzZ7K6X0vuEXJsDszOIK1wmUlxiaOspq8+/5/Bgg/25JNmg4ydZvH/E+VV9VvuCYkAxoBhQDCgGFAOKgX8OBq60kCusEUw2E9FaH4vPddx/1sx3x83cnO5kJNNHOjlAsthPebGL3VttfHPSzu50NwmryHg04wgaSKx3sP5Qxw/P2ni62c5waoB8eoB0pY/FwzaOnzXzdreF/aEePI5zAUhc26qZcfmM+CN6orFBEnE9ybieeMhAWIhc9rrw0xB/hCAbqPRTvNvKw6fX+POjJvanuhgS1xPFrpY6ufHqGs/vNfPlchsTp1m3F4Xcowc63i52sFzuJRQdJCauGxuU1wx5TDhtP71tWfTVZj/va0z4sp4+YkEDop0QqRv9bCxuOUarGYfHhDekJxLVE4/XxxkLG4j4DXJORLtGW9HXn8vItWoWNI8ZX9BIImog6BG3LYr25xm5t5438Wazld2hXkJBA+GonpiYn61Odp/o+PbTXk522hhyGQiZ69mVcozitkuvkUDYIOPRGOOH4iHGqTnqHAQCBuJBg2zrF9eT86pHjDPgMeKy1gufiOuYNTN2t4lQ2EA4YsAv5iZskOMJ+A14vUbCET3xiIGoz4D3QgaosIMQ43eH9MQEL4lB+UiJf4v3ctU9Zxvz2YiFeJbx0Cy4vSYC4VPmEoMkEgPy2mKcor249fRie9FOWIjY3UZ8kXocE412sUE5RsnA6Rgb15Sx8prwhEXcL/Q1picRMuJ11jNUL16r0bbe10Y8jDIekh1xPcGc1/iT9SHa2t1mvNFBRDzCfiNhwVnslLuogVjQ+PNzZE9g9C1S3j7hxrf/xuGNebaqTmJeG1bz+fpt9FNk75qtfpyxGOndNKWNEOWEkVDKi6mao7gUZWbVTSJqw9EQcjUNq8uBw63hdlvQbBasNhs2twO71y5/Zj/N4LI6bWgeOw6nFYdmwSqL5wi7AytWuw3Na8fpc0grB1fAjtun4XLbEO1/Mq8iQ99pl+/n9thweTQ0nxOn34En4Ki3FRYQ8jqNsX6EkKvZsLrsOL0abtHebv3JtU12L5ZIjMRGgsp+hGLVQTIiXm/D4a4/xDyIPts0GzanXc6PFvCgxZMkFhOMCCG39DEZuVYsmobmqs+nM+BEzo3fXr+e04rNdoHxXx2Pxh/zug2F5tZw+B24fBpOt+Xytc5EWGE1YcPm0bD7xFhtOEScZSztsr8urw2n652+nra3OkQcnTg9Gi7v6Xv4TuPYGKfdKostXeag3kebQ5MciNiLuZGPM3Z+Gj/Ju9Vaj41HO+1nva27cT2H4PPCvF4Yq4yHW5N8N+IhmfPYcIp4vM8uw2rFbLPJOIp5Ee3cQQeeoJ3GNe1223uueT5GsZ7EGM/aBTQ8Xk1eUxSiujw3l+MoGfQ7ZRw/xPXZPiDWo+2cucacijHKOJ6u88vXsyLj6HPI2LsEN2KcpzE5G6OjHo/ztoJvGzZvnW+Xy4pDxORiLL02uWdc4lzEQ/RTsmOX3Ig9oDFHMh6nsRT7x09jeTqvTjt2j+jnKTeCn1NWL619GT+tvpYDgnErdrHXXbQZEK85Xatuv1bv84XPA6K/Yj+Qe+DFfa7B3DtrWawpsWfaXfVxaZEI/qEElcMolXnfRwi5bszWCJHpJMXbScrDDlJxDa2QIDyVZPa6j1LV/jN3V9gxm714K/tkbv6VW08f8OzuDGNpHyHrH/GOjMaaUM9na/1sX1NzouZEMaAYUAwoBhQDioF/XAautpCrmTEGjRTmu3n4eS8PbrWwm+ulGhrE7zLgdplweY1SiBpa6OTws3Z2lzuY9+ilVYI7oqd6s43dRzq+utHKjZFuAm4THvEIGoiP9zK+0cGD9XY2h3rw2c8/yJs1I/aQnsJMD0s327jzUMezJ018+riZhzfa2J/tkkWVxG2AjS9wQuRMjPUw//oaD++08Ga5nYl0Pz6XCbfbTKjQT/F6JzdutPHNVhuTmX4pPgkBqpGRe/Skmdebrdy90crW3RYePNTxyf1mHl1vY320h7TLID0oLy5KIXa7IoMUZrtYudnG/SfNMgP5xaMmHmy3sTPWQz6gx205H59sL4QZt4nkcC/TOx3cvNvCk8fNnDxu5vFBG7cWOxlLDeC3nBfn+jkhV/zOHjDgH+1jar2DT45bWBvpJmETmZ3nQu7BUx2vV9tZz/fhtJtxiMxbnwlPYYCqaPe2h5M7OtaCg2Rt9dsszZpJvnd2speFvTbuPBJjbObFk3qG8/5UN+XoIJ53hApPapDYcrf0U36+0cb6bjvLh208fFSf1yc3W+S8Ft16AiIj22bB6DMSqwywc9DG/lELKzvtHB608vxYx8p8J5OT3dw8apU83pnpZCI1gNVSF5xtThOBoT6Gdzq4/6iZ1yct8vHmUTOvDltksTNfnTLjAAAgAElEQVRZQOw9oqPwgbYF9BSmu1k9rI/x5HkTnz5r4vmdZh7utDJf7COlGXFfqLYt5sboMpIY6mNuv51b93Q8F+2eN3HyoJnH+y1sjPaQdxnw285tB+w+E6GxXib22nn67LyvbwVze21MpgY+WOxMXFMclOSm6vEQvrpPHzfz4qGO+zut7E50Uw4PXvpCLdkp9TN+u016JB/MdXJ9r429ezrJ3bPjFu5ttskxhi0m6Vt9kXPxb3OghrH8lOnDE06+fMjWbIWK14pP+9AmbcVs8eKIRkhcT1JYC1GMGgkkvJjLOfILYaaXXcQj50Ku1efFlk8SK/kol6z4/VZsbhfuSpzYeIxyRSMWsWA2W3Ckg/jH48TTduJ+PQ7BkFXDrDlxxgIERhOk55OUVxNUV2JUZgPkqw4iUevpAcd5v4V4rOWihIZilEd8ZMeDBCaTZBYTDK3GqcwFKNSEV60ZjyY8pEXbnxdyRR+tIb+89TgzGaQ06iQcsOF8R7QwOX1YY3HSm3Fqu2HyKY2o0yxFXyH4y8epsGa1imvWf2ZxeTAFE8Tn44wcRz5CyBUZ0g5sXi+eUpjYVJzSSpLKSpzacpTiqJtkxopXCGunwvqviYfd3hC8xVw5MNk9eMsRKTwXZzzkSnZ8rro/8mXWrNg8bry1ONGJOJmSV2YnJ+ZT5JdFLCOUp3xkinb8oq8X9x2rFS0RxDuUJDcSpDAWIDoZJzmfpLqeoLYQpjzuIR6z1f/mXMwgl1YgLlzJEKGxONmFBjtRSlN+smWNcNiK/V0bENHO5sAe9uGtRUnMxCmtpuS8VhbC5EddxFM2PI53xVERD/tZPOLTcYqrSSprcWorEYrjblJZGz7PeTwa82TWHJjdHumXHJ9JUFhJUF1LMrSeoLIQlGOMxWy4bSYpWJ+1s2mY7G5c6SDR6QS5xZRsV12PU10Oy3lNZe14xd+GC/tco71YXybNjScdIracIj8XkLfYh4PW88OYd8Qcs03D5vHgKdSZEzGsrCWorcYoTXnJlG0E/ZYL7a2YzRqOeIDAXIbESJhMyUNqIkp6IUVZrMeFkFxPsbgm15MQnuXBkVnD7vfhG0sQG4+SLblJjYVILqTkHFWWo5QmvYgxup3iAPECo3YNWzosxc3iiJ/CWJDQpNhDEtTWElTnQxRHXMTCNjx24yXRVYzR4nDjygQJjSfILiZk/Ksr4no+siVNZtU31pV4vdHlw50NklkNk6o6iTiMlwqAmR0OTIEg/lKI8pKfZNaB13Lq7y9FXidayIe/FiU5m6C0VmenuhSlMOYmmdXwOi1n9QAah45WzYrNbsfsC+GtJCnfinyckGtxYbaECU7FyR8lTg+cbNhzScKTCWa3vZQqjgtxPN9f6/wIax47ttAMnupzlh+94N6rY9aGopRdenlQfsbZOwypn787l+r/ignFgGJAMaAYUAwoBhQD/10MXG0h12VGnxlgaL2DL9/qubfeTlUzEnIZpYgUzw5QELeCpweYWuli63Md+5tt3Ij0k3EaEUJu7aCNvcfNfL3bwk6151w8sZuxxwxEhX/ucA+jmX6cNpMUVsWXDbvIhh3pZe1WKw+FIHZyjZefNPHyeROvnjRLoXF7pIeqT4/v1JJBCFWZqW7Wvm6XIt/T0S5KQcOZX6cWNOCu9jM+0cvRdBel2OBPhNzjk2t8faSTwt3xQx1PT67x6tM2Pv+khad7rSyn+8l6zt/TYjNhF9mhoz1sHrXwQIibn1zj5YmOVyfNvBL2EfstrJZ7KXjFF5VzIc8WMOArDjB3vYO7T5t4/qw+PjFOMcZXD5u4MdXNaHCQoPM0M/YDGblizsxOE75cP8P7bdx60Mz395u5PiqE3HqGdMMj9+BxM68WO1jN9p2L4KeifXyqh/uf93DysIm9SD8Vu0FmqmohA6FqH8s32rj3tIlPnjfJeNTHeI1PjnRsDndT8emlyNVYUL7SANkjIdw289dnnTx62MzNB3WhU4isn71o5/H1VnaLPRT8emxCFA0Okpnu5unbLk5etXN0s4VPnl3j87f6ulXGTrtkQszxd7d10gbCZz7NtH1HyH31qpOXn+v5/jMz//nSwr6wjPiA76wtaMBT6WPlZitPP23mUxG/T5plHF+f6Hj7vJnjpXYW4wNEXec+glavEXt2kPGNdh6/1HFy0nTW7o1o90kzj7bb2Mz2kfOeFwITQm7gVMh99qyJV6+7+fQLAz9+ZuOvz7vZKPW9t9iZiLUW1hMZ6mN1v1VmygvRWK4Pwc7jJhmPjaEeSl7DWTzE+khN9rD6ZQuPnjbx1aGOx/d03HvczCcnTbw9aeHL5zqOl9uZCgq/6wsCx+mXamt8Ctv8j6zdecYXn66wUIsTshjPhIJG3M+fhSDjxRGJkNhOklsJkg+bCET9GItZ8vMhppacUhg5E8eCfqy1ItnJEDPTNqKieI7XS2A6R3YtxeScg2zWhsVsx1uNEV3PkSs7SQf0dXsWhxNLKERgKC5fX1pPUdtIMLSepLYapbYUJFt1EPaaZdZyo69WrwvHcIbEUp6p9TDDqxGSiwkprA1tJhneisu2haJGNGiWmaQWs+2DHrlCqDHbXbjyUSJLOapLQYYnHESF4GWzYnE4sAdcBNIe/PkI4ZEU5b0ko/tRqsNeMmk34ZSbYMpFKGHHIzL2GlnLp/EQwqjRHyc6F/soIVdkcFr8PpzZKIm5JMW1FNWNlJwbOT/LYYrTHhJxGz6RES5EzqBf+hk34hGJ2H9ZPBqCjM2FyRUkNJOldJhnYi/IyLSDiKcu4DXiIJ6FiKf5fATnc2Q28wzPB6jOh8kupSmtZxjaSjO8GaEy6yWVsOJ3XyjOKLLj83GCCyVG1uKMr4WlqJZfSTK0kWJ4K8HIRpTikINExCz9jBuHgRaXC2skTHg0Tm49ReUSOxGqSz4yJQchl6l+aNAYm92OJeCXInV6OUFxLUlN8LaeQgqkq2EprCUiVplp3xjreTwiJGYTFNeT9Xhs1JmtCWF12ksyYZOZ8jIejWt6PNgSUWLTScpbSWqbKTk+yepGnKGNCMWKi3jAhPuCB6nZ6cQSCRMaiVPaSlLZrM/LkGi/WW9XHveSDpvxuX66B0gB0u7DV0mQv12WvE6vukjFrJcOjs7GKIRSvw9HJoIUqk/HKLgT81NbjVBZ9JPK2OXfuXrhK7Fv2HHnosT2ahRXEozOBigtxKQVQGUjzdCmiGOE/JCTqE+MUfS13s4RDRJeKZDfyDIy56MyHyG3nKK8kaG2lZTslCc9JCKWS/EQ2bj2corwQoGxtSijqxEyS0kKgp3NOjtDK2GKZQex0DsMiHjEw0QmEhTW05fYGVqJUBNjzNkJSnYsyHl0BvBWYpQO05RmvRTEXSunf+vlOnC7sKSTRKcSTO/5yZcd+GShVnHHkoY1GMRTjMo+CubEnMrHepyh1TDFSQ/JSH0tX8r0FWtMCMmeMO5SnPJB7OOFXHOA4GSc3GFc9icetGHLJOTBx+ymh0JZ+xkht/5lw2gvooV2mbj7OftfvGZ/JsV0+PJnhwY/6ll9QVMMKAYUA4oBxYBiQDGgGLhqDFxtIddrwlDrlx63f3nWydFMp8wOdUb0BEd72ThuQQhQr2+18Oiuju3X16QH7p2cEC0NOEN6cjsd7Dxq5scHzdye6iJoNeI0m6U4aBHWCE4TXrcJl8N0muEmbqM2ER7vZeyolU8eN/P2uJnrc53MjnczMtHD1lErj9508HynjYNyDwmvENXMmM0mstPdbH3bLYXcR7UuioFz0VVmtYnsXI/pzO5AACEErkZG7r037fzrSQ/Pd1tZH+therqLue12HrxuleLci4UOFlLnAqjMAJ3oZeKgjdfPmvj0sIW1iW6mx3sYmeli734LTz5tRmSjXi/2SgGgcU1vqY/cXjsPnzbx7TMdR8vtLI11MzbRzdrNVpkF/ULM7VgXxVB9HDKrsvrTYmfCjsAc1pOe6ebOmxaeP2jm0Wg345EBKbKJjNWfE3JlJqzfSGKil7tf9HDySMd+tJ+q3YDFZsY/3Et1v51nj5v57I6O7ekuZsa6GZnqZuu2jidvOnl2vfVCPOqbTUPIffCyiX97a+PFTR17s51Mj3czv9HBwcsmXj5p5ocbLSzk6mK+OWggM9PDoy/6ePHsGodjXRzebOHwbSufPmjm5EYri7tt7Nxp4U8v+3mw2kbeZMRvros5Mis5oScvDhmmuinttkux8m8JuZ7SAJnrQnRu4rvH17gx38nUUA9DIz0siKzg102cHLZwMttBKXJeDM+ZHCS82sneXR3/dtLL3Y02Zmq9jAz3MLXcyd7TumD6xWor89n+s4MFYR2iBfUEk/UDkdJsF8X9Nrmmfk7IbcRj6GYbImP4iwdN3JjrYmGim1HB3L1mnn/eL9fHzWIvCc/5IUBDyBUC+Y9PdNxbbWN5vJuJmW7WD9p49qWel3ebeT7aRS18Ljo3Nk5nZoHAzn+yc/yYr++NMFkK1m/3b4hLP3kWwooHZyRMbCtOdilANmjGF/FhyGXJTYeYXHQSidStGYSgZg4IkTdHZjLM3IKDWMyFwxsgOp2luJFkYsVJpmDHYnbhG4qQ3EqRKzhJuA2yQJ816MMxnCe1mGJqO0Rp3Ec85yZcCBEdj1O8nqWyFKKaMxH2nx+sNITc2GqByZsJxldCFIQQVvASKoRILmYobqYZW3BTLFqlaGw1fzgj1+xwYw5E5C3H1ZspquNucjGTzAIUIq4hGCY4kqK6n2XkIMvEYYGZewVm7+eZvpVh6maWif0cE3txxrcDZIXQ9U4RoV8q5Fo1O5oQOWdyDG/GGF4IkC66ieQDBEtRMitJ6bdbGXaQiRplxv6vicdFv2Sz3Y3ZEyYyl6V6nGfqIMTYnJOo1yx91RuM1ffHcyE3t5tnYitEdcZHMusikg8SribIbmSobieojdhIxUxopwd60uYkHyewVGb4eprJzTDlUQ+poodgNkB8OkF+J8/wso/hYStBrwWr2YIQ5W2RAI7xArnlJBObIQrDPmI5Ef8w8akkpRsZynM+ymk9QW9d5BRZ1xafG3s1TXwhzdROlMp0QPY1nAsQrkVlX0urUYZrFhKR80Mgi/00HtMZhtci1GZ9pPIeItkAwWJYMizF1lEnmXg9Ho150uIhXGNFSisxJlZ9ZMseIikPgYyf6HiM7FaBykyAWtFCwHcuyFoDXuy1HJmFJNNbAYqjHqLisCDjI1SNkF7NUV6IMDZkJR5+z4dGmwOTI4hvKEXxXoWJoxgzmx7plSqKXJ2J4o29wGrFkYsSmMtREXMw7yNdchPJ+gnkwiTFgcJupr4+EkY8Ujy+LORWd1JMrvkpDnuJZ32n8UhR2s9TWwxQzRsJ+38q5Bav55jaDlKe8JLMegjnQ0RGEuS2slTXYwzVbCQiF/aAhpC7XGR8L83EeojSkIeE2ANyQeJzKQpbWcYWvVQqFtlXwY5gwJYI45oUBRzF4UGIXM1DLCf6KrJlRdZrjuq0l3zSeCqQWzFZ3bizERK7RQoLAYZyekK+C/3xedGGcqTmEsyv2MlmrTJTXtrYuB04aimiCxlG10JUp/wksnV2wuUo2ZU0ZZFlXbOTioj1cTmWf5+Q68Bs9hOYiJG5GZf7cMyvYU3G5cHAzLqHfMl+ls3fYPXdZ7M1huaeonLzK9Zf/8DhaoblbP8le61326j/X46fmg81H4oBxYBiQDGgGFAMKAb++xi40kKu1W/CPN4nb/v/nw+buTXRjd1ikpmZ1evt3H/UxBthdXC9ncPDVq6/bOL2div3iz0UfXo04ac61sv0fhtvTlp5dqRja6qb2VoflcwAKb8ev+M066vxpU88W0Vm6SDZ2R5WF7pYH++mnBwgLgRkkeW71sHWiyaEyPlippOczLq9KOT28vCglUc1keV5LuR+CPSLQu79l038+UETRzPdFKMD0rM2PdzLihBGn/8PvrvewnalR4rOop3dYyS70cn6Yx2vb+m4P1/P9I2F6wLd0FYHO0+beHOg49FkFzEpOtfF49hkD9NPdVJ0/Wy3jYVSH5mIXnrzFqe6WXqg495eK89nO6VwKL68vVfITQ7IuY5N9DJ3s00Kzo+2W5mNDpBwngvAHxJyRYanEKQ9xX5qWx2cfNbHi+MWVoIDZKxGKaynFrtZfKrj5LaOZ8sd0us4LsYYG6Sy2sm6sBI4bOHT+U7yp6KzmO+GkPvo5Bp/OenjaL6D0WQ/iYiehODgQIisOv7ns252hnoJW43YAoNnQu7Tezo2430sLXVKn+ant1r4RGSGz3QxtdPOF5+beLjVxrDJSOT0gEAIpHaREe424MkM4lrskiLr3xJyAyN9lI9bpLXF90c6aTEQC+gJBA0ky/0Mr3SxNNnDWqmPuO9cjPFkB0ndaOPoYRP/+aSTvcluEn6D9B+OZgcpz3UzOyvG10Mpci6Oinm3Osxornpf3YV+XKtd0kbk54RccdCRXOhi4UkTL+8382KzjYlMP8noIKG4npHNTvZeXpPxOJnuJHualS7YORNyT5r59lYLIms3F9UTjQ9Sme9m++U1yeP3a21Mps9F58baceeXidz8/9k7fsRXh0VG8r4zYbrxmsvP4lZaB5rXg7/qJ1hwE3KZcXlcmEIhQlkX6YKG13vuO2ryejGkMqQmQnX/3KQXjy9EaipJeSPG8JqHVNmDZvIRGo2Q2Y2TzjqIibibbdhjQbyLJfLLcabmHWSyGh6f8Mh04cmFia7kKSxHmRizkIxeELhOM3LjK3mmr0cYmvbITGGv344j6MY7lCK+mGF8w0d1xC4rrWtCxLM58A2nSG4UqE44KWRMOIXXbjiAayhNZjHO2IafbEE7zeS0YNbsGH1+eat5TmQZLqeobOQYP8oxdZxiXGRULkUpL8YoLQQpzgorAE1Wg78olP0SIVdkucpbv4dTiDGOLHopDzkIBGy4/Q4cIS+ByRTpzRzDMx7KeTNup4W/Ox524+Vb80XBI0f99vr4TITchIdMUZMF8uwX9/93MnKF6Dax7JHem36f6KsTVyxAaCZDbj3D2IyDQs4ibSgke6cZuYHFIsPbMcaWvCTTdgJBDYfHgbsQIzRfoLYWZGzuNENaCrkajlQE32qF4lKE8WkHyVSdHaffi7cUJbZZoLQYZnzYRPRU5BTzagv68M7kySwnmV50kyva8Xo1XMLTNeYnNJkiMxtjaEgjFTu1VzDbsDpcuIfTxJdzDM96KZU1/P56O0fQg280SXI1K+NRKZhwXciQ1dJRfHNlassRJuacCIsBt/B09Thwxf3ydvt4wU0qbsXtOv+QY4v4cU2WyC3FmVtzSTHOI7yYPXacEQ++Upho0Uc2ZcXvE+v3vK38t1XDqHlwJYNEZ+NkJv3kh+yEAj/NGBevl39foj48pQjJspdUvh4LMTcOnwf/UJLEZpHqjJdayYTXI673jpC7HpNxFnEUa1nEQ2SixjZKlJciTI2biEbO2zUycgubKaaW3FJc9AmPY78LdzJEeCFPbi3BxJSdTOrCHnAq5EaWC4xfjzE65yUR1/AHNBzeur1LdDHHyHqAkUk7IbfIJj/NAi7ECKyVqSyFGZ2wy3h4xBgDHvy1OPGdMpX5ACNVM8FT0VnYDNjjIfzLRQqLESbHzUSjDR9lq7RNEFyl52NMjVtJxs1ndxFJL99UiEA5RLriIpE6Zc7rlAURg9NZMqsZRiYcFDJ1m5aLsfz7hFzhcevCnfYSHPUTCmt4XTasfj/uhLAecRCOWGUfL+5TF68rmTAHsLmGKVz/iuVP/43bGwXWinppA/Hua9X/31l/765H9f+f7lFqTtScKAYUA4oBxYBiQDHwOzNwpYVci9+IfbqX2d0O/uNOM/tjXQgrgdxKJ+vC5uC4mU82W5kc62FqvZPrJ9e4u9PKo0oP5YBBFq0yhQxSkD36rI23X9n4y+dOmUEobBoWi/VbzUUhsHc/rEuRSwiMwkdWFgCpFzISvpRScLvdysntFr7aaJOC6+WM3L9fyL33pJlv19tYyvVJsVZczxU2kNnsZPNuM38+0nEw1n0m5IriXxO32rh5co0nCx1spPrP/DNFBrB3tI/KfhufH+t4vd4uBb76Fxkz+aW6HcXjG63cH+om4xeee/VxOmMG/JM9rMx3cW+2k0JkoG478R5rBeGj647pmTpu5c7L/8E3By0cDHdLb0RR5KxxvQ8JuUIYtPv0ZFY6WXvSxPev9bzabWXYqScsMqw0E0PbHdx4c43Ha+3sZfukINXoq6fST2a/nU+OdVLoFpYVjXg2hNynD3T8x3ET07l+7KfFwswhI8axftZvt/LXz10cTnSRt5hwngq5jz/rkYL8jKanNtxD+aiV2+vtPJzsIpHro7jQzfMvByVzkyYjsff53kYNGGa62bzd8jetFUJjPYw+aOXF/Wa+3mmVHsy2U19jMdZzFhv+qPUvWP78APnDVu7c1/Gfd5pZKvVysZ0sinNaxEa8T2Nu3n02JQcxzHdLj92fE3JFPKqbHey9vsbz7VZuVXqJuOoZ7eL9g8N9cq6EGP/1VgulWF08vijkPr6j4/V8B7XI4BlzYhyFw1aOj3X8rwOd9BN+t4/u4jLxo//N3u0HfL6fZiTr+eB43m0rvF0vjf/0/5d+ZrFgcrkxhJPEJ8KMb3lIZPwEfSFyEyHKayEKmz5iZT9uc4jYeJj8fohU2kHIJLLVnDhTUSJbJQoLIUYLg5ezbgMeHKNCGEkwv6CRTp/Ho5GRm1jISAG5WLLJIoEyS1jTMEajUnQb2QkyNOMiLLyl35eRmzHjdLnkbeGJ60UqK2EmRizSjqHh5SyKFJlE8SdR0C0oxL4A3mKS4k6S4RthikUXiZAdb8iOJ6jhEXYMjp/6pP4yIdeOzekjMJUlLW5NH7aRienPMllFISQtFycwW2BkwcfwkBWP5z3xSH1cPMTe8a5AK5kQPqSiIJRDiK+X11KDmYvWCsJOY3TUQjp+4a4NUZCqlCI8m2Vi0UOlIorIncbyzFqhwNhKkJFxDY8oqnb6x9wUDGIpZSiuRZhY95AIW3ELiwwhUOWjxG9UKQpRMafH7z3PjhQCqGOyRH4uyvyclURCXO9UxIsGCa0WyC1FGSnrZdHAxlhkAb1EiEAxRLHqlN68MqPSbMfq8hGczpDeSMkMz1TYcCketkwM31SWkXkvIyP1eDTeV2a5LlWk3cf4hPCYtZ55hdf/ftbX27vrS4v5cc+WKCzF5RoQ45D9ORVd6+v0nbX6vg9Cp0XwbA4x90a5Pzb69u6z6I8sJHb69+1in7RMBM9cSXpQj49a8PvP57VhrVCaCzBSMhLyna9XEQ/7RFHGY2HeRiIhROfzeEhrheU440Omy1m3Hif2WlZm184suigWbWd7WMNaIbKQY2rFR23IjrNRGFGs2XAYZzVNdSPE6KKbuNeKy2TFYnbjqSYQ611YNoiMbXGnUWMebPEQzpkKpfkw09MWIpFzgdwW9slx5BYjLK5opFKNDHE7UpBey5NdijBcMBENnr+nfG+5h74nzmJ9lVOE5jKMz7ml1/jZ+jiN5d8n5Nbn/yJfjTHWf1b//NL42YeezWYfNleZ/PaXLJ38lTvbZTbKJiXkvm+dqZ+draMP8aR+fr4vqrlQc6EYUAwoBhQDioH/GgautJBrDRrRZi4LuTbNSGWzk+1Pm3i40cZBrZdsfJDyTA9rL69xvNt2JuSKW1xNTiO+5CCV2W6Wdzq4fbuVe3d1PLyn4/FhC7fXOpnN9pH2GGXFZgGe/ELgN+DLDDI03cPSegfb223sXa8/jh7pePCmnR8eN10Qqn6bjNzbD3V8sdTOfLrv7MOjI2gkvt7F+nEL/37czOH4BSHXp2dKCIxf9vClsJk4buHWbr2fN3bbuPVIx8OXzfz7kzY+22yVPp71zFoTlZVOdr/q4tFuK7dLPaROs3XFHGhuE47YIJnUIEPJQQIu40+EXOHH+u/POmQRsIOjFj5508Wr59d4MN7FTHhQ3mbeWMhCxGsIuUdvWvj+eRuv7ujknO7vtXFw0CK9b589u8anN1q4PtJDXDPUve40I6O7Hdz8ulf6qH52p5nbe+fxOLiv496rZv71WRvf32ihEhs4E00aQu7ju8385ZaOyez570weI/q0nuH5bsnCfKGXuNWIPaCXGblCyH1ws5VZm4HKUC+lwzaO1tu5PyGE3P5zIfd6Gx8Sck0RA8bpno8SckWxt+RGJw+eNPHdiy7uXm9jc66LufEexkq9lOODhN314noNUUjMrzOuJ7DQzfW7LfzraxNPD1vYXuhkcbKbyWofteSAFPAd7xa7e+cLmimh/wgh14xYgyPXO9j/rIUnG+3sF84tO0R/3NU+svvt0kf6+916PBrZ3I2M3IeHLbyY6qJ8wT5BZhbfbOfoWMf/e9gsD1oa/DSe3YUV4kf/h73jh7z9hUJu4z3+1rO4Bd/ojRObCFO74SdeDBEJRciP+Sgt+0lvhojVwvjtEdLjIco7PhJJOz6TBZvZhTMdIb5boDgfpJYZIHRhXVl9HmxDOdKzCRaW67cqN0SshpArbo+fXqoLPI04Cy9To9eHPR0iLTJJhVelZpbZeI2M3NROmZHNBGPLIfLTUYqrCYZupeTt1IWIGf8lz+HTCvei4ryzntHmzIhbvmPUdoPkUhoRlxmHU/zeUn9o52JkYw5/mZDrxOryE5zNkNlOUx2yko6cC4cWmxUtG8c/lWd00c/IqE0Kue/GI1EMf1w83vHzbfRZXEeIxvUDup8e4onXXRJyVxMMD1tIRc+z4C1CDM4nCU3nmFzyUqvZcLwj5Abm84wu+RgZ0eQ4GtcXBcLMsTCxYR/5MYcUB51SyHXjKcZJHpQoTXuppAbxXxDjRNE622iB3HyU+UU7yaQQ8GyYzU7ssRCRzQL55TC1vJ7oRUsfmw3JVtBJICz6UhfxzGbHWTyyN/KMrkeoLQTITUbITgUPHIUAACAASURBVISlR3RuJUtpK8fMmp/R0bog3RiHLRbCPZqnsJpgfDNMYcJPquQlmnMRTtgJBKw4HeeZ7mft/F60Soa04HwvQnUuQLrsI14Q1gwu2UeRwSvYb/DfaHvpWRTbEl7PFw5bL/3+4v7mcqGFRUZ+iNhIiPS4GGN9nGKMxd0CE6t+JsZEcUPx4asuyJ4JubN+Oa8NOwtxHWvIdxaPxSVNxkNYnQh2Ghm5uaUYo1UDsdAFdtwObOU08Zk0s0vCJkU7G+dFIVdwVa1az7kSQq7Xi5YMkxzzk6k5CDgtOM2a9AH3DSVJ7RcpTbgpJvS4L3jdiljZJ+tC7uysjWj0XDw2+zyYixlS8zFm93zS/9srPgNoXpzpKOmdNIWFIPmI8cwrX86zpmHxeOQhUKgSIj4aIjMelvOam46SW89R3c4ys+yhXBaHJpc/1P4aIfeDcb4Y85/5d13ILZHd/kIKuXe3K2xWzfgc798Pfu31VPvLsVfzoeZDMaAYUAwoBhQDigHFwK9j4A8h5M5dbz/LyBUi0vBOBzdeN3M41clKcBCfZiIx0svSmyaOblwQchsf5K0mTJoBX3yQ/GQPC9fbOHrSxOvP9Xz1aTdP5ztYTA6cVWsWGYxCVMotdSEKc735TM/XX9n5/ms3f/rGw5++C/Iv34X5XycDfLMtMg5FBuhvI+Qe3tfxZq6D2eS5B6oQcqMr3azebuUvd5u4PXUu5Lr8BmaOW7n7JxvffRfgz98G+dPXnno/RV+/9vAvXzj4f5528mK1jaRPfyrImqitdbL/TR+PrrdxWOgl6bnwZbMxd+88C0E2Uq175D75ysB/fBfjX74N8sO3Af79uwjfPrnGdrKfkq0uODYW6EUh9/jrfn78LlTv6zcefvjGV+/nGzNf3tVxQ/jCBvWnQnBdOBzfa+PoTxa++t4v28k2YnynY/zxKzf/8byHz7dbKEfrReTEtRtC7qNjHf9+o4XxzHm2rvD1NXqNCPuBibFuMmE9XpsJW/CXCbn3rrcy/YGM3F8i5FrDBjzDfew8aObNV1a+fj3I189bOLmr4544SJjuZiQ5QMhuuiSS23xGtMIAs/ttvP7GLgsDfn3SIYvVPbzRys35Tmbz/USF3YP2TkbVhfj+EiFXxOPW5x08We9gN9N36Qu+s9xHclcIuc38uK+jFjvP5m4IufdvtfJs7HIxQHdmkMSNTink/n/HTSyVzg8zGhwJITd2+3//rkKuRRTFsocJjYcpHoZIDMeIxSIUh1wU5zwk1iNERuJEvTFZVX5o3SNvY25kxrnSURL7BQrzfmqpAemH3ei/xevBWs2SmkmwuOoil9XOshEbQm5iPsX0vINC4TxrTmQTGu0ObD4XvpQDf8SGS9wxcCEjN71XZfSwwOxxjqmjPNO3U8zeiVAdcRHX6gUHz/pxIe7iZ6J6vSUeJ7MRo7YTJBuxErK+x2/0nXa/VMi1iWJj82ly2ykqVSvJkL5e0Ey8rxBY0zE8k8J2IcDoWF04NFudf188PiTkvjOG983JRSE3s5JgqGYieclbVsOaS8rs4gkh5A7ZpeAmRfmGtcJ8/iyz+KK1gLC1MLvduGNOAgkNt1NkcmtYzB68pTjp2+W6kJsYxOe+sCcHfViHC2TnoiytOEgmxC3k9WxMRyxMfCtPfiXMUFZP5KMsfZzY3AHC81kKxxUmjgvM3M4yLew1DuuP6aMC0zczzK77GRq2S4uExsGD2efDlk6SWk4zfCvL+PUUo+sxqothCuM+skUnoZAN4VN8qdCVy4UpFiM6lWb4KMfoXooxcYCwHKE0FSBbcRGNabJ42KXiah8Rt5/Gsn5gYQ0HcFdTZFZyDN3IM37rfIxTxwWm7xSY2/IxPv5+Ibc445cZ0oFTv295nffGQ3gdnwu52cUYw2UDsQtFTy1uB9Zimth0mtkVNyLzvjGnDSFXxGRi4f+y917NdWRrmt5PGRKOIDywfW7vvbfw3ntHgPAESNB7b4osFuucOq5P92kzPa47TkvRGoWkUMSMokctKUIzISkUutCF/sGjWLlhNkiQRbKKVaxT6yIDJLBX5sr1Pbly55vfej8bhXxJprdYLWA2o3facEUseEIm1SdbsCMKOro6IiTWMuR7bWRCR4VcY9CLsTtHdjjA8IiF4J79gDgPvdWOJhAhNBimbytINm8lYDaiOHzYsmEyZwPkhl1ELDqcxn0ejRgtFkyRAJ6uGNn5NJ3CT3sjWWRHzD/bWQbW44zN2NVs789PyM0fCrmLUsh989r5bg8Xcn9y/CQDkgHJgGRAMiAZkAx8OgZ+gkKurpgNeP8k68LH1duM26Qj3FHP2N2TbCwfI+SKB0CjDrNdh8uvJRhvItNez9DqKdYvl/F4o4JzvbXqUmVFiCNmHdnxGuaun+TqhXKur1awPH2K2YlqpieqOXOugnN3T/Dy8snPRsg996SWB7snubZcydzUKbWfoq9Tk9XMjJ1mtreGvlQjLut+Zu13F3Iv3Tqh+vleWKlg8WwV1x/Wc+9WJRe7a9WMXLPpENxSIXfz7gm+uHySaysVav+mx04zOXKaYVG8LN2oeqp6LPsP/4dC7sYXTdy9fJJbImN35ug5To1XM9tfw3CuAa9Dc5Dh9C4hV2RyCTHX5tTi92nUDCazokPYcYhiZ++bkft9CbkGa7H4WKK9nv6p0ywsV7GxWcH2TjlXL5dx91YFV+ZOsZSvJ+4q8V426zC4tISzTfSM1TK9cIrV9QrOnavg0sUy7tw4yfW1SjY762grKZL2+sT6UxFyRUbumXMXeSiKdCWdB5nrr5/Px//fgs7oxdMVILkRJtIbIZoMkitYyPTa8E+ECXRHCYXCFHo9dI9bCQSNKHtLnD+JkCsEF5MJkQlqdhjVDFlVHCsRcqMLOTpFpfsRL4nuMKmJGB3n4rSKavR+3TuzzT5nIVd4HH9UPD5TIddgVDAoCmabCYvdhKIYMe2JcT+GkCuE9fRKko5xH4U+F7F2D5E29+FWcBJPW9UsTnNJwSpRuM7odOCIewm0+Yn2BkgNhUiPxsiLbPC5MPkuO4mIHru9JNNRZHLabEXv3oKPaHeAxGCI9EiE3GSUttkwhQE36bj+SJG0j7qejWb0igNnW5jIdILcWEDdd6LDQ7SteJ6xkRip+Sy9U97PXshV5wCRRW83YhZZy0Ik1wvfWNfHC7kmKzqbD293hMJWnFy3g4TfhC0WxNURpWveS77bqr4wF6s6RLay6jvuduPtjxObitI26iPXVxxTMa7RLj+J8SS5uYSakSsKs31eQq5btVZILT5h4tZvkBm5h9/VPuo6+6iXLPKYcqwlA5IByYBkQDIgGZAMfCwDP0kht2vpFCuqkFvDuKdJzaJ8XcgteIrei06vFpdXo4oYIoNtf6BMNi3ugToGtip5ebWMmzOniFlFcRwdRqeWwY0qLjzTcHOlgo2uWgqRJkKBZgKBZjIjtQzulvPgfNkxQm4d889r2V2v4FJbDdnSJa4WPWaXFo9HR8yrwbm39FGInP5UI4NXyvmYjFxxDpv3yrg+W8VSay2xUJPaT9HXYLBJ3SL+FgLO/WXMxexhUSRs+Vktl85UsvlaRq4ogmVy6nC7NARdGrV6vBi70ozcC7vlPJupZLy9jnihgZmLFezePsmDhUrOFOrVB7/9pbGlQu7a9TLuLVSx1Fmr9tPvbcHn1GBTdAeZSftxEpnOIgu7a6mK1UenuLpYyXpHDelw48E5+kVcQk1qAbOguwVLiefxO4XcYx4+hLCr8f5IQq5YrmsUthZanMEmkm11dA+fZmLuFBsXy7n2TK8K4E+mTtFRYh+xP1aiYJzV00I010DHQA0j09Usb1Vy+WEtj25W8vVSJZMZ4Z97/JLlDxFy1Xg8rOTKTCVLqfojGbm2QgPxs8WMXGF18X1m5Noy4wTX/pYz5y7xaD2tFjvbZ2x/HL77TyGMOHF3BIitxYgOx0kUghSyJtKiONdwBF9vnFguSkefh94hBZ8oPKUuc7dhSwSILGfVjNzWeBPe160V2pJEhbXCpEWtAn+QjbdX7OzYjNxjWC2ep1havlfsbC5DqygSJmwXAi487WHiKxkK4z46CnoCnrcvV/++hNx01kLYqMO6541dGgthASCsFYRvZnI+RqHNQNGTde8GbjJS9GRNqdYKB0v590TOD43H/riW9mH/36pn6lvH9Ki1gsjI7WjXEw2UvjwpWiuIgk5qRu5brBX2vX5LM3L3+3D0p2DOgSMbIrZZzMgVBTZLM3LVpfydGdLDIcYmLCXWCjaswQDB+aK1QnvqtYxcYUFgUVBsFmx204GgJqwVTHYRjzjJxZhaQC8ZNeBwK1idxc0iCnS5zNgdRrXwnLCjONJvoxGT2YzituOIufDlxRL7MMmJBK3rWbonPXS1GfB5Xmsn5jpFwWS3YQs58GS9BDoCxEdi5JfTdM4Wi2sdFGZ7S6xEHN8ZS5Fdb/XhG4qSWYvT2u8inTDh8ZqwOU1YHSYcuSC+8Tzt4563Crm5ITetqeYjnsVGrwtTZzFDej8er1sriIzczoL2qGexsFbIxQkOxhmcKFor7LP6bRm5R8b+YEz25qv2KPHVvYzc16wVREauqSdHdiTI0LBZFeX3jykKnumMdpytIWJrWfL9LnJpo1oEztsXp3fMTi5vUleBFOda4a/twBwMEplLkFsM09ZuJRZRimMq2PFZcXbGiIwJ6xHhIf3tQm5+1EVMZP0a9rN+32Tm+PP/8M/pRbEzaxvppSdM3v6Gc/NZZvJa6ZF7wNSHj+n3FRu5Hzn2kgHJgGRAMiAZkAxIBr6dgZ+gkCv8OavUwlfr/TWHGbld9YzfExm5xWJnOU8zNm8zreM19I/W0BdqUoXaAyiEiNreQGHpFM9uVHFHWCTYNDgsWgwBDZM7lVx7qmV78DRjnmb8Ni1Ws04tqhLqraN7t4K7R4TcosiZ7K9n5mmVKuRe7Tq6dFzxaXB01zM4fFotTNYeLi45Fw9UHyvkWlwaejdOsXHnBNenq1hI1+O2adQiPmaLHlEMzelrISw2lxbLXkaVEFZzEzUsPK7k8nIlO62veeT6W3C0NzDQU8eZrlri3qJdQamQu7NTwdOxavrjTdh9GuJTNUzvlvP8eiWXp6rJWjS4jyt2drWcO5OnmM00YLGIMdWr/Tqy/PbggUIIuTrVTkN4sl6dr2I1V0fI1VI8R3Mxo9buayHi06hesKXF635KQq7qzWzSYVR0KBatmins8ujwBjQk+upp267k2oUyfrlRxkCiqegfLMR1YzF7WYyTyCa3OrQ43Vo8fg3RQiOFs9Vsni/nLy5WqOK55S2Ziu8v5BaLzy3fP6HGYy131CPX2VZPZq0KUezs+eK+9Ujx+viu1gqW5Ajupb9kcfsyz8530pv1orzlfA6u9QOWvn1CLLYRPpdWHAXhdZsiPpEk0xukkDaRyJix9UQRAkeqL07ngIvebgM+n3hJJNoVPXJDi3nVI7cj1YzPdShMmNwOLB1pYsMRRsYVEolD+4R3Wiu89RxKhNzZDK19drJJPTabCXPEi2MoS2YyzMCkg1jUhP0tPsnfWcgdCtO5HeDbhVxRXCtJYjZBW4eRRHD/5VLRWkFJhXAP7lkS7BfX2vOB/fB4vCXeRjFmokDTftb/m58rtVZITkXpFB65oUNbEiGMmrJRfIMJ1SNXeJkeZBx+i7XC8VwKMc6GPRMmsiqKnbkoJJopXcqvFqXqyaoeuWNjoriW6HeRVUvQT2AmXSx2lm05WpTKrGAMenAmPMTTZgKBvaX8arEzN57BBIm5GIV2E/GQVi0CJwplmhQTJpuC4hBCrgmbrVj8s7T/uv1iV4rIElcw281YnBYcqQDukTz58QD9QyZCfmEDcfgiVbQTdiEm4VVsMaHYFLWdPeLF2ZciORZhZMJCMlHs67Eva1SPXNO746g40LtCBMci5NdCZMWLBrteLSAmztGoGLGmg3hG87SPvT0jNz/koT2jweM6ZMDod6N0Fz2LR8dMRWF9z1t33yM3PRGmu01L2H/YzuCwohTihIZivK3Y2dusFUrH/vDfxZcAzrYo0eUcuT4buWgLDtvhMZWwD8tAq1rsbHDQeKTYWZEhBWs6QGC2ldYhMQ5WwiNJQiNxOnstpOPF7F/1mMKr1+JGiYaIL0bIz3hJh4z47cJX14g6rnYFW1uM8Fjy3UKu3Yc9V4zNDyvkhlBsA7SuPWXmwSs2ppNMpFpwSI/coy9q3nrfeXPOPORR/k2OhWRAMiAZkAxIBiQDkoFPzcBPQsgdWqo+4pHbvlDN0t0TbI9WMx9rxGPTkOitVUXJnbUKtdiZEHKdwWa6V6tY2KpkS2QoJprwOnS4HDocgRYCw7UMbFXw/GoZN2YqSVm12MxaDL4WJoRo9lTL7vgppsONRJxaHE4NDn+LKoDO3DjJk0ul1gpFoSrcVc/gnZPs7pTzcLaKwVSD6pEp2gYLDbSvVrG+WsmL+Sr6443qw+13EnKdWgpnqlm8XsbdlQq2emuJezS4HFrsLg3hXCOF3joGCw10hpsOHlSEIBsfqmPk9kmunCvn1kQ1XbFi9qDoa6itkfaVU6wtVHF9pPrAd/aIkLtdzuPRarrDTRhENmiukY75U9y5V8fNjQpmY42kHMUsNtFuv9iZ8B2+O1bNVLLhwALhnaCbdGSmapi9Vc6t9QouDpwmG2xSRQ5hixBMN5Ltq2WgtYE+cQ4lD7A/pJAb1hUfnI2KHsWiU0VqS6wF03Ati9vl/OGuibW+GhJmDW6LeDGgVwvs7QvYQgz3ZxvIZRtpTTQS8rTgsumw2bUE2hvJnqtShdzfbJUzkGzErCt6mFpdWtzpJlLZBrrSDcT9RW9Nm02DJ9FE8kw1axcq+MtLp1juqlUFYMGcEIBNog8WfVFQF4XgxmvY3C3ntzfqWGyvJ2rW4rToDvsqltaadKSFaH+jjNsbFVwarlHj4XXqsLu1pEdrGb1Szu3Ncu6OnyK9V9BMMPBdhVxTZADL+NfM7Nzg8c0pRjvCqpersER5J0Mf9EBaLFhkzwbwz2VIzSYojPgppIxEoxaUthjegQT56Tjdg066WnV43ftCrhlz2I9nMouoAi9E3mjYiFX4oNrMWCMePMMp0mNhBvqNxFQxrnij+16E3F4rmbgGmxAkXE6MqRix0Sg9ywEyBQtBp3hp8uZYfayQqxYis4fwD0Zo24mQ67ARExyIIlfCMkAIgiLTVh1/M0arA2d3nOhUko4BK5m0AafTiMVmxuy04WyPEp5M0znkoC1nwGETQvfHxuO1LxBGBb1iwRpw4kw68cct+MQS8mOKuB0Rcmfj9AxZSKeN2Gx7ffXsncdEkt5hG/nMdxVyi4KsNRnAN18gO+JTxWPhZaoWnBPsJLx4xnNkRwMM9OgJBcT5iXZmFL8X92ia5ESE3j6FeMy0x5yCxSusBSKEe4O0dZqJhg1FUVWvqPFw9cSJTCdpH7CTThlwiGX71mIGrzXsxJ3yEIyY8Xn0KAfsGNUCauawG3fIitdvxCYsP4TAbVGwxPw4hguqkDs4Yj7iyWq0WVBCbpwhG4GggsNpwmwptjUHnNh6UiRHo4xOHWasHxFyRRxNCmaPHWfagzdpIxAx4jimQJqwVdA7goRGIxTWw+TarEQ9RmzierQqmJxWdWxCMzk6J91vzcjNT/rp6jYSChqxCnHbZsYW9+EZy5IbCzLUbyQUOpwDDoTc6Sj9AwqJuAmb1aRybgm4cfcliI9H6RNcJQ85/biM3CI7ws82MJclP+yirVW8XBL2CyZMdgv2dADvdIH8iI/eTgNe79E5QMzNSsSHfShPfiRI/6Sb9Hyc+ESE1oKJqF936HOs+nW7MEdCxBai5Ob8ZBMKIZcRRXjr2iyY/U48vQkS00kG3pWRa/XgSIfJrEbIT3hIew14RRz35g5VFDYev4Lku8z3eksWJXCGnp3HrDx6yPJQlP5gM44Dvg9j8l2OI9vKcZQMSAYkA5IByYBkQDIgGfgUDHz2Qq55oJ5SIVeISPnZGhbunFSX2W901BHwN1MYq+HcCz3Xz5UXhVx3C45gC51rVazdPMnz3ZPsTlbTEWsilWgi0drA6LlKLtw+wde7J7g4VI3XosUkrBVsOgbXK7nwXMf97XIuDtfQkWwklWki01fHzHYFV54084tr1SXWCkUh151vJLVdyaXr/4JfXjvF2nA1XckmkulGeqZPs/agglu7J3kyVkXvXkEz8RD1sRm5Yhl+aKyW0YsVPL1Zxb3VCkayDRSSjUQyjYyuVrF16wQ3FytZa6vFv1cFXRzT01VHYaeSmzfLeHWxjKXeWjpTjcQzDfQvnGLrSR13zpVzZ7CaVn+x+Jpot1/sbGdPyO2JNKuVw/V2DbHOejVb+sa1E9wfrWIwdtju44VcPf6BOnp3K7gnBPStMqbb6lWxM5xsZPBMNRv3TnD9bAXnu2qO+Mf+kEJuSAi5Rh0WIfp7W/D6NHizjXgna1i5UMaf31PYGj1N3ttMRPzd1YLTsmfnodcT7Kqjd6ecSzsV3F2qZKy1npSw9Ag3UxipYerWSe5dPMkvRNG22OFLAE+qicJGFes7FTzfKmOxr5ZstJlIuJFUVx3DF8q5fKWMv9guU8VZIeKqm0mHEIFFX32+FnyFRtyzpzl/uYzf3GzkbF8tOW8x09nj1ODaL7Jm0uPvL/b1wY0ynm6VM91eT1u6iVi+gYnNSi49bebOWgW7HbUH8RDsfFchV+/tRNN2l6Gdu9x9scviQJpWiwbn60u+P0i4Pf7mYk77cU/lyZ2J0zXjJx83EvBb0afj+IbSdK8k6Rl2Hqlmr9cbMAU8WAeypKZiDM05ybRZ8QUsOEMePK0hEmcyFKYCdBd0hNRM3uLxv18hV3jqCu9LD56eKNm1lGq7kE1ocZb6le6N08cKuQZxDLMPb3+U7Plk0Y83Xly6bnGaEJsq0onsV+GtabZgzscIjKXonvPTMeggGDbjDjqxRwNExhJkl5N09NlIR7XYLIex+Zh4lN4098fD1xcns5Kge8FLe58Fv12vvtw48lm9guJy4R1JkVpK0TfvpbXHTjig4Am6cSZCRCdTRTb6LKRiukOR86MycoUYZ8AU9mEbzpOZijAw7SSVs+IN2LCH3HiFZcFqltZxL50ZLT5P8cWRaGdwO7H0pIhNJhhe8FLotOP3m3EGnTjSAVU4z8+E6e4yEguXtLNYsBTi+MePxsMZsGMLeQj2x9QXGW09VjKx/XiIvioI0dkzliY35qe930ooruD0WrB6rLgKQUKzeTomfQwMmPD7xf2xuCkiO3goQ3IsTM+ojXjGjNNrxua14kh68Y+myE2HGRlViMeL99UjsTEpaM0uXPkIydUMHWcC9ExYiQUV7Hsvtw4+b7SjN3vxDcbJbMRpG3OSzZvxBCw4Qm7s6ZCaeZpbSdM/+/ZiZ61novRNOcnkLPgDNvVa9nZGSa1kaZ/y09OuI3CQlW9mX8jNnkkysOAm32EjFDDjCrpwZUPE59IU5iP09JiI78VD9PnjhVwFJR7EOZKjMB1Ss2BjKQueoB172Iu/N0pmM0/biJvWpBaP46iQq46Xz4uxkCYzFmdwOUz7ZpzcTIBczEjQLoTc/WvRiM7owOz3ExbWCstROvqtJNMW7G4zjrAHZyFMbDpF61KMwanji50Jr2id4sKaDJFYTVGYC9CaMREJiuzs4txR9JDWq9/LDmL6PcztWm8/Sut1Jq/e4+LDC8y1h2mzarB+gvvI99lvua99BuVPyYJkQDIgGZAMSAYkAz9vBj5rIdcg/GX76lSh7ne7J1jtrcFs0hPpr2dAZMxeLFOF1tX5KlbOVXDhUR3XVvesFdwtqh9tuL+OobOn1GJRV8+Xs7VcwcZKFRsblVy6clLNcLw4Vs1YskH1aBWerGJpe3qojqmLFWq7OxfK2F6tZG25itWlKtYulHPu9r/g5eUTR4RccTFZghrcPXVMr1Vy68YJLm+Xq21FFq6wIhCi6YX5KhZT9STdLWoW4ccKueJ4Yim9PdOoZglvXyzn+uWTqq3D1kolq6uVXLhYxpUL5WwM1DAYblSzK0U7cUxLtIXAYB2Lm5XcuHaSS5sVbK8UM4YvXCjj1q0ydqZPMZ1oIFySWXuskCserkx6XIkmOjaq2LxSxqvdMjUDNGTSIvyJP1rINeqwJZqJj9awulPBjatlXNyoQJzj2koV5y+Uc+3KSTZHqhmPNeDf8x4W5/lDC7lmi5Z4dx39C9UsnjnF6lYlK9fKuP+gid9/EeDx5RPsLFWycaaShdHTDEWbSNhFcTY9znQjqZlq1rbLuXuljIubFWyerVK529op48rtMq6dreR8dy3pPasLIcjaQi2ERmqY3qjg4Y1yruyUs3lW8FrJ5mYZl26c5OpWBdeHTqsvD/aFXKtLQ6q/jsGFUywJD+LtSlZunOTRIy2/feLkwW6Z2tf1pSrmBmvoDzYRtWlUsdqWaCI+UsvadgU3rpQVmVutZH29kou7J7l9tYz1odMMBpsO/HO/FyHXFkMXmKX1zA3Wnr5g/ewks60+Em6LytiRzL3v+MBvjgdwiuXhS3F65zxkwia8Tgu6aBTfUIrecyJz1E4+2oJ77wWJYM7gsGOMhwn0RNTCTfnRAJmBAKn+EJmRiCq0ZHqcxAM6XLZDQeX7FnJVocRkxZoJEpjKUJj00tlnJuAzqIJF6Vh9tJArxBijTfUZDc+lyE2GaB/xke73ker1kex1E0lZ8Fm1WE06tciX8OsUGaKZ8Qitk0EyA35SYnwGo2p74embTJnxu0rEUYOBj47HPgfCL9XmxT+QILeZpu+sj64BK0GH8d1C7kKK7kkvrUMe4t1+kv3FwlyF2QiFSR+ZjImAW6sWnlLj/1FCbvGLiNHlxJSKEumP0DoTUpfCC3bSg2Eyo2EKsyEynQ6iXq1anFE9njg/mxVjLIi3O0phNkx+LESm075OcAAAIABJREFUX4xriNRwRBVGhc9rKm5EZM4ftBM+tSEfYlm+sAEoTAXJ7cUjMRAkMxFSs2rTOTNBr161sxFthSirBL3YO+KkRsO0TwfJDvtJ9ftJ9vnVvubn4xT6nWSTOpyOYhtVrBb2IoUokaGI6oUrro+0aNcfUP1/czMxCsNeWvN6lVUxbxz0VxzbJARAN+62KKlzebpXg/RPW4mFTW8KuQYzelORz+BEnNxUiLZxcTzBpp9En5/EWJzUXIaed2XkzkZV3+ZMv49Eb5DEYITsRJTWMxFyfU6SIe3etVzMkN4XclPzSXomXBQGfcR7AyQHImRGo6qIWxj1kk4Y8ZXaNVjM6ouOD7NWKI6twePGko0SHyrOMdlhMe8ESQ6EyY6FKcwFSbdaCbuFIF/CwN71oXc40YeixEbj9Gwm6NkM0z7pIe434BG2PfvXkfrTjMnpxNUdITYRo20qQGHUX7zm+3wIdhKTKbKzwgf4eI9cNZvcaMEc8OAfjZOajtI+5iM/5Fdjk+z1EG9zqAyIl4j7K1dKWfjgf5scGCwRXO0rZM++ZPXyLhd3hulLuBHfU5QDsfrn/WDwweN6hA05dnL8JAOSAcmAZEAyIBmQDHxqBj5rIVfv1qLtaqD/TDW/u3KKzYEaVayxp5tIzJzm0sMaXn0V4rdPPTy718zO9ZNcnK3iYr6OnFuDKFwl9hHoaGBqu5LL90/z4oWHr1/4+eaZi5fXq7g6d4qBcBNhRXPwJV48MNiiLar1wOrVk9x/auTVCx9fP1TUwmgiE3VyvYqHW+U8na8kFyoKsiJYekWHzqYhNVjHzOUKrj9q5EtxzOceXt1p4vFGJbPtdQSNWuwl/rHeZBODl8rZ2Cnn7lA1g9Hmg4dXxaPFP1HH5GYlvzx3kvXemoPsGLE8XicKhMSb6F6qYuvOCZ68cKr9Fef45ZWTXJ2upifUhMegPfIwpjPrMHk0ZMZqmL9Sxu3HGl4+d/PL515e3qzlwWolE9kGAiXFi8RDtbCIGL5RxvZWBQ9HTtMdPuyryavB3lfHxLlyfvHUwcXpU/RYNPiN2qKQu1XFyqUKbo2eYjLxntYKBoN6jtZgM+1z1azePMGDLyzFc/zCq8bx1kIVQ/FGfAYt5pIHf1e2icRGpSqKfr1cQXf8sK/HXVyCGa1XS3ygjksPaji/UsmAqYXWtnqy61WsT53ifE8NIhM4PVzL1UcNbC9W0afTEtJpsbpa1AJ6Oy9NvHgV4jdfJ4/dfv11ile3GrjeU8Owv1m1WNA5tCixJgaWq9i9f4rHLxx8/VWYb16G+eaRhVfXq9VroMPZgtd8KG7orFp0vhZaJ2rYunuSe89M6nUh2v3yqVM9zuWZKgZ8TUT2HuBFHN3hZkYvlbP70szXX8eP7afo/69fJfjqagWXW+vo9RZZF8yJeLTNVrN6o0y9Rl4+d6nXlWDu+vQpeiONuEr8a8Ux4711TD46wc5qJcJDOrO3PxELe6KZ8PJp1rcq+PPNMsayDQfXwH6s9Ho7Ol2Y4OAFem7/LeevX+baWi89CTd+s0Edx6OCw8ffREwRP9berFrMp3/eTTJgxGWxovWH8PXH6dlNFJej+5sPCheq/TQqaBU79mRAzXQUxZv6tjIMbqToXwzSOWgjLpZav1Z0zuiwYm6PEx6OMTBiVZe575/3238WPXKd7TEis2kKInNStVYoOe+AF3NHitxsmJ45F4mwAbfwYi6xoxBCrjEUJj4TonXBQyJoVC0r3mcsRVyVgBt7R4L0XJrec1kGdrIMX0gzfCFG96iLjLsFj/qCxYhesWLyeXD3xkjOpejayDCwmWJoLUbPhJtcq4LXqT+wDtk/94+Ox77IYLKit3rx9sfUDOWexffLyI3PpGjtdVMYDZFeytG5kWZwM0HfnIdClwW/y4jVWCJ0qUJuCM9Qmo4RJ+1tRuz2knjs9+eYn0Kk1CrFomfCYqL17D474nh+OvssRCJF4flIbNTsRhuWqA/vSIL0YprezeK49q9E6BoX2b1mteinWdij7B9b+MwqVhS/B5GpnJpPqe36t1IMbsTomXKT61DUYmWiXekxdRYrRq/I9oyROZOmezPD4PkMg9spBlfC6vgIAdgn/OVNh/OVXjGjczpxF0Lq8drXMwyczzK0k2ZwPUb/go9Cp42AU4u9ZJ477LMZncmlZn0m17N0LgXpm7CpGbm2kvnm8PNGtZ+2XJS4sPRYTzNwLsXAapjeGSfpsQjBwQwdI2+3VhAienuvm9xMnPxKlr6tNP0rYXomnSTSCg6jjqK9y2tC7lSC9m4nufEQmaUsXZtpdVz7Ztzk2i14RTZ4yXW4n5EbGE7SOyIKF75ZJOzgvPZjuPdTZ7KgtzlxtUaITKdoX03TtynimKBvxk97d9HiYt+S5/X96E129LYgweEErTtpBtb9dA/ZCTgMb7zoUNuazRhDAVydcbKLGbrFdbGdpH8pQNeUm/hogsRQgv5R+1vPQ8wd6ryXjhAaTdGxkaN/J8fwhQwju0n6zwpvciNhu1ad21/v8wf93yisRCIYPMNk5+6x8OQvuXR+gZ0xP3GvuWg38tqYftD+ZdvDeUWOhRwLyYBkQDIgGZAMSAYkA5+Ugc9byLVr0aaa6Zo9zRf3mtiZqiZn1uD3aHAmm+gYqmFi8jSzI6cZHayhvb+WnmwjPf5mNStTiJx6ix6bv4VYoZH2nnqGhmoZHa5VPz/YUU9HopmQXYu9xIdNtFPE8vhwM5n2enoH6xgZrmFE+LC215PPNxLNNtKba6A/1YinJBtPPaaiwx1uUe0buvrqGRmqY2yojqGeOnqzTcR9LaqIW/pQLIqWhdsayeYbVWE07CgpkGTVYYs1E8s1MpyrJxtoPvJALTJhxXL+YLqJXFc9A0O1jIjzHKxhsK2B9nizujTS+vpDrkks5dThibaQbGugu7/usK9d9fRkmoh6NG8ITjZvC+GOBgq5RoStglh2uf/AY7QaMIVaiOUbGRmooTXeRNCkV/eh2DUEco1kWhvojDYRdR6e4377t/406RE2Er5EM5nOBvoGatWYjA3VIuLYmWxWfYxfP0eLV4Mz20RrroGhdKMqDrz1GEKIF8K4VYjOzSovhXQDIaMer78FT6aRbLyJVuGlJ3xpIy109tWTTzUS0uvVmJrNOkK5RlpFDEZrmBw7fhsfrWG4u56OYBNha1FUEyKy0akllGqitacYx9GRGsaHaxgVmekd9eRCzfiFiFqyBFS0E332RpvIdTeovO63GxuoY6irjvZEEyGrFvuBoKJXi6JFhReyuB5Ga9/ZV8F9m6+ZgCgGKCZlEQ+b7iAe6jUyVMf4YK3KXIeIu0OjiuqlnAvf6nhvPYVsI21iTEuyp80uHeIlTS7fyHiuQS1c92asRGEfO7ZoH8GBC4xs3Gb1yk1W11eZHuqgPWJSr+c3272fkHakncOGWAbuTTkIJSy4hT+qScFgs2MLOwkUnPhDCm6b7qCIoNpeLcKkoLjt2KNuvGkPwbyHUM5FKGlX27iEn2TJnKO2E8WlfC7sYQfBiAm3+336LIpGKaonpSPhxhc043aKTNaStiJb0+fGnbATTFhx2Y1YXju28I412B24EjZ8SRtOuwGrQX90nnnHzdhoE2KgE3fSQzDnIdzqIVxwE2l1EohYcavM7ol5qqBixRp04Uy6CeTE2LgJZ10EYxY8ImPYfIwv5sfGY7/fqreqOK4TT8ZNIGVVPVqPO1apR25iKq56yyazFtwpL/6sm3DOSTBpwxswqfYPRzL5RAEwtx1LxK2eu98v/HMPi9odYWy/b/s/S/xfHTHBjpugGBtxvESxvw57cWxKrytROEyIwMLzVfjaeoSv7f64ZhwEombcHqPK6ZF24rj78QiJ+InjFVkVxwzELXj8wuP5GBYUIYxZsQWduNN7ccy7ieTdhDMOtb/imKL4ZOlLA73JhF5YOnjtKi9iPEP54hbOOtVrxOdXVBHXXDLPHYybUcFgEO0duLIe/CkbwZhJZVac2xvnJ87RakHxOHHFPWr8xLVY7KMZT9Sh2g8ITgMBAxbVzqMoyNpTQULLbWSGfKpXbChrw6Nez3vnGDPjcptUEbd43KNCbnI8QkerkUROtPMSyLkJZcXYWHD7jFiFF+x+7IW1gsmE0SP641J9ib1eURCu5Fou+ezBeOz/bs8DWoyLI+7Bl3EXr6u9OPoDJvWFwlvHyFjMXhbH9hVEP20EwiIOx4+piKPBbsUi/HBTHvU6DuddhNJ2lRtXxIUz7CQUsfDO8xDzntuBPeLGL9jLewkXPEQKYl82vG6j6l1bytAb574/Bm/7afNhig4R7d9kePU+SxeucW53nZnhPJ1RG27r0Th88P7fdlz5+4PvhnJM3/M6lsxIZiQDkgHJgGRAMiAZeA8GPm8h16xH49WQHa1RPWkvrlQyF2wk42zBZtVhcWgRxa6cVi0OmxaLS4so8CSW4R37APgeAyK/bMovm5KBz58BvcmD0dFKdPQSQ5desX33CefPnWGuYFZ9fWUMP/8Yfs4xOiLkTkZob9UT9X/Aiyd5r/mJfwF7TcgdEN6yLWqBzXdz+5qQOxaiM6ch6JPsvHvcPu18ZXQnUDp2aDv7hN3H37C7u8rWVJI2IeK/lmn+Y/ZTHvvTciDHV46vZEAyIBmQDEgGJAN/Kgx81kKuwVRcUh/uqGfyxkl2L5fx6GwFZ3pqaBMZnYEWfG6tWjDKphT9FEUmmhBxv1P2hnwI/4k/hMsJ6k9lgnr7eVgwKG7sgSyB/DC54SW6+gfpSZqI7XlPv72t5EOOzbsZOFbIDUgx7ufDzVEhNzvopi318UJuyKuR99Qf83uVI4g5O0mse5qRoT66CwmSITseu6JmRJdmRf98GH/3HCjHQY6PZEAyIBmQDEgGJAOSgc+Xgc9byFWLquhxRVtIzVezdL6CJ9fLubRSwfL4aSaHauhpbVD9F33C7/XHfFCQx5YPqpKBH4EBIyazG0uwgDuSUgvzeO1ScJM33e92031DyG3TEZVC7o9wfX+3OH78dfD9CbkdeQ1SyP2x4rh3XKsTJZzHHY6T8Frx2IzSE1d+X/kZzWc/8vUnWZOsSQYkA5IByYBk4Htn4LMXcsWDmEnYKAQ15AfrmD9fxqVbJ7j/oInHj3TcPV/GSqaeNnvLQbGyj394k1925NhJBn5aDBQ9Yo1mO4rFimWv4NlP6xwkc59bvKSQ+3NnUgq5n9s1+V36YzQpqPcIsw2rYsBk/LnzLc//u/Ak20p+JAOSAcmAZEAyIBn4sRn4SQi5agEqkw5PrJnsYC2jc9WcXa9ga6uSszPVjESaSFm10k5Bvun43t90/NgXqDy+vElIBn4MBoyYbDbs2QD+Vg/RqB6v87Coo4zJjxGTH/KYQshVsARcuLujagGviF+DvaQ449sZMKI47ThbQ/jzLmJhLe6SgqBvb/dDnp88loyDZEAyIBmQDEgGJAOSAcmAZOCnysBPQsjdH1xRvVkx67GICuhWHTabDptFr1bilp648iLc50T+lCxIBiQD35kBoxGjyYRJMSHuPUaZxffze1FmMqjxN4oszg9hwGjca2f8sHbyZezPjzEZcxlzyYBkQDIgGZAMSAYkA5KBD2TgJyXkfucH8w8cHHk8KQZJBiQDkgHJgGRAMiAZkAxIBiQDkgHJgGRAMiAZkAxIBiQDnwMDUsiV4q58+yEZkAxIBiQDkgHJgGRAMiAZkAxIBiQDkgHJgGRAMiAZkAx85gxIIfczD9DnoPbLPsi3TpIByYBkQDIgGZAMSAYkA5IByYBkQDIgGZAMSAYkA5KBH5cBKeRKIfe937aYTEbMZhNWq/GDNotFkVWiJWfvzZm8Kfy4NwU5/nL8JQOSAcmAZEAyIBmQDEgGJAOSAcmAZEAy8HkyIIVcKbC9t8BmtZgIh8wkYtYP2uJRKw6H6b2PIyeLz3OykHGRcZEMSAYkA5IByYBkQDIgGZAMSAYkA5IByYBkQDLw4zEghVwp5L63wGqzmUglrBTy9g/a8hk7brfy3seRE8KPNyHIsZdjLxmQDEgGJAOSAcmAZEAyIBmQDEgGJAOSAcmAZODzZEAKuVLIfW+BVQq5n+dFLCdXGRfJgGRAMiAZkAxIBiQDkgHJgGRAMiAZkAxIBiQDf/oMSCFXCrlSyJUMvDcD8qbwp39TkDGWMZYMSAYkA5IByYBkQDIgGZAMSAYkA5IBycDnyYAUcqWI994inszI/TwvYjm5yrhIBiQDkgHJgGRAMiAZkAxIBiQDkgHJgGRAMiAZ+NNnQAq5UsiVQq5k4L0ZkDeFP/2bgoyxjLFkQDIgGZAMSAYkA5IByYBkQDIgGZAMSAY+TwakkCtFvPcW8WRG7ud5EcvJVcZFMiAZkAxIBn66DBgxGi2YLA4sDjd2pxuHw47dqmAyyrj+dOMqYydjJxmQDEgGJAOSAcmAZOBTMCCFXCnkSiFXMvDeDHyKSUjuU97cJAOSAcnAz5UBI3q9FbM3i7vtDK1T20yvXWJpfoSZ/jhBtwWTvEfLe7RkQDIgGZAMSAYkA5IByYBk4IABKeR+pjAoih6HTU/QriNq1eE0GdSHmR/zgUZm5P5cH7Q/8XkbFYwmO2aHH6c/hsvjwmPXYVH0BxOVFHk+cQw+03lQxl3GXTLwaRkwmu2YXGEcHh9+rxOnTcFi1GM0/kDzr9GOTgnjyk6RX3nM9KUXXLz9jGs7i2xMpon5bBj1P1Bf5Dwo77mSAcmAZEAyIBmQDEgGJAM/AQakkPsZBkmv1+N16ykkdaynm9mNN9Fu0+LS63/UzBQp5H7aB+qfrWChONA7M3iyk7TPXKRvsJuhZANhl1beRD7D+elny6mMhbwe/wQZMPvS2LrWaR2eZ368g46EF79Fh9X0w9zv9OYgGs8U8dFLnH32ko3dC6xPDDHWmSQXc6nCspxzfphYyHGW4ywZkAxIBiQDkgHJgGTgp8GAFHKPeTATWa9ep46kX0ebU0PKosX2LdkpZrNBFV9zQS3jUQ3jkZbiFtUw4G8hbdbhe08hVq83EA7qGGrX8LC7kVeFesYcGoI63Y8s5CqkEm46ejL0TY0yOjfO3OLE3jbO7MIIs7O9TE0WGB0I09tmp6tgJ5+x43YrUgQ4hjUxUdpcFgJpH70dPpYHXOp2dsDF2X4rkzmFVqsBv+HTZSTpzAo6t4tk0sZij0JXwEhAr8f6qbOgjAp6WwBrqINozxk6Zy8wu3mNqbEeRhJNR4RcvVGPXtFhc2sIJptIFRro6Kyjq7Oe7vZ6OjKNpMIavFbdkWvVqOjxxJpJtDXS2VVHX09x6+2uo6ezns5CA/l48VhO0w+YhfYWFn5qN069WY/OrSWcaKarrZ64R4PzHfPcW+PRVUd3RzGOmUgzPptO5e9Tr0Aw2nTYws1E4030JJqIuH+clwcmhw97rJdgPE0+bMbnMGNS7DgibQQy3eRSQaJ+q+oXavHEcaaHiUbDJHwGHJbSLxtGDAYziiuCM9ZJtNBPoXuQ1u4B2ru7ae/OkYx48ej1WGxBDP42ovle9e9tPUO09Qy+sbX39NPe00k+GyfiMOMy/hgvFM0oVh+ueCehdIFkyIrfWXreb/u3GYPRgSOcJ9Q2TKZriPaD8eijtbObXC5JOubD57BgNfwY57bfdxFzL45oG8FsB4mQnaDz089JJm8aW+c52mcvsLKxyczkAP1tURJeGy7l0x9fZ4vTHN0gv3iH6988ZHN9ivGEn7TPjsuuoPxAgvJPbe6V/d2/buRPyYJkQDIgGZAMSAYkAz8/BqSQe4ygohiNdKW1bPY1cjfdwDlvEwFF904h0uMy0F7QcWWgmX+YqTvY/jhzmj/rq2Pb1Uy7XoP5PcQxIeTGwzomezS8HKzn9111zDqbiep0mI/p7w914dqsVpKJCL2TZ5i58+fsvPhrnnzzV+r2+Jd/4NGr3/Dgi6fcvr3FzkoP0902+lttUsj9lpiFcgEGt7v51ZNO/suvF9TtP/9qnv/9m1n+/SU7t3wa+o2fTmDSuh005VOsrkb4n59383xQYVCrVcXcT8mWsFMwBIYJ9F9i5vpLtm/f48L6PNM9KdLuFlyWEvHapEdn0xJqbWBorYrtGyd5+EjHs4c6nt9t5NFuOVvjp+n0NxO0FK9VkdlucWppXTjN0v1/wcOnJr76wqVur57aeflI4YvrldxcrmQi3UjCqv3BstA+5bj+kPvWeTQ05RqZWKni6e1aFtrqSGm12I9h/m3xePXMycsnFr58oOXRbhm7U6foCTXhN3z6+c4abCY0VcPs2Sq+XqlgKt/4znn+U42tNdpNaPFrRpd2uDbpoiPmRLHHiU3dZvjCSy6vDTLf68dmNeJuWyS5+VfMzE5wtttI1CPE2/0vL2b0eifO3AzxM8+Zv/kbrn35B+5+9Zc8/OorHny5y/psN+06He7gMErfPWau/pLbr/7AvVd/4MHXx2yvfseDV0+4cukM03EnGbPmB36hKDxUXdj8XaSXnjG6dYOt8QD9yf1zftdPJ3pTnNjEVUbu/UsuPv8r9Rzvv/oL7r/4DXeefsnly+usL3bQFffgM2jf6x59ON7vOvaH/U2vd6M4CiTn7zN84SGrYxGGUi3YPrXFjD2IITxEYuQS45e+YefWLa5dPsNEa4iU/dNn5modKZqyF2k7e4v7L8+zMtVJ3mTAazQivot96pc5nyKWcp8fxr4cLzlekgHJgGRAMiAZkAxIBj6MASnkHjwAHw6ceHjoz2m5ONzEF9l6rvgaCX2LkGu364lFtUxlW7jT2cjdniYe9Tfy19M1/NVwHZfczfTq3+8hUQi5HpeebFTHbLKF5UgTBasW9zsy3X4I8IWQm0jE6JtZY/bxv2H32a958ugq129f4/y165y/dpvdm/fZvf+YS1c32F3OMjPkpzVrw+uSGblvi5E77CI3mmLnbJw/uxjht9fS/O2jHP/0m1n+h9tuHga0jBg1JWLNIatv2+eH/F5k4za2ZdnejvN//+oMvx43MaHVEnqPlw4fcpwjnzU6MTnSBPt36Fp7oC6nXTs7zVBXhmzEg9siRNVDIdfi1uDvqmdgsZpLV09y5WIZl7fLuLBZwc5mBefPlbO9XMXWcA398SY1m1P4KlpdWjpXTrH6sFIVGp9dPcmu+OxWBdvnyrh8+QTXL5VzabqKuXwDAesPLVJ9v7E8MsbHzG3f9991Pi1NbY3MbVfyi0dmVjvryOl0OI5hRwi5x8XjoojFVgU72+Vcu3KCm7vlbPSfZiDUhNN8yMD33XexP1tYQ3ShmuVzFfxhu5yF9rpPdp29q//WeB/+5d8xuX6Vp2dD9KXDmB1tZBafMHPrV9y+MsPZsSROmwN/7wZtN/7ImTNTrHW2EPMcvmTUG31ozR1ER88zfOcXrF29x4ULV1g7d5nlzU2W1icY7EoR14vs9jzG9AKd09vMb11mcfMKq9e+ZPvF33Pr+W949vAGu1eusbR5gTNbK0xO9tLhtxFWfuiVIULIdWMP9JHb+BXTl55weTbIcOZ9rh0XBlOa5Ox9Jp78O67ce8TN65dY3b7M4tYNFrfvsn7lFttXL7E4UqAvquCxvs9+v//PqEKus4PsygsmbnzF9kyM8UwL9k98DRgUOwZ7FHdyiNTAJiNbd1i+fof1+X4mW70EbaZP+gJZ60jSmNmlsHyDB692ODvRps4h4vvOu64Z+bfvn0E5pnJMJQOSAcmAZEAyIBmQDPw0GPhJCLkiI0MU3nh9U4wG9jfxt+MyN4zGw7av/10s1xZ/F/soLexxnJAbMWvVz+wfT/ws3Z/JZMBs1uK26Qjb9YQ9OvJRHfdGGvj1SC0X3kPI3e9r6TH2/116rLddXG9r/7axedt+3vb714XcnZvXuLMeZXEyQW9flr7BfkYWt1i4/WdcfPSEF/cn2VzI0JEWQq7p+3koE0XfTEYUxaguuRTLLk0iFt+yLN4oMntMRvWzoo3YzOrvjl86qn5e7Ffd92E79dgiU0gp/u6445YeS7RX+7rX3/1jinjux1QxK1idZoJeC8mwhUQ2wth0mr/5KsM/3HFwP6B5LyG39Lj756iOzzFjU2S/eB5GnwtNZ5YLO0Uh97eTClN6HdG9cVL3ZXxzQhP7MLwzHm+22WdLZMmZ/RN0bT/nzP0v2F1sYzJvxa4Y3ihsozPocMWb6Niu4NztE/zyZh1X5k4xnK2nkGwkWWikc+a0Ksa9vFrG5kgNPr0OS4lwuHLrBHeXKlnvPk083Eww3Ewo1UD/2SrW757g5fVTPFioJOduwfbaC5P960pc44pS3MS/i/PR289RtBOfK276kn8f/k58Zn9MxE/1Wn3LvosxK+6ndL462v5wH6Kvgs8P7evhOR623WdVHGt/3hT71ftb0HQ0ML9TwS8eWVjrrqVg0OIy6vaOfXh9lQrrr8cjHG8m0VrP7Plyrjys5+lGOed7agg63sxEL41H8fwO+/n6eL4+Nq/Hwx5pJrpw6lghV5zn/uePm0NLx+G4v5ce+9v+bY5045r9JeNrV/hyM81QLofZ0U/bmYcs3n3FzZtnWJruwGUNEu3fpufu37G4MMZyvoFoiZe03pxC616kY/Ue27/5is3VSeYKQTKRID5fAK/PjcNhwazTYTDZMFi82N0B3IEwHn+YeO8yXVf/HasXb3F/Jc1QRxyvP4jX78PtdmJXhKh3KBwbDEbEvGM0KRiNJkyKUtxMJnW+fXs8jm+n7sNkUvd5yNz7CLlGDGo/xHFNJZmch0Lu2N0/cG51lLMDPhLREN5oF/7cIn3rz1l//rdc3p7m3KCdqPf1l477fRX9Kp7jfj/Fd4W3n+PRa/vbGHhTyI0zmdOqWdj7xz16bsft/7v01YJ4EeAZvET77u+4dG2D3aVWMl4b9k9oOaFzJGhKnad1+SZ3f3mRs5MdFLRa1f7j28ZM/v04BuTvJBeSAcmAZEAyIBmQDEgG/tRjDud4AAAgAElEQVQZ+EkIuV6nnq60hom4huVAC/PJFubzzZxvbeJyrolziSbGPBpCRv2RJb12q55CXMN4UsOit4UO66EoIMQKj09PW1TLZrSZaU8L9j1RZV/I3R1p4ovWBh6nGjibbWEl38yV1kZ2U02shptpt2nULFlhdyAe5sRDv0Ux4FD02OwGwiEdN4ca+Gak7luFXKtVjz+oZTit4Xp7E7f2t3wj2/EmWm3at3pPCkHBZtOTDmkZS2nYzDdxsdDE1UIT28lm5gItpK3FLLnDh+MPv7hfF3K3r1/k1lkX8yM+OjoCdHbG6R4ZpW/9KSs3HvLsxTrnVzoYTFsJflchV1GwuBxk233MTAW5uRLm6XqAlxsBHk7buNhtpNevx2vQH8ke0psU9BYbiayPiYkwl5ZEuxBfrgd4POvgWq+B0Yget7Ct0OtRP+9wE0v7OD/v4PKij+XxKDfmfHyxZOdsr5uxDj9XF/w8mHdxu0vPaEiLUYgbehNWm422vhDzs2HO9zu4MORkczHMzdUQX20EeDLr4HKviV6vXvW9FfFQxWGzUX1gdznMOCNhOkdS/OFlgj++h5CrN5nQKVYiSQ/DY2EuLEV4thVWx+aLMy5uDpqYSRjwm4q+o+LzWr8Hf1uYi0sRvrqU4NWdAv/4VTv/7+93+E+P0vzduRC/3w7zq00/v1m0stthJGoutlcnRUXB6rJT6PAzPx3izlqY55shXm34eTRl50Knni6v4a3M6nz9WNsvMn3xNudvnGO2K0qr16hWSz8y6ZoMaB1aQp31rNw6ycXdci4MVDOcaiDs0eB1aXB5NfjjTXSP1rBzq4yV2VMM2FoIKtqDDNCzN05ye76K5dY6fM4W7A4tdreWQG89HWtVPLhZweONcvq9zfj3vahFRrBVRzDbSMdILdMLpzgrhN+lKpYmTjPdWU8m0PSGyKFX9OisOvzpRjonTjM1f4rVpSqWp08zM1pL52AtIwN1bPTV0hZp3hNy9VhcGpIDdfSM1DKeaSDnPczCNlr02NNNpHrrWOivZSjdgLU0U8+kR3FqibQ20DVWw9yZqoO+nhk9zURrPUlPyxu+s8J3WPQ1lG+ge7KGmcVTrJ6tZGOlirWFU4i2vWKsFZ06P4pz0/o1+NsamVk4xdp2BRtXy3jwWMevvgzxxbVyrq9WcH69knNLVWxPVzOQbcCh16GUCOuvx8Ph1ODyt1CYPs38lTKebJVxY/T0EZ9kg3ghYSvGo12NRzXLy1WsnalicayaifZ6Mr7mN4T4/XgE0010TdQwvVDNWRGPydPMzlQzsF7F9rnyg4xcMZ/qrFqckRZ6p2oYG6tRs4Pj1kMBU+xTH9Dga21gevoUE911JC3F+8ERft8zK9oY7MAy/oLR1au8utDOcGs3VucEPYs3OXvnERdvrzI3M0jImiY9dI6BJ3/N/Owgc/EGwvbDfumsGTS+FbrWb7L7qwecneplxGcj6LCrc5PVZsYsXkKp/TKhN1kxWWyYbXYsNieB9llaL/0dy+evcW8xRG/GjdXmUNtaLObii629c9IrLgy2BL78CNmxFQYXzjG5vMnM8iqTk8MMd8dIBR1q7EvvO3qTA60lhjc9THZ8nf6FbaZWzjO7ssXs4iITE7105SOELDocqjf9twm5RoyKE0t8mHDPGYYnBxnoTBCxmrAbnAcZuaN3/oKtpR4Wu8yEPHZsjgA2b4r42GV6r/4NuztLXJ4OkQjYDl6u6E12tOYgntQgqeFV+uY2mVreYnZphYmJYQY7o6SC9jeY+xgGjgi5t37DuTOjnJ3up3tmg8GFLWbOrjE52c9AZ4SYx/rmvGNyYLBF8GVHyI6sMjC/xZSIx9Iy42P9DLaHiPvs6guu0ngc9lWI4Q4s8VnCo/dZvnmD7YuzDCWcxC2fbqWCzh6nKb5Fbuk6N351hbPTnXRqtWpNgcO+ffj3FdlWjplkQDIgGZAMSAYkA5IBycCfKgOfvZArbAYSQR0rI83c72vkd4UGXvQ28HikgT8fr+dvx2r5q/56bqcaGbC0EBHii8ga04uCZXrmelu4OdDAq0QjZ9yHDyOK2UA0qWehs4W/6azncaIRz54X3b6Qe3G0iS87G/hFez0PBxp5NVrPv5qo418O1fNnXfWsB5rIm7Q4jylEpbUacAX0XB1qfC8h1+HQk0zr2Oxt5l9P1vP3M3X8cbaW/36qln/dU8usS0NoX2AqEQfUrDGLgZBPx1xbM3cHGvn9aC1/M17Pvxqr58/7anmWr2fW20zSpFWLuXwszG8IudfOc+OMhZkBO4W8nda8k0JPO/nZm8xfuc+zr3fZXe9hLGUl/J2EXCOK04k/HWRlLcnXD7L8Ny/b+I9f9fHPXw3yH+5H+OO2jSttBrqEBcUeA+I8TXYbStDH9GyC53fz/MPzrNruP33Zy398GOff71q532uiy6zFbxIFtcxo/FG6RxL8m+cJ/qsXWb650sY/Pk7yv3zZx++2wzxaTvB3zzL8j08z/NOWgXsd2j2hyozD5WbhXJ4vv2jnj7s+/ng5wO8fZ/mvX7byz6+G+adHaf7xvI1redFXzZ5QcTjBqiKrL0SqP82fvYzy9+8h5BqtVhS/j6GxOI9uZ/m3z7P8T18PqWPzT09y/HdXHLwYNTHk1BIyazEoCs3xMInJHH/xKM8//3qW/+23Z/i/fr/F//eXV/l/frvO//nNHP/lmzn+88sR/o97Kf5ixkibVYdLJ66vYjyC6SBrq0m+eZDjv/2qk396Ncj/+nKQ/3A3yB83LewWDKoliCiO9Dpz+uQ8rsnnbFzb5dr5YboibryGN5dsC8FME2ohOVrDrXu1XFmpYMDRgpohb9Fhd2nwelvwulrIdtcxffdkUdzzN5KzaQ6E3OUbJ7k1Xc1ipv5gqbLYtyHVQnC6hpu3ynl6oYwxfyOx/evMrsUabqZ75jRr105y+34dTx/pefHIoHrrPtgoZ6atVvXWtZcwJ8RGY6iZ1qlTbN09yZ2HTTx/qOPZjSpuXTrJ2Utl3LhQxl9ulx0s5Re2A65QEwMXytm4epLbY9VMxg/9WhW7Dt9wHUNbVbzcKePyyGlctkMBz+DQ4ko00b9Yxeb1E9x52Kj29flDPc+ulXFruZKxbAPR1ws32rVqX3vmqtlR+9rIs0cGnj9WeHFfo/Z5Z7yaPnczIasevUVPS6KF+FQN1+6e4osv7Hz5wsMvvorwu69T/OpFgF8+dfLVMwdf39fz66vVbAyexqs7miH9ejzU7FaLHv9AHf3nKnm8VcHtiVNHi4+JeESb6Zk9zfq1MjUeT/5/9t7zuZE0z/PTf3JNVySLDgABEB4gARAAQZAACBCg9957TxCg994UWSwWy3S57uppN9OzM9O9M+tu9252T7e3u9q4Oyl0J91Jp1CEIhR6ozcfRSZtFat6u7r7RtfdeJEBkMhEPs/z++WTyE9+8/vbl3NvT87RShzb43F0BlNwaeWvHFdCPNR5Mso7ky/7eCzEYzWejfk4RufjWLkWD6Etws0DAdKObseyth7DQkUqdVbJVR7rlKiDGRQPJLK/dZut0XhqjDIcyqubha/n/Nf9rbSXoqg/oHFkiccr9bRUtJKd009z3xyTG8tMbIfo6OvCoyunrCVC+8lzertr6XBIRUirMeaSk+sgp6Ce7MAyzbPbLD/bZrSzgUa7Dbc9D6vNJipyc4wG8abVqzBPgKUasv3t+GZ/w0B4ke3eHCoKdVd9vnbeEfqiNHnRFnRS0rtK79ojpu88Z+XuM9aPHrGyscx8pJ3WigIK9UquHx9ZBidKezve9iX6t54yffCC9Xsv2Tx5wcbhMavrM4x111JtU5Mn2hx8PcgVYKs6x0tu0ypV4fssrU4Q6i2lOFuLJct0BXK3XzI1UEpfiQyrUUmWSkOWWk92xTjeqU+IREZZ7fPgyTNe9llpyCfL1oivbYGO5YeEd5+xevSMjcOHYh/nQq20Vhbi0r7Wx9fG6utif/HZdZDbIaiHQyEi4WkG1h8T3n/B+vEz1jYXmJlspsGXS75O8eqNL2Mh2vxWgj1rdK8+ZnpfaOtTsa3Lq3PMjtfTWOLEqVW+UhDyYv9nryrk+gqMnhAtq4eMb84zVGahwiwTn1x6dd2r89Z3+b/c6EZWGCY4tMbasyWGOqMg97uMZ3Tb7ycvo+P40xhH+O+ILtExiOZANAeiOfDjzYEf8/n8BwVyj5vS+XVNCkdBCWGPlHGflPlyKQ+a03lQmc6eI4MG45mK7fsAuUttGbxoSOPDijSWi6RMFkkZKZayVZPBs5Y0jvzpTFmkIjh4PUneFeQKYDnHrCSQJ6enUEZ/UMZ4tZSfNaZ9LcgVHi22OZQ0FMs4rkvjYVUaK74MwkUyUUW8USPhpD6dfW8GY2Yptn/C6/f1flz/++tArgBxS0ryKG9sonbqHuObd7h3PMb0SCl1RYbvpMgVHt3NDebTOBTgo40C/mzDxtNhC7u9ucz3O3m47OZXR24+G9RzEJDgO38cW8gBszuXop4gR4se/novn49CVu705rIykM/xXCFf3Svi81A2J8UZ1Fkzr0Buq5dfPgzwu30Hj9psfDBfyOenAb5czuOLSSvbM14errr5x103zzvVlCjkWBWaS5D7+LScf7Xn4i/mcjjuNbPR62B5xM1H217+9KiQX/RpWC0S4NirP5bfFeQKfTQ5LXjbi1mf9vI3u06xj7vdVlb7HOxPFfDZgYfPZiw8q8qgw5FJllqF3GzE7LbQU29lbtDJ3EyAz458/JcXk/zVio33OyzsdFpZasthuV5Dj0cp5o5OmYVKrcZe4qRpqJgPV/L57aqN00Erm702loR4LBXyyzuFfNSvZcsvpch0DTieAw5dyRj5w8+Ynp1gebQMn8P0BriUhVKvJNMnxdeZLKo9F3uSKNDJyTbLMXil1HYlMToZT6QnidDILQa3YhgbucWsJ42SHNnbQa5QCV1QzdamURu5xcFGIocT8VTnSkXoKNgAGLwSXF23mYgksLMQw2T/Lfrak2nvSmJsKp7l7VvMCSpffxqF54+3iz6wThn21tv0T8dxsiNldTKekfZEujuS6B29RXj7PfY3bvHp9PcEclUKTMUS/D23mZmNY2M2lrHuRHo7kmnrTmIiEsfq+ntiEbE+bzqOawpOg0uGtfU2I5E4EU5PD96iV1DwtiXRP3qL6fUYFsfiWalJpswuRYDf8pwzaFxdn0JLbxLNk/Ei1H1yL5edcDyTLUn0tCbT0XibDsFqIV8iqgCvWyu8DnKztHLUlkwCPbcZXIthdzyO+drb2LPPwKgwrkI8CrqSCc3Esb/8HtMDCQx0JtHZc9bH9d0U5vsSGfSkU3B9u3wZzo4UBmbiONlKZ3lCiEcyXe1JYpGzqa1/xsF6wivxUKjP7Dxa5uOZEQrrdSXS5U27BHxqg5zcxlTqp+I5XoxhuSOJAr0cg/Jmrl+fQ9/2XmEJIKnYpHZogQfbbbTX92G3j9LZM05oNUT/9gyNvcMEdU3UtU/T/fgePR1VNFl1mB3VWComaA2tMbxyj4n15yyfvOTgw5ds7d9jaXGb6cUdQgsLhOZ6aavz4xGKnb3iQfouIPdsXYO/i/y++/RObzAzH6Z/YIiWziHqOiN0TK0zvnvCWH8j3b4snDlXBdk0jjJMDXs0Te6wubXI6NgwLa091LUN0zS4QN/KfcZCk0Qacilz6cUbRwLkfJtHrtIURFc0RM3UASNr20z1ltFebCZXl4U268paoeV1kKsxk2UsIr91kYaNT4mEephptlCQqz3fpwadq4Hstru0h3dYWl9ieGSM9o5B6rtn6QhtEto5ZHy4gx5/Fm7zq3P522L9tv9fB7ld+5+xtL7IXGiQzvZOmjomqetfY3D5kOntbSY6gzR7NJj1wriexUPvacfeeZfe2R3mVxYZGBiktXOY+u55usNbhA+OGOuro92rwpl9FY9X26NCoXJjzOumavYBA+vbhBqs1DmlolXKq+t+t/4K3yWcv7Jy/GSVLFExtsHug2mG2krxKRTi0xzf9/6i3/fdYxYdw+gY/phyIApvfrzwJhrbaGyjORDNASEHfkznrNf78oMCuSdNaXxZncJKgYS6HDl+s5LqQjmzDRmc1Kbxc38KAxaZGLDvC+S+bEjlSUkqg7kyKnLkFFjl9JTI2G1L52l5GseuDAKGmyqsdwW5gjWDSpOFUZtFrk6BzaHAG5BzUvd2kCv0UatV4ivKZLRaws9q03hQnE67JZMSoa0WBZ1BGSt1Ek6L01jNk5Cv/XagQUic10HuzPYOOzMVjA9V0tZZS2tXK12jYQbXHzKzvc7+agtj3R7Kffrv4JEreP7pKG7zMrVewZ9v5fKXU1qmg2rqC/QUeSwMDrk52Q/yq5CRn9VLKbfKRZsDQWFWUJFPx3oNn265+LdLBnbrNDQWaAl4LXT3FnJ6v4zfrNr4m44MBl3yK5Db5uWXj0r49aqFA4+WzYECtg4r+WrRwm9HdfR1ugmHPPzt/Wo+HdbSoZBTcA3kvn+/lL/ddfHVmI6QT0Ojx0RxsZ2ZmWJe3gvw1zM6sa2e7Ffj8W4g9+wC3lnsoH2xiidrbv79go47DRrq8rUE3Nk0NjnZ2C7l8/V8/mFQwpzv/PjQaNAYNORZtbiKzOQ1+9lacvO/PR3i0wEj41YV1TYNnlw1HksWDoPgJa1EpRQeY9ZT0u4jslHO71as/HZEzVixhiqXniKvlaFRD/ePS/ndjJFfNqdTJcTjNYWaqWIK78RLZiNDLPa5cdkEYHPzAklpUKAok1DSm8SD2VjmWpIwaRSY3Bk4224zOh/L3kYi26F45qfiGF5/TwS6y4EUKqxXIHd06z12J2OZaUuiIphOIJBBsCyVFsEqYSWWg5lYltqS8eVkio9JC9DRUZ1G9UI8K3Nx3BEUrcE0PIK/bqGEis5kBvfeY30qnt3mJErzLuYdJeaidAKRBMJLMbxYvMV4420RZhZ6pASbUxjZiGF3M/EVcPhdFLkqtQJnYyqNCwkixN3qv0VdUQbufCl2t5Sq/kTGtt9jayKO1brbeCxXlg3ZfgmFk4nML8TwfCGW/spU3DYZdocMT3k69UOJDHUnMVt7m2CeVPTHFSCnxqDAYs3EUpSOqSFVVLU+OjQQaUqi1iqh0CbFZpVhN8vJ1stF3+PrIPf1eATL0iitTWEgEsfCxnssdN5CgM7Wc9WxMD626lSq5uNZXYzhOBRHV1kafpcEp1uKoCieOLzNRjierYZkgrareFh8GZTNJjC9ctbH8foUAk4JF/EYEvyTN18F6+J8Z5dSPJLI8GIcp1PxjFWlnFtTKNFly/H1JtG3FMPhWDzhqhSxQN+rKteb+fymHBf+pzD7yShepnJwnuPDPtrbR8l3TdHX1Utovpe2zUVq+2eoMnXT1h1h+NkO3a1l1BgNZDsaya2Zo3vhkKnd95k7+JjNR59y+OGn7N57ysbOPRa377GwtcXi+ih9zSX4bniQvjvINfrbye85oGNghOFuwQ7Bg8vlxeqqwt+5SPvBr5kKDzHXZMLvuPJIN7gbyR3+iN6FA07WuulpCOCy2bE6inAEWwn0r9LcO8R4g52SrwO5fq1oBaD39OBs22NgeZOZpRG6y2wUm+VohZs110Bu6+6nzEQGCHUFKC8LUlTSiLdqmKaJTUZ37jHWV0t3QItDhJxalEoT2SVDuOd+zcjiJlszLbRW+3G7PNgKG/C3L9C59ylTs1OstpkoyxcA8DeP+evrXge53fufsLo+RXigmipvPoWFpeQWdVI1cZeh3ecsTTQyWmPCZhLGVWhrNpaqMP65XxBaXGIt1ERjmZdCl59cdxPB3nV67n5BRIhHg4ki2+s+wBftFvLAjt7aQDD0kO7VI6bb7bR4ZOfjebHet30VFN45mGwecovKcfnK8FZ14+s7oDO8yuZqO101heLTR/pXbjR82/1Ft3s9z6J/R3MimgNXORAFPVHQE82BaA5Ec+DHnQM/5nPeDwrkHtZk8IlPsAnIJFutwKBRYrcoqCzNZLUygz8rT2HScfb46/cBchebM3hSls6eKwO/QS563+o0SjwuOR1VUh6Vp/GiKJXScxXw9UR5V5ArbCvCXJVSvGDSWpXk+hQc1qa+VZEr9NGgy6K+RMZCQwaPitNYsEtwahXio6yCh2a+Q06t4LvrlTDrkIqP1gtA5Xpbv+n710Hu/OlnHD98xP7999m6JyzP2Tp5zM7JISsrw0R6XLTXWgj4hGJnb7twvPpB9eZ2aFGrs2ke9LF7WMKXIT0v6qSUWZXk6NUY9BoKS+w09BVx1GvicYOcUqGKu1K4IDVRXl/I8mkNHy9Y+OP2dHoK5OJ2RoMGd6mD9vlKXiw6+c9TmYSLr4HcVi9fPCjmsxkTM0YlQ/Uu+pYqeTFq4pNWOZVlTtp73fzJw3JejmnpUyjwXgO5Dw+D/Iuwhsd1Moqyz9oqFBkqa/cSWSnl94smvuqRU2x5tf/vDnINFFfks3BUwbMFG79tSmO4IJNsneC5q8busVI5Wsbd+UL+jzkjWxXnUFWlEguVCX6ZGpsZZaWfuRk3/+npIB90aOlSyXFrVOg1WRg0WeIjvCKkUgrxyKFtyMvB3SA/H9HyoDydgFmJ6TwenroCuuYr+GrOzN8MyWl0vgqrhTjnVEfwhz9hNjzAQpeL/Ny3PMJtVKCpzKC8P5kHkVhmGpPQC+CyOpX6hXgWZ+LYGYujt/k2Ld1J9K/EEBm9xXpJKhVW6aUid/zwNseHGh4daDjclbC/J+HOfiZ39zI5Wr/FQmsibQXpWHUKEToK4NDbepvuvX/G3HACs2Up+KyZGHRKtHoFlpJ0PKEEFkLxPBqJo6rwYt5RYi9Jp3E9RlTH3u1MpNGTjkF4DFovx+rLoHwqnunF2EtPVmE8vgvIzVIrCPQm078Zw3LfLSaDqWIBrIu22qrSKAklsD4Vx93eRPz2C1/eLCxBCf7pBBbnYnk/FC967xo0CrFwo16wa7DJybVmkpctv7KkOC88qdEoUTkykV8rdjZRnUJQLceiUSB8LizCUwNCH6+D3NfjcWdPimCTIChmD2di6Q6k4xGsMUQYdzY+XsEXdzeGpfEElupuU2yXiuMqxMNekUbpTAKLU3E8GIinsuAqHs7SdFq3Y5idjeVOWyINhZI3xuO61YXQXkEhbG1JpTVyi8drt5lvTcapVIjepAaLjPqpBFFdvdaZSL8nXTw/CNt9m0VhKkJSOEPZwBw790dp75/F659jqKOZqalGGldXqRlYo9E+TN9AmNDzZbqaApSpVGTrHejtAQqC1fhqh/C37NG/dszGsyMi40P0VlZRVVFNsLycoAD38iyXnuBXbX0XkCv0UYXaYEVnLcSSa8NmzSHbYECn06PRZWMpH8Iz+0eMTk2y2e8i6LqyKzB6m3FOfEb/7BYnc9U0ljowaDRotXq0BgvG3HzMubnYcrQYdReK0zcocostKDV+XC3LNK6+IDI7TLjLg99hEM9/Z1D9SpHbcfTHrJx8yP69h6wePGb5zlNWjj5kY3+T9eU+OioLcBuUGMScM6BQOHHUTFG9/ztGp0aYaTYQzNdhEDyF9TmYizspnPyIwfA8h2Nuanw53yr2FzG4DnK7Np+yMF5Nf40ZW7YOvd6A1mjH1rRExcwLFsO9RDoKsOcI82Y2SmUB+c1L1O98wcREJ5P1erx2PXqdUWyrtWIY78wfMR6eYmuggJKCq3hc7P/sVcgDC3prNcUTj+havstsVx6tRRdg/Nvl98U+lEorWepS3G3zNG88JbT3hOXDJ6ydPGVxcYpIs53KAr3oc/9tb4pc7Cv6+t1iFR2/6Pj9FHIgCnB+3AAnGt9ofKM5EM2BH/O57AcFcverMnhekEaT6UpRZjApKPQpmCmX8lfVt4nkScRCLoJy8Lt65C40ZfAgmM6qPePMW/T8It3qUFBeJudBRTqfBFKpMF15714ky7cBuRfbiq+WLHJ8Su7UfL0iV7jQ7SiTstqYzj1vGhNmyaU/pOD1qDcqcViVNNlkNOWc+cd+2wukGyD33occ3t1hY/+Ypf0nbL7/GXuPn7C/M8n8RCVdtTnUlRkI+IyYzd8W5OpQayz0jPm4fz/IL4fUHAfSKLjmD6rPNZLnt9FVomfEp8RpVKJWahAujGta3Bw9r+aT6Ww+q0yi3nqm1BPG2Oyx4R+r4tF8Pv/XvIX5UqGSu+CRm09li5svTn18HNEzrs6ko8pJ21wVjwcMfNSQScCfR0Onmy8flvLhuI5BpRKf/Mpa4f5BMX86ouSwJB2L7hxkaVTk1XnomS7j90s5/MWQgqD1VV/YdwO5ghIrh7LqAnYeVvDzAxd/M6njfk82k80WcZnuz2d1tZxfbRXw/yy7OKg529/1HFCYc8go9ROJFIog91mbmna5nLw3An+DGI++CR+P3y/hT1Zy+fWInuW2nMt9zk962d8u4+82bfzDhIJWl/K8uNLVhZG5ZpriyGfMTPUz3+n8WpCrrU6nciCJB1OxzDQko1UrKGpJoWvnPeZH4lmoS6asSEKgNpXO5RhCYwmslaZQYbsGcg8Subsr5XgjWVR07uxLufvIyelWBgejcXT70/GY5OfgUCmC1WDnbYbuprKxEMtWfzy9zck01qeKS+tAorivA0F1OxlLrTvjEgA7y9Po3IthNhLHTk0ylY6rnDM4pXiGExmbjv+eQK4StUZBxWASY4fJbM3GstqXQGfT7cu2tgzfYmA5hpPFGE6H4wmez5HCMWDySsgfSCI8F8ejlUTGO5KoCaZR6svA55LitmaKqlghX67nzMVcpciVIynNoDeSwOMDLWMVqRQrzgorXqxz8SrAan2OnIrRRMZfi8fKcgzr6zHsbyZzsPQeo9WColp6DkfP4hHouM3gYSILQwlEgqmX9gliP3wS8kZuMT8Vz7OJWGo9kst4uMrT6DmIFeOxWXmbinO1rrDd2+IhtjrZpF0AACAASURBVNmoQBvIoGowSYT+S4MJVOlk2EwyjIUSeufjWN6MI1KVQr1FcgmdL/r7Lq9KvQeZfYKSvhlWnkzTPr5CsHyZ4bYqpobLqJ1fp3Jwhxb/JKOjYeYfh+mo8+NTKjFl6VHpsjHmWDE6qzH4Fmic3mTl6RYjHbU05ObgsljIsZjJMRsxCgXPLnygL8Hzu4LcLNSGXDS5ARy+GvxVTZTWtFBe10JlXSu1Q6u0bPyGhcUZdkaKKHGbLiGnNr8aS9djOmfucLA9yWBfK2WlpQT8ftyF+ThtOZiNWjHfznJOaNsVyO3ZeMb6/CBjQ31UNEbomj8gdOeYqf46unxGbAb1tVy9ArntR1+ytH+fza0twku7TC4fEVp/xPz2LiubEQaa/JTb1OTohHkqB4XCi6t+jtb7v2VkopOJ8nQ8lqunC3SF9Zj7XtA7tcLpTCn1Aeu1/V7Ndd80D66D3I71R8z2++gMKsWndMTvUGsxVIYpGnvK4vQwc71e8sx6spQWlMpi3B1rtN39BePDdQwGM3BmX92w1fu6sIz8nJHwNPsTAcrd5re09WysDZZq/OOP6Fw6ZrY7nzafXLwp80378vb1LGSp/DjrRqkO79I/t09o9Zjw3mNmFmbEpzNqi7JvFGV8+/e9+zhHvys6ZtEciObARQ5EIU8U8kRzIJoD0Rz4cefAxXz/Y3z9QYHcncp0HjtTabwGcnUmJXavgnC5lH9Zk8KMM0Osjv59gNz5Jgn3itNYys0g75q3rFDELBCUi768nwVTqDJlitDgeoL8wUCuXklPhZStpnQO3WmMZF+BXKE9gspXrT5TVOqE95cX7u/+Q+51kBvZ2mQ7UsLIQBftA3NM3nnKwt19Vsb9jDRnU1FqojRg+o4gVwCHVgZDPp48LObzARUH3lRc1yrIZ6kFWwoVWk2WCFNUYnEtAXKaaWh1c/qyko+nTbwsuU2t+QqqGd1WXIOVPJxziZBzqUyBWq15N5D7qJyX44YbIPfevp8vBxTsBdIxa89BrlqNtdpD61Q5/3I5h78aVojK4usK6XcHuWbKawo5eFzBn77s4r98MMV/+mCc//Bi5Gz5YIz/5aMp/s8HXfy/az4O65Ti8XE9D94V5Ko0NoYmi3n5USN//3KI//2DEP/xxejlPv/jhxP8rx9M8H/fqecfp5S055/t8/rxIYBc//SnzIQHvxbkqkxKzkBuIg/CFyBXTqA9mcGDeEIdyfTnScjTZ+IIZNC0Esv45E2QO7IVIxbDirQkU1KcTsdEPAsPTaxPxjMdTKMoR36tmI8ADhWUdiUzdqpk/9TMk1Mnj09yeXTPerac2Hj0wMnPdjR8MBVDnecM5GYp5ZyBwzOQu1Fxm3LbtRtPzkxc/UkMh+P52fdS7EwAuXKqh28ROs3i6NTK0/t5PBLad9HWUwfv33fw8ZaS09F4SvPOIKc4P9gy0VakM7AQy937Fk72FKIX8Vo4ninBZ7c8laBd+tZK998W5F7EY7r5NiW+dHwlaZTWpzA8H8faXip7w7eYLE3FJvr5XsVj9G4qC4MJTPrScJ17YQv90HklWAeSmAvH3YhHQUUa/Ye3mAnHsVKaSlnum+PxcSTusvic8J2iH7A1E39LCgv3slgKxzGSK8FbIMFUlc7Uaix7q7H0udPxq+SiivB6jr/Le6XGhTy7h+LuGaY/XKZtepfKui3GmkuY7PFSGtqkbPiQrrpZsQjW+vEo7TVesTCf+Ai6SrCgUaEwBcjMm6I6tMrC0zX6G4JUaRRYBOue83WEc8LNtr07yNXYq8mpmKdh6j7hOx+xfvoZe48+Z//x5+w//SUHz7/i3t48e2N+SgqvqVUtQZQlK9RGHrH+7DM2jk9ZXd8gMj3NQF8nrVUeip0mDJc3D14Fuf13f8vek19w9PRz9t//gsMnJ+wfTTFY6aFYo8T0Sv+uQG7rzqeEQ72Mt3kJFBdTGGjEXT1Oc+SI0PFL5ifaGa8y4bQIdgVmFIoghY0LdDz6DcPj7YwF0nCbr0CuxlWLsesJPaEVHi5U0xi0i78Drs+tN8f5TWN/9r/rILd97QGR7kLa/ZmXSniVWouubAr30COWZkZY7POfg1wrSmU5nq51Ok8+YWywmgFfOo5rx4fW046p72eMhOc4DFdQ7rHc+M1y1tbXQO7yPea7XbT5z9T179KfN68rnJeN6Kz55BQW4/CUUFjVi2/wmJ65bQ63u+mrc+NQKESY++bvePsYRtePjk00B6I58C45EAU4P26AE41vNL7RHIjmwLucE35o6/6wQG5FxteC3N/X3GbOKfleQe6x/00gN4vioOIS5FZn/zcEcnNeBbnfZ0LeALlri2yM2ehr81Pb3E738imTu/fYmqsj1O2kMvj9gFwBHA5OFvHkof8S5Obrry6o39zHM5Bb3+bmwUfV/Cxs4gMB5J57KAvbmApzyR+o+K8Gcr/qV7BXnPYayHXTEirj9ys5/NXI9wRyaws5fL+c35wW84/rufxqwc77Eef5ksf7kTyejZr5sDOLXveZOvY6bPg2IHdw0seLFxX81Z1Cfr9q46NZYT9X+3wSzuNFv579WiXFljcrcn2RC5Cb/1ZF7ttArqiWPUxkoi2JXpsEu1aOzZ9O43IsYxPxNxS5gnfuRv8tRstTceRmEmy7Td/+e6yF49hqSSKYKxVvcpyNyzVweD+Tra1EjuZjmAvFEhqPP1/iCI3HEelJZLwuBU+u7AyMXILcWBEcbpSn/MFA7sSxRCyidjAXw8yk0L5rbR1LINKdSH9lCs4c2eUNHZVBgdqeSXF9Cr2j8YSm4pibPlsWpuNYmY5lsi2Rdk86rvMCYtePt28Lcl+Jh0WGOTcTa76M4s5kOubi2ZuJZa0jiSKzTITIF2B99Did+YE3g1zzBcgNx74C1t3XQW4whVLrNwO5wg0ipU6JqzKNof1YFmbjWC9Loa4uhfzO2ywvxHEwFU9dnoRc5avK+utj9I3eq/JQaFso6ogw/nKHzqW7NHfsMd5YzEhLAb6hTQLDx/T1rDA/PcneXjetlQXYFAqxSODFPhRGP7K8EFWTqyw8WaW/vpgqlRxz1pU682LdV1/fAeSqTCizCrFXjlAWOWFgdoPI7DzDk7P0jU+Ly8DiMaN3vmRjbU4EuWXXQa7eRpatGlf1MI2jq3RPrTI8vcbQ9Aaj06tMzMzQ391Ac5GRArMAVV8Fub27n7C5ucrC4jq9obtM791j+d42460B6mxKzNrrIOMayN3+mNBwPYPVRvLtZkyWfLIdJbhaZqmYe05kZoT5/iKKHUZ0ihyylCUUNAkg99eMvAHkqvNrMXS+L4LcRws1NJZ83yC3gDaf7AbILRx+zNLMKIt9xa+AXG/nGl33z0Buny/tlaKGAsg19p+B3KNw5T8JcvXWKtFaoXP53vesyBWsMrSodSa0JguGbEFFXkF21Rp1Extsn4YYbA1Gi519hxvurx7X14+F6Pvo2ERz4PUciEKeKOSJ5kA0B6I58OPOgdfn/R/T3z8skPstFLk91Zms16fz0JPOoOUKYGi0WRR4FPRXyPi8Io0DdzoWzdnFrkaloq5Yzo9PkXsTqL1LMt8AuSszrA3q6K4zUVZVTO3EAYPrj9nfGWZhopTaEhMVAeN3VuSKIPefUOSqNWr0GpXo5/qTU+TWFnLn/TI+XnPwm2YZkWAWQaf2bMnXib6OJXlqymxK8gw3gc67glxRIS2A9cd+fjGp51FNJs0e9Wv71FJiV4kFCY3niuTruZZTPY0/LIDcIea+xiP3zSBXQbAzmeGjZBHk9uQKIFdxDnLjGJu4qcgdXothoyuJ/qI0BA9YS1kawZl4VhdieRCKo7YwQ/Q+vQFyj9NZHI9juiqZcnc6TqfklcXlkOG0XKnmBOD43RW5sWy2JtLhTr9UTmqMCnKbUmkIJ3AyHcNiczI5or3IlSJ3/E4Sy0MJhCpvEyh8tZ1Cu/NtMhwCGD2f567HQ2OUY8yT4q9Kpak7mYGxBBbXY9m/n8391Vvc60yk9tx39vp23xrknsdjwJd2CapEcFosIa83me2VGI4m46i0SkU/V0HpLCik/5CKXKGfgh1Eri+dusU4pufieNB7i4GRW5SFEtgKx7Lfk4jXeg7xvwN8USpzUSqrcbdMMfDhXXo3TukfPGC8oYi+Ggeu7i38Iw8ZnNhidWGCuxvNNJc7yX7NIuEPA3LzkGsa8fdtMfj4YxGATrb4KPUVkufMx5bnpKB+guK5XzM1M3sT5J6Pk8pgR2srJ7+sk/LOME2j2wwuP2bx4eesby+z1eugzmu4AXK7l09YHimnq76S3MIB6qYOGb//jOnRegZLNDhMqssbFdeLnbVsv2RqoJS+EhlW49U8qPB0o+88ZXxhlq25JmoKrFgVOagVJT9RRa7gkVtDYOIB3SvHzHU5afUrvqdiZzdBksJQiNQ1iX9whZXnKwx3VVIll5P7Rmufm9tfn4+i76PjE82BaA68Sw58HcB5l++JrhvNu2gORHMgmgP//+XAT3Uu/0GB3K/zyJ0tl/KXla965FpMCtorpazWZvCkKI1Ry5nqTjjQtFolXq+S4UopH5elslNwE+R+F49chU6FYMGw1JjBk+ZUZs1SapTyV9RTX3vAv4tHboXsjR65wiO0+mwlTpuCdruMVrMMs/rbK8feCnLrTZSWF1LaNU/77BGbx6sszbfSV2miPqj/ziD3wiP3wVs8cg32bBwBG/3leib9CgpMWX84j9y3WCt8E4/cPx94s0dupsWBt87Li/v5fLllYteeSbPqSkV4lTdXHrm7Dyt4uZzLlw2pDBfKsRjV4iIUmbPb9HjsWiptcvKueQtffM8lyJ1+N4/chw+D/HJMw/2yDEpylZf7tJm15Nn1FNtUBCxyTK8o5M4meWN5CM/ER8xMj7HU78dtM16DL1cngjeDXLkIcocOk0SQ223LuAZy32ytcAFyBXAoFEnUFkqxtKcwtRjDyXoSQyVpFGszxce5s7LOPFkF1a8AixdH45kuS8Vnk2EwZIqLKUcoBJaJI1dGoUUmFs8SxlMAf9/WIzfbIaE6ksDYcgw7nbfo8qZdA7lyHG23aY3Ecy8Uy1xDMtmivYgAcs88ckf341jqT2A8mEq+UJjtoq3mTHJsMpzCkiMT+38Re8FHW7jxodYq0BgzsdgyySuQ4S7KoLQpheb5eFbm4/ggFEubL/2Gt6oAcqUlEnrCCWIhuW/qkXs9HpegX1DA+qQ4um6zuRrDnck4qqwSrIqzAnTfzSP3zOrinTxyz4GjoUCKazCRsUgCL+diWFyJoW8ljvXheOarb+PKuemRfjG+3/xV8Dktp6Bxgs7HjxnafcREZEcEue2lTqwt63hHHjG5dMz2SoiThWoaSuw3ikL9IUCuUutBntNH6cgmoSfHjPbV0+7KxmUxYTAYMRhN5ArFzma+ZGLmDYrcrDMbCLXGKPrsGnNdWF0+8rzleOuGKI88Y3h+i6PpCtrK7GiUQqG8HIz2Woonn9K1eMRin4fWMht6k4f8lgWqFp8TmR9ndiBA0GYgJ+vipuWVIvetINfdiabtHqMLs2zOt4gg16IwolYU/SQ9coUib4bcNsqmH9K7cUCkzUaTW/ZfDeTKjW4kBWGKh1ZZf7rASFcFFVGQezn3f/M55Oq8Gd0mOhbRHPhmOfBTvfiP5sc3y4/oOEXHKZoDP4wc+KnO5T8okHtYk8EnvjR6rJlkqxUikLBbFFSWZrJSKeFPy1KYtJ95oApAJdsop75UxkKNhA+DKUznSTCrlWJFa0HNVlMsZ7pGyoclaaw5M8TPhAP2QpG72JzB0/J09lwZBAxysfCOoGbzuOR0VEl5VJ7Gi6JUSo03IZtCqyYnV8lCQwaPW1JZzM2gUS20O0u8INKqhf1cedYKSkARqKiVZ59bBSWYgsPaVL6ouU2fWUq+UoFBpXxlO4Mui/oSmbifR8WpLNglOLUKsY96rRKXU0FDcSabPglLgipPewZFvs3E9HaQayRYmoe/vp+GsU0WTk9Z3hhnuslMe8V3VeRqUatzaBn0sXtYwpchPS/qpKK3bI5ejUGvobDMQfNQEQ8GTDxvklNmVZClFB7HNVFeX8jyaQ2fzFv44/Z0egrkCNsZDRrcpQ7a5yt5sejkP09lEvYrUWqEYmeub17s7C0g9+FhkH8R1vC4TkZRtlLcp8mko6zdy/RyGf9yPpuveuQUW16dIAWP3EyzA0+1h6cn+Xy5a+auW06XQS4qjgXVseAFLOSPKktFltJIcUU+C0eVfLji4J93pjHuycSiU2HQqzFb9bh9Fmp8RvoLFRTnKG5cIAogVxL0EY4U8h+eD/GyS8uARo5HkyUqnA3CPtUXuXoWj7ahIu7cDfLrkI6nNRJKLQqydSr0ei12pwl/wEyLV0NLnpxc3c196gIj5A0+ITIfYXW8iuK8bDG3r1s+CDn6Csi9LHZ25ZE72ZFIvzOdPIMcRzCdto0YQlNvsFZ4TQGqsGSS5c+gby6W3YNM5huTabNIyDn3whbmD2/rbXr33mNxLJ6FmtsU2zJFYKvVKTEJ6la/hGK3hPI8qVgQTGivsJ29JJ3G9RhmZuO425lIoydd3E6nl2P1ZVA+Fc/0YuyNYmdGu4ySsVsMLcRwNJzAUFkqJp0SvV6BMVeKvy+J/vk47ozGM1WZIn4mHsdqBYHeZAa2YlgVCoFVpFJgFtqqRGhrtkNKnk9C0C2hxCEl+1o8NAYFBruUXLuM/NxMzIZMhHlDuNElFkIbSiY8Hc+nC7foKkm94ZUrjKM0IKE7HM/9Qz2TtSmUazOxaM+KI2k0StGj+2JsLoqdjazFsN6TwFBxmqgs1miViG0pS6doMIntpVgOxuKpsMpERa7gI+1tTqFrN4al8QSW6m5TbD8D6Fq9AntFGqUzCSxOxfNgIJ7Kc/WwCNZL02nbfo/Z2VjutCXSUCi5EY+ZxTg+ueZZLI7rOchV58rQ16bSNRnPhzsq9g8ULOwmsdyVyHBhOg79lbrz+nbv9j4bhcKDs26cppOPGDl8zPzqFuN1Phq9Toy1K3hHHjO99z5762FOwgHqAtabx/IfwFpBqSsi0zxAxdg600/3GG6vosmiwabXotUZ0Rhs2KvGCSx+RXjuzCP3ylpBJRZm0+a6Mdsc2G0msk06dFotGq0Bg6sSa89DOiI7nK400VXtQvc6yF04ZLHHQZMviyylGk1RP/bu+4yvbbKyNECrPxe34ew8eUORO1hBf5mC3Gw1aq0ejS4bXWAQS+9Dxhem2Ziup9JlwazQkaV04qiZonr/t4xOjTDTbBCfbjDoDGj1OZiLOymc/IjB8DyHY25qfNd8gM9z511y4LpHbtfmUxYmauirMZObrUevN6A12rE1LVEx84LFcC+RjgLsOTqysrJRKgvIb16ifucLJiY6mazX47Xr0euMYlutFcN4Z/6I8akptgYKKCkw3sids7aqUKqLMeQPULtwytDmJuP1FmrzpKjV30eev3q+E/apMHmQeGcIDq2y9f4sIx3llMrlWKKK3LfE6OYYvkueRdeNjl80B65y4Kd68R/NgasciI5FdCyiOfDDz4Gf6lz+gwK5J01pfFmdwkqBhLocufjYdnWhnLkGCfdr0/mFL5WBax6oBoOSIp+CiWoJv6xP4a4/nYYcuagSLM47g7j3GlN5XJRGyCIRIatwMF+A3KU2CR81pPG0JJ3BXBkVOXIKrHJ6SmTstqXzrDydewVnkPf1SUChUZGTk0WkLoOHbakcejIYNcsoMCiw65Qi3BJgtF5UDp2p4gRlWs75ZzaHAm9AzkldOr+qSWXMJiOgU4jQQCieZRJUdFkKEbj4fXLGaqX8rDaNB8XptFsyKcmR47Yoxbau1Ut4FExjzZEhgtzX2/pN//46kFsSzCVQWklt9xSjRx8wv7PKxlgB/U3m76jIVZGl0lPc5mVqo5w/37bzl1NapoNq6gp1FHmtDA+7Ob0T5MspE582SqkUQa4apVJDQUU+HWu1fLrp4t8uGdit09BYoCXgtdDdW8jp/TJ+vWrj9x3pDLrk3xvIff9+KX+76+KrMR0hv4Z6jwlfsY2ZmWJeHgf562k9P6uX4sl+DXKqNMgNubhL3dw/LuLXx4V83pzFvFeBy6Im36omz6LCrFeKVgCqLA3OYgdti9U823TzH9bsnLSoaXVpCRZmU1vrYGHWx+mkjc+bZAwWvOGmgykbqcfL+JSHf/jZBH80aWSnUElLngZPrhqPOUvMuzPLChUqjZ6Sdh/TmxX8+ZaNvwhpCQfV1LoMeN1mensK2F0p4vmAnnvlEgJvgMdZBV1kNx8ysrrK0lIPTR4LBZrrBcfOTypGBZqqNCoHknhwCXIVl5B1bjCBcFkKBXYJnupURg9usTgXd9Mj9zWQq9TIUZll1I3FM3uQyvZQApPBVGyGM+9lAQA6qtOoXohndTGGu5NxdJWl4cuX4nBJKGlKoWc+nlDvLSIVKeLj9cJxJGxnLkonGIknshzLs8UEJhpSCOZLKfRICTanMLIRw+5mIp9Ox75SXEtnzcTZcZvumQQerNxiuTeRivwMitwZuMtT6FuIZWkzlq3OWwx408UbS8I+VWoFzsZUGhfj2FmKZWc4gWZ/Ot58CTaXlPK2ZPpm4wh3JzJWkooz56qP5iIJ/sFEBgYTWehOpDGQTqFdht0uE8ezfi6e5YVYfhaOpd2ffqOYkyJbjswtpXMqgaP7Zha6b9GVn4HXLsVmlWHPzrwEzsLYXIBcwSN3ayCBiYpUnLkyrMI+3RIq+pMYWY3heD6Gzc7Eax65SuxVqVTOncXjOHQWD79LgtMtpbo3iYnD22yE49lqSCZ47YaexZdB2WwC0ysxPF+IZbw+hYBT8k/G43JeFAquuSTUDyZycGoWi8Id7yuYrbtNU7ZUfMrhct1vAfDOtjWgVNpx1IxSc+cXTNx7yvreOqPVRVTb89CVzlE08oil+5+yvzXNwUgB1UXZN0DPH0SRqypArmslOLjF6JMXhMMDjNR6CRa6sOeX4Aj0UzawS//hr1hbu26tINxc02J0VePs2adxcIpQXxW15W6cDhtWuxtHaTclUy8YXtzh/lwl7eV21ErhhlX2lSL3OsgV8j+nDFNxiKb5u4R2tgm1F9Ho0Yg3oa6D3NbtjwmPNjBck02Bw0qOzYOloAZf5zqNq5+wsDjB8mARxXlGtEq1eJMsp2QQ99yvGFncZGumhdZqP26XB1thA/72BTr3PiU0M8VKq5GyfO2NeLxLXlwHud37H7O2HiEyUEuV10VhYSm2om6qJu4ytPuCpclmRmtM2EyCh7DwZIYJc1UI//zPCS0usRZqor7MS6HLT667iWDvOj13vyASHmKmwUiRTfPmtgrnH0s92WWL9GweENkI0xewEBQKuopFRL//H/tykxeJf57g8Br7D6cZbSulWKHAHAW5b47Rt55jvv/YvUt+R9eNjv9/iznwU734/28xFtE2ReeIaA5Ec+Db5sBPdS7/QYHc46Y0EWreCWYw5ZYy6pMyWybhQXM6DyrS2XNk0HBNHSv44FrsClqKZTxuSON+VTpLXglTPgmTQSlHdemc1qSxnCeh2SAToaqQQNdB7geNabysSmOtSEKoSMpIsZStmgyetaSJYDhsleDS3iy8pVCpMBqz6CqTsdWcwQNB2evPYNQtpd8tpbdASl2ODK9KjjFLgVGvoChPTn2hnF63jP6gjPFqKR+1pPG7llT2AhmECmXiti02GeW6TOyCTYJaic2hpDGQKULfR9VprPqkhItkjPhlbFZncL8+jX1vBmMWKbZzxeG3OVC+FuQGcggECqhu6aFj4wOmd/e5s1rDeLeLcp+BXPNbLhy/wUWJSq0mt8RJ43AxH20U8mcbNp4OW9jvtbHY7+LRciG/OXLz2aCeg2IpvvNq3UplFmZ3Lr7uEo4WPPx+38VHISsHvbmsDORzb76Qr+4V8Xkom+PiDGrNmd8byH18v5R/tefiL+bM3O0xs9Gbx/KIm4+2vfzpUSE/79GwXiQlT//6pK1Coc7G4c5jetnHizse/mTGzPOhHObaLcy2ZxNuMtDhyiKgyxRhrslpwdsRYGuuiH996OPz6VyOeqys9TrYCbn42b6Xz2Zz+ahWQk/ezVxV6oxk2vLp7HfzxbMafrOWxxf9Zg67LSy2mFiqVNHuOlPAC3kjxMNe4qRpOMDH5/F4MmRht9fGQp+Tk8VCfnHHwycDOg4Ckst4XM85uaUKfSBC68Iu4c0lhhv91DiNYqEiQal+ua5RgaoynfL+ZB5GYplpTEavVpBfk0b9YhxCQa6t4QQ6G5NpH0hi+uA2y5HYfxLkCvYJWWoFvs7b9G3GcDAXy1p7EkU5crFauqAANXglFHbdZnI2jr2VGKYHb9HfkUR7RxIjoQQWtxPEwlsTwVQ85qsnAQzOTNEGoX86jpMdKauT8Yy2J9HdkUTv6C0iW+9xsJ5wA+RqTEqyS9Kp6k9kcz2WtelYJjqS6O9OpGcogYWVGNbnY5ioTKE6V4pefT5OKgWmYgn+3mRmF2LZXowh3Jd43tZkxiLxLG7EMN+TyIA/jTzT2c2DM+gsoWg4iYmZWA4XY4gMJtDblkxbazK9w7cIrQsF4eLZb0uk2iW5UeleoZeTmZtJzWASC0dSViOxIhDub0uivT6F9pI0/A6JGM/rIHdsN4Y787GsC7FrSaa1NZm27iRCc3GsbMSwOZDAaFkqDoNc3KewrdEjobAzmdBMHPvL7xEZuMVAZxKdPUlMROJY301htu8W/Z40Cs4LswnbGfJlODtSGJiJ42QrneWJeEY6ruIxvR3DwcZNsH6Rg0qNArkxk2B7MtMPNBwdG3m8KWGkNBW/OH9/H0rFMxhnrRiidPM3TB6/z87RPMMVHkqyHWi8IbyDD1h+/5fsbkXY6rVQ4dFfHSfn8+gfAuRmqawoskpwNc3SuPmMiaVVZkJDdHX19xoz3wAAIABJREFU0tA2RH3PDO2Ruwzu/5yN1ZlrHrlnBdX0BXU4ek5pixywuhpmZHSQ5rYu6loHaeqfp3vlAZOzsyx1F1DjNaESnq5QXLNWeA3kZqkdaKy1+IYP6Fy/z1KklcEGJw6DCr0qmyx1EZ6eXVr3f8Hs0jSzo620tHVS0zpEbec0XdP7jG+dEh5tZbDaSr5Zg0p5pvbVuerIbjuiPbzD0voSwyNjtHUMUd89S0dok6ndI8aHO+jxqXBbhEJe1+aud3z/Csg9+JyVjVXmp4bp7OiisXOSur51hpaPiWzvMNkRpNmjwawX9imMaxZ6Tzv2zrv0zu4wv7LIwOAQrZ0j1HUv0B3eInxwxFhfHe1eFc7sN7RVbUClc2AKjOLpvcPE2jzTkTbq803kq78P+5A3j41cUOQWzVEyvMHuwwX628twyyXoZVKkUikSiSS6RMcgmgPfMQeEY0kmkyGX3/wN+F3mrR/6tj/Vi/8fetyi7X/z+TQ6LtFx+anmwE91Lv9Bgdzd2gyeB9M4rs7gsCmDj9rS+GVrKp/VprLtldCgyyRffaVwFDxi1dos3HYFw+VS9hrT+bQtlV+0pfGLpjReVKSxUZhBjSETW9aVd+wFyJ1vkXC/Mk20VzisT+dxSxpftKfy88Y0PqxMI2SXEFTLyX5DRXClAITPbRj6KmQ8bE4Xt/11Zyq/6UzhV+0p3PGk06+T4lQpcFqVDNXIOGxP59edaXzZncpve9P4y/5U/rrvNn/WlcIfd6aJ2z4pS2MxJ0OEuYLHpVqXJfrg9pXK2K7P4GVrGj9vS+WL1jQ+qkvlbiCNXosMj1p+Cau/zYH+dSC3NJBNSSCHsvpaqqceMLZ5zMnJODOjZTT6DDjMb7hw/MYXuirU2dnYfQ7Gxj28vxfgn5+W8W8e1PE/PGjgv9/N53cRA0ulWVTq5ZcWGUIf1UYDGkcuXT1u7m0H+OrEz79+UMs/nNbxr/fd/MWcnt0aNRU6OTb192etcHJUxh/P5fLHCzY+PPDz29Mg//iwmb8/KOLPZw2sBIS2ZorK6tdjoczSYLKaKGn3srgU5C8elPP377fy79/v5N897uDv7pbyUZOKKXMGeVo5Kr0etd1KU3sBR9vF/OYkyL951CiOzd8dFvOXK9mctmloExTlbwL5Kg0KjZFAdT7hzVI+vxfk3z1u53980s3/dK+W/3nRxOMmOZZL6HwWD4ffweSEl2f7Af7Fgyr+7mED/3haz7/ayeOrsJ7FkpvxuOyr2oHWUot/+IDurUcsz/Yz2uyl0KR+ZUyUBgWK8nRKBJA7F8t8a7Jof5BdlEFhbzIzm/+MB3dNnO7KOdhMZn7zPRZG3l7s7HpxLZUmC3N1OhXhW+xv3BKLa9ULhdOU53OBUY7edab2nFx7j629NI4OlNzbV3B37Ra7U/H0lqdSZJCTfe2xY5VBgSpPSllnEtM7cWztZ1xus7EQw+h8LGuzsTce5Rfak2XKJK8knZZQAtPr73GwL0dQfx5vpbMfiSPSmkSZTYr1Na9rVbacHG8GDUO3CK+/x86+5LKtRytxbIwm0FGcjlsvx3gNlKvMmWi8EuoHbolgWrCZOD7UcHKg5mQ3k+ONZBHMtudJyL92k+wijsL8o1ArKKxLpW0pluXd25wc6jg9MvJoM4OnoTiGKlJE/+PrIHf8KJV7xyaeHFs5PTJwekfD/f0sjteT2ArF0Sd4FmdnihYxF/vKMsrR5Uuo6klicjWWzd1UDvfl3NvL5Hgljt3xeDqDKeKNtVf6aFCgzpNR3pmMAG2vx2NzMYaxxRhW527G43K/gtJapRT72H0nlt2tZJ7OxNBalEHORa5847nsbT8yz4BcTlk/3qU/ZfLuQw7uhhgoK8Sns6PJG8Hbc8z8k1+xsTHFaruGMtfNOfUPAnKzBOWpAYO7FWfbHp0LD5g/es7a8VPW9vZZWhpjZHaTusjnzE1HroFcoe8qskyFqAv6CfSsM7zzlPmjD9g4+ZCt4+dsHp6wvr3K5EALTYVaXNkCJBdApfmtilxBkaoyOjFWzxOYvM/S7gLT4/VUWjXY1aZLkNtx93esPvyco8cv2Tt9yfa9F2wdP2Fte5352X7aqwrwmbNe8fRWGvJR5Tbga1ugY/khU3tPWbn7jI3DR6xsrDAfaqGtogCX9syy6XrOvOv76yC3fftjIuEI09OzDK8/JnLwnI17z1nbXGRmooVGv40CnRLddZWssRBtfivBnjW6Vx8zc/Cc1aOnbBw+ZGV1nrmJBhpLnDi1StHG5kb7dE7Ulnp8vTt0bT5jcbaPibYCCnK03+l3w439vHasXHrkDm6y+v4O3R1VuOQpKFMSSUhIID4+PrpExyCaA98xBxITE0lJSRFvjgjn4n/quPypfP5Tvfj/qcQ32s+3/eaM/j+aGz+uHPipzuU/KJC7XS3hfU86cz4J/cUyZkokLBZLCLsltFoyRSBqfO0iQbgAzzYq8efL6SjKZE7YJihh0S9lPF9KU46MPKH4kfKiOIrgVavC7ZDT4MukN1/GoFNGb5GMiaCU5dIM5ookjDmllBkyRR837Wv7vJgc1OoscnIU+PMVDPhlzJdmsFYmLOmslUkYtsuo0sixqJSYjQpqimQMl8jEzzbKJLx5ySBcIKHTIBUfRRf3pc5CtJHIk9PqzSQcOOvjclBCxCOl1y6jSK/AdK2PF218l1ejQYvHbaOysZbmyTm6B5sYajHQVGUkGDhbSio9lHcM0jY8SHi6ib52D9U+Hbacm9DhXfadpdGgzzESKLPR1+VkczSfowk7p5N29rsMzFepqLEpsWYpxQJAF9+tVGtQ6gy4/Vba250sDDu5O5nH/Qk7d3pMrNRk0ZKvFH04hRwQ1zeZcflymRk0MVGroUqloLggB1+9i+EyLePeTPLsOXiKrcwNmRiv0lChUGBTaDDlmOkPBzi5E+Q3YwY+7DMwPeRkfSyPB5N2DntMLNaoqbEqsb3W1os2C6/a/4+993yPI8nudP8VtWP3tCcJlPfeV6FQqIIpmIL33nsPAgQBkKBrsptNNtvMdE+bmWn1jEbjZFbakTTy3q6RtFqt9llzd/c+6+57dRIsFgA6gARIgMgP+WSZzIyIEycjMt488QuzEXeBm+q6IItS1skQH82E+HDGx40RJ/MpLQ3WjcXrRFc3z2giHHfR2BJkrj/I25NBro95eaffwVq9ge6YlpDoQ9/VVzci5dxBByX1ISb7wrw7GeLmdJiPxrx81KZXFpHbsmiZwYDJaaGk3EtvZ5Bzo0GuTUgZvbfro9qjvc/9YUFnDuJOD1Pcd5bBhTOMTozS2VxHVVGQqCMPu1GDxqQhL/4mRe0vc2XlBZZ6XiRhOYHXcxJ76k1qOl9idOJ5ZoZeYLj3GI0dL9FU+TIdkTeI2U9iMOcRlojepldoLn6NUu8JTAJMb8E5Y+g4gcrXaW/7Gl01r1BoP6lM6VW0evUaBMoGk69T3vQKnb0vMjR0jLGBYwy0vkxH+SuKTqtDs83nDBryzfn4C9+kou1rdPS+yMjAMQY7vkaXyBeMv8Ds1HNbNHJv173UkeckkYpXqW59mYGBYwwNvMhI90t0ZV6lMvYGPnPeHYtcSdSo0ZFHuPR1Kltepqc/l9f+5pdpLXtNkX/Y3gaIfTX2PMIlr1Pb8TXlvNHhY4wPv8Bor5Tza9QWbQBgm+Hugz8ZFDrCJ4jVvkJT90sMD7/A+OgxpvpeZLLha2Rib9xeyC5bH5merzEw/CITYy8wOfoCE8MvMj7wopJea8WrFHk2fHtLdPat+vAn36BM9HJ7X2Jw8Bij/cfoa36JNlmQznMcy7Z2TrO5PqTeel9S6mOo/SU6G1+mvO4VGmtfVfR9S0PH7zrAlTLGql+l8+oLnF18lre7j1EZeuOOerhdj3e9zx780GQOluKuW6Sqq4+O7kpKQy68ejt6Wzme4i5qB2doaq5S9GEDzjuvpzH6yLPXEK1qom6wkbICP2Ft/q1F/O48fmt+dZh9Sbx1s5Rl6mgrsRB233smhd4RwxRrJlE/RF3vFG2DE3T29tDWXE5lXRORqklqq2tor/QRcOeihzUGBxpbIZ5kMyXtY9T3TdM5PEfX8CRd/f20t9WRKYkpi1Y6FJ+TvsOCwR7FnxkkVd9BfbGDhG9TeQxWdMEaPOW9NHQ2U19dRIHNgENnQqf34ilpJ9V9iqbhBfrG5ugZnad3ZJruwTHa25toqC6kMGBTXhIZNsFRjd5KntGPK15HvGGE6u4J2gcn6RoYpr21gfryMHG/9Q6f22rXTfm8r19Y0JtD+Cp6KGoZI1NZRU1NPeUd49T3TdI5OEZbWy216TARlxnbJo19SU8j0NoSwlPUSFHjCLU9k7RLnQwM0tJcQ11ZgKjHcofOtdbiRucvJ5Duo7xjic7pVUYXFuhrKaEmblP03bdrlz9c+e5uh3yjh5OuJgKZMVpOLZGuqyFoNWLWvMHxV1/k2PPP8nM/93PqptpA9YFH8IHnnnuOY8eO8eqrr6qRuZva4aM6+N/LNly91t37NtUuql1UH3h8PnBU2/JDBXLPl7/B+6HXaLBv6LXJID+7KQuFbeqct988Ep0rx2SPl718v9d52eOzx2T3m8/f6eAme63N52bT33yNex23/Tz5LudtPlfKe6/z71XG7TZ60HeLRU88Zqak2E5JiYNS2RfnIO5tmFtsV/4rLbZRUmx7RI3cXCMgUF4ri27pdRgMOgyyYJx8F3sI5Nk0AN9eFoHzcp4cmz3PqPx29/OU429dV+ws3yXtrB9s2HrjepK2Uhca422Qe+1SET/szedi6nU8svDOrfxm07xb/d0rz9lzs/lW9tsG8XJutozbj5cy78QHpEyKfTfZSNKSPN/Nto9SH0pZdUY0xii2gk5KJ95n8NJnXLz+LgsjTbRHX1emxwuEO+k7SUH9qyxffJXT48/T6jhOTBbtk/tZojQdJ3Ha8nDZ87C4T2C35+Ex5ykSDBt22Vpvm+0sZVBso/jVnfdU9nx5KSObwbDha9nvis3u0e7If9njFB/Ra7GGjhPufZHBqef54h6La23kKXuuLBa2sWCYXOtB9bg5zYfNq5y3+dwHpZm1UdaOW8+/8/7K5jF73Ob9TsuYTWvDNhv2kd92Wx+5+tmo17ufr0Gjyaeg9hX6rr3O4uRznKl6WYHNm31pTz7LvaY3oNfrlU25pxX/kntQh96w8d+962QjslfkT3SGW+fcwz/vmt9b6SvnP8CeWmkTdQZFakWn09/O2+283yqHzHC5064beZOy3j7XcOuzXq/IG23v3yQyV8nXrf/vuKaSjrTzYjvdlv5RbKfYVey3fbt1vBxzV5tIusr5+tt5VfJ8r3zsxt53HJtNa7MP5NKVsok977RNtp/Mnp8750F51XtLMVauUDvzISsffMnayiRz3QnKQjZl3YB7p5VN81H3JvK1fgyeSqyVwziLG/FHCwl6rLgMb/DKi8/xzCMALBUCqxBc9YGcD2yGuXdv7x71fj5c5x/Vwb9a94fLT9X6UutL9YH7+8BRbcsPJcitt925YJPq4Pd38L2wTxbkZoHtTvephBXnI2jk7kXeH8c1ZCGfbESugNwfC8hNvoYsTvc40j98aejQ6OwYHHE8xa0km0ZoGJilobac2vCbG1queq0S3eoreZ2u088xK7IEncfoKnuVQv9x/BK56czDIZIBxnyMEq1q1GDWZ1et3//7Yjd2F/3csESS3gfk7uZ66rH7X78StXzSdYKyrpdZfM/KqYEXGA6/QVQWQbsDxO1/ftQ0VRvvpQ/oXQWYSodINo7Q1dtLY00J6QInHptxzyPO757vjYjrk3o3b5qDHDe5yNOZ0OQfJ++NF3nxhefUSEwVZKs+sEc+kI3MFe3pu9+PR6t9PaqDf7Xuj5afq/Wt1vfT7gNHtS0/dCD3g+CrqCD3yTRIKsi9v91VkHt/+9y7ExFpByM6WxBzrIFAJKoskOW6BcpkWrsteJzk4DGGlp7hvbVXWR56ga7KV8gUv04i8iZ+20ns+o0o3Xun87D527vzVJC7d7Z8XPUs0hMi71E3coxrN4PMtb9Evek43k167I8rL2o6h89/Dnqd6e0+TAXV+CMFFHmNuCy6OxY1fBxleP3113n22ed45tkXeOZ50cd9nmMvPMOzzzyjQrw9gnhqZGouMvWo2uKZZ55BYK7cb4/jvj7oaRzVwf9Brxc1f+qzjuoDqg/sxgeOaluuglw1omrHD3MqyL1/o6qC3Pvb5/4Nskwbt6K3+bHa7Dgs+be1bOU8o00W8zpOuvllRueeZWHx51hZlu0ZTo09T1fRaxRbT2DWP0oe9v9cFeTuv43v72e7T9/oO4m94RW6pp7nm+d1jNS8TFSXp2iU7nVa6vV2Xz+qzR7RZgYLBpsXs21DD9ekv5fExCOm84BnLQFLzzzzLM888xw/98zzPPvsszz77DMIeDqq0E0ttwpe98MH5N5SQe5Ge3ZUB/9qv7m//ZlqX9W+qg88Xh84qm35oQC5QbeGlvITTBYd54z3dcoseTuGj+qNtHc3kgpyH2RLIxabjYbOAhamIlxvyGcq9gb3WiRK9c0H2TP3v+jG5uvzccWOU9L2Mj0TL3B69VnOnj3G6uxzDKZeI207fvfV2B8AEB5nPZg9J/HWv0JT50tc6j5GY6E6vfFx2v9h0jL7TuKqf4WWnhe5Ovo8jUWvY83Pv49Oac5vHyY99RzVfkfRBzZArgpt9wPcqddUgfBmH5CXI6+99po6jtJqOaqD/8Pcx+Tn53Py5Ell0b4TJ06oe9UGqg8cMR+Q+z8vLw+ZsZtty45qW37gQa5UkMmoxW3PJ2jVEDXmY9fnKi5bgep+/we/Ksh9kI03FiNyeS1EghYSLg1BS56ywJ7qnw+y3YP/F5hrsORj95zEHzxONPomsdgbRMPH8dvyDoW0gs6kweQ+idt7grj3JFn5CNU/Hlz/T8pGUmdG10k8vhMUBk7itm1A3P1fBOrg2uRJ1YWa7tPrEyrIVWHjZtioft4/f1BBbq4dPaqD/8Palwq4OX78OK+++iovvfQSsnifuqk2UH3gaPnAyy+/rLyMlBc5WZh7VNvyQwFyD2uH87TlWwW5uYe/p61u1fKodav6gOoDqg+oPvCkfEAFufsH7lQoqtp2sw+oIDfXzh/Vwf+TaucfJV2JwBNw88orryjwVrSeVekdtW3b3Lapn59+f5B7/vnnn+fFF19UJIIkOldg7lFty1WQe4CmXT9KB/c4zlVBbu7h73HYW01DtbfqA6oPqD6g+sBR8AEV5D79AzB1kH0w6lgFubk+5agO/g9jnyKRuFmIqwLcg9GWqG26Wg9Pwgfk/hetd4nKl2dHeclzVNtyFeSqIPe2vsiDOnYV5OYe/h5kK/V/1VaqD6g+oPqA6gOqD+zMB1SQqw4In8SA8CimqYLcXJt0VAf/h7FfeuONN25H4h7F+1Yts9pHqj6Q8wHpx1544QVEZkEi9Y9qW66CXBXk7hjkWi164jELJUnbrraihBWnQ7/jdA7jA4aa59yDsWoL1RaqD6g+oPqA6gO78QEV5OYGKOpgTbXFfvqACnJzbfNRHfzvpm0+KMfKAn0ShSf+u5/3h3pttf1VfeBw+IC0BaKPrILcAwQzDQYDJpMJvV4Ffwel88zmw2jU4bDrcbl2uTmlTnMPTtnrqXvVJqoPqD6g+oDqA6oPqD6ggtzDMXBSB7iHv55UkJtrb1WQm7PFQe+HZYEzFeIe/vZH7UPUOtxLH1BB7gGCuNKJmM1mbDYbAnQPeqei5u/wPACodaXWleoDqg+oPqD6gOoDB9MHVJCrDu72cnCnXuve/qSC3FwbqILcnC0Oet8oIFe9r+99X6u2UW1zFH1A5BXUiNwDBHNVkHt4OtWD3umr+VN9SfUB1QdUH1B9QPWBg+8DKshVB6FHcRD6JMqsgtxce6iC3JwtDno/qYJctY94Eu2lmubB9jsV5B4giCudiApyD0+netA7fTV/qi+pPqD6gOoDqg+oPnDwfUAFuQd7sKQOZp+e+lFBbq49VEFuzhYHvZ9UQe7T0wap/Ylal3vlAyrIVUGuKuFwwHzgoD9MqPk7PA9+al2pdaX6gOoDqg8cfB9QQa46sNurgZ16nfv7kgpyc+2hCnJztjjo/aQKcu9/X6vtnmqfo+gDKsg9YBBPjcg9PJ3qQe/01fypvqT6gOoDqg+oPnDYfMCs0RDUaklqtVRrtbRotfRotfTrdAzrdEwYDEwbjco2rtczqNPRq9XSpdXSqNVSqdWS0GjwarXoD9gz3r3qQgW56iD0KA5Cn0SZVZCb6xNVkJuzxb3a5oPyuwpy1T7iSbSXapoH2+9UkHvAHvJVkHt4OtWD0rmr+VB9RvUB1QdUH1B94GnxAfctIDtlMHDObuem18vnwSDfCYf5xViMnyYS/F4qpWy/VljI96JR5b9vBgJc93hYs9kQwJsRuSqN5lDMOlJB7sEeLKmD2aenflSQm+srVZCbs8VB7z9VkPv0tEFqf6LW5V75gApyVZB7KAY5B72DVfN3eB6G1LpS60r1AdUHVB84GD4gEbMCW5MaDR1aLXMmE+ftdt73evksGFQg7Y8LCvj1REIBuD9LJvmjkhL+pLRU2X6/uJjfLCpS/hOo+6NYjK8iEbJQV0CwAOFWjYaCW2kdxChdFeSqA7u9Gtip17m/L6kgN9f2qyA3Z4uD/kyggtz739dqu6fa5yj6gApyVZCrgtwD5gMH/WFCzd+2Bz+dAZ3OhEFvxGgwYDhE03nVutxWl0epLRC/1RvRG00YxG8NGnS6Jxu9qNMb0BrMGAwmjAYdet3hmRqv3ku7u5cEphq1WlwaDVGNhjG9nrddLn4QiymRtn+8CdZmoe1u93INidwVsHvB4aBPqyWs1WLXaBTJhYMEdFWQqw5Cj+Ig9EmUWQW5ubZaBbk5Wxz0PlwFuWof8STaSzXNg+13Ksg9YAN3VVrh8HSqB73TV/P3OHxJh8Hkw+ZtoCBUQ0O0gLjDgeUWKFDr4HHUgZrGrv1Mb0JjCWENVRDP9FJaXk55JI+APe+JvtgzeuJYSvooqqilpjxOgc+Gw5CPQafW8a7r+IA922zPv+jXiv6tRODe8Hj4dijETwoK+O1kkr2AuFnoK9G7v1FUpETqSoTvVZdL0dkt0mqxHiAbqSD3YA+W1MHs01M/KsjN9acqyM3ZYnsfddC+qyD36WmD1P5Ercu98gEV5B6gB3npNFSQq0Or1WEw2DFZ/DhsfryOIH5HmIAjgM/hwmW2KFMxzUYnZksQlz2I3x7e2BwB/A7P7WMORsSNDq3ehsHkxWmT/IU3tmyeN++V/PvwWOzYdFoMTyRCTodOb8VsDWC3uHEZdVgMUi87feAxotNZMZnd2Kx+PPYgXnsAv92P2+rAaTJh1ukOXETUzsuXs4NGY8BsLcQfX6C2bIrZyhrq/QHc+fkYD4k248OU+7CfozNaMToj2H1RguGYsgVCEfyhAF6vE6fJoLQx+9V+aPQG8k1OTA4P3oALl92q+Mt+pZerr417W2cLYo81EKsdp3H8HB1dbXSmThJ3n7h1n+vQG6xY3CHsbi9umx6LKX8XbUDuHsml/eDfjKFyrA1r1PROMTLYQWNlIcmADbdFj0m3EUW5m+upxz7Y5o/bRhKFKxC3XqNhyWJRJBAkanazXEIWwu71XtIQfV3R0RUN3TKJCD4gMyhUkKsO7PZqYKde5/6+pILcXL+ggtycLR53X7jb9FSQe//7Wm33VPscRR9QQe6O4dTjaexVkGtEozFjdVYQLBijLr3AYM0ZxmrPMFE7w2RNJ63RBDGNhrC3nmhymbaqFSZqb211c0zU9dISLSKhycOpfbJThZWOWmckz1aOLThIU3rhVlk25Tmbd2V/ionaEbqLKkib9fh1+w9Ptj5M6NBoLFhtKWLJWTJF7XQEzRTa9DuEODo0Ohcma5JIpJvKkhl6q5YYzswzWjVOX6qepnCUmNWC7dCDGbGVEbMtRbhojeaqJVbqWmkNR/Dn5x+aRXa21v/jaeeedJomfwpP8xo149eYW3tb2ebX3mJ2bY6RkVZqAy4i++if+WYPx0PthOsGGJnroKk6TjQ/X5nyva+20RnQOkuwJQeoHj1L/+I6ExPjdDWkKfPn4bdIRK68tHFgchcTa18i0ztGV4WNksDJHbYBD+9DOmcB+sJuUh2n6Zq7zMT8JCN9dVSG7QRMamTuvvrGY3oWEog7oNVy2elU9G8FrO5lBO6D4K9o6oqWrkQAi36u6PIehAXRVJCrDkKP4iD0SZRZBbm5PloFuTlbHPT+VQW5ah/xJNpLNc2D7XcqyH1Mg5eddhAqyLWj0UUJhPuoqr7IQO0a83UrTNetbgW5+flbQW7dOSYa3ma+9RLnepcYK66iSpuH/4CA3JO2tAJyWwTk1m1A3JmmtznV+SlnO95lvWWNhcZVJuuWtoHcxz3VWeCkHYezmpKqa3RUzjBXYKHcubOHHZ3OjMFWgi/QQ23ZPH3VZxgXCF+zzHj1EuOZUYbKWqgPBCiw6DHrdxPpu7M87PRee/TjxFYGTJYo3sgA5UW99JdUUO71qRG5B6xd3V7XCshtOkvNxDvMrb3D7PpHzF/+lPMfvcPq+TG6C7wkdXmKhuf2c/fie74tzBuF0xT1r7B+fYaRzjSpvDxFL3Qvrn+3a2h0ZrQGN7ZUL/HuCwwsnmVmYZK+tgzVySB+az42g7z40pGf78bqr6d4+ut0LF5krsVBfcH+g1ytyY3WlcKX7qe8b43+0xeYWpyjvyFBVcSKTb8RyX+38qm/HbT2cWt+JNpctHC7tFpFC/f70SgCVR8EXvfrf5FwEO1cWVitQasl+ITbrIMGci0WC0VFRcrm9/t5WiGCQL0333wTm81GIpEgnU6TSqWU788++yw7GcTq9XoikQixWAyxlUaj4eWXX0aufb/zX3mFJqV6AAAgAElEQVTlFeRcn89HPB7Hbrdz4sQJjh07dt/z7nfNR/lP6lj00qPRKMXFxRQUFCB+8Pzzzz+R/DxKWe53rgpyc23zYQW58vLNp9UqC1jKzIqMVqu0441aLW1aLb06Hf23NulzmnU65L9anY5yrZbkLb10xwGZkbGT55entQ2+372q/newIaJaP0++flSQ+4Qf3rc33kcd5Gp0IfKNDaRSswx2XGC4rJPucJJSf5KYN07UE8RvsWHNz8di8mJxJPC7E0R9GcKhYWrT8yx0LzJwkECugBGDC4Mlgs+VIOpNEvUkKSsap7HhcyaqZ1gsraAuUkLUK/9HCNidOPVazE8kIvcRQK7eiSM4TKr0HJO1U0yUt1MfLqU0WEMi1E1DxRkGGs4ylkrT4rPgMB5mkCsPw7qNhc6MLqwmJy6LBYvB8FTIRmxvm56m73qzA6MviSdWRjxZRqx8hGTbeUYun2fh/BidTyHI1er9aC2VxLtXaVt/n6mxNgZrg0R9NmxmA0a99tZiZ08Q5CoLsFkwWHzYAxXEutZpOHWNpblOhhujBMz6AxE9+TTdC4+rLKJHO6LTKXq4vxyPP1GIK3A4uxDaL8Ziim6uDPYfly3uls5BA7m9vb189dVXyra+vo7Van2qYF52APrcc88RDocZHR3lO9/5Dj/96U/5/ve/z8jIyI6BamNjI++99x4fffQRYquKigqMRuMDAajYtKmpiXPnzvH5558zNjamwNM33njjidja4XDQ3NzMhx9+yE9+8hM+/vhjxA8EOGft9TTsVZCba+sOK8gViCtgdsJgYM1mU14OfuTz8UkgwHfCYUVv/VcLC5FNXhqKPvo3/H5uer1cdDg4ZTYri1+WqCD3qbq3n4b2SS3Dk4ejh6kOVJD7hB/etz/QH3mQq4+SZ2klXTrLVPcZ+hIV1NpsBMw2zCYLFqMFk16PThaT0psUHUeT0YbFEsXk6CSVnGS6a4H+4swOInJN6PRubI4EIX81yXAt6Wgt5dEqSgMJilxOfCaTEpUn0UQ6gw2jvRSvK0mZ20nQYkGrNWFzpvAFakl5gsRtJkw6AyZrCLe/jrArTMych90gK8RbMEpeTXasRiehSA/pum8xVD7MfCJAiduN1ST/WzAZjMoCP7c1M3U29EYfbmcx0UA1xZF60tEaKqMZygJxilwuvJLXbYtsKVF4eg9OZ5JIcOO8ilgjlbE6KsLllAViROwOHDrNLT3eB0Xk6tAabJjsKXzeNOlgAXGnC7tWg1GjR2f0Eyg8RabqMtMVrQz884A9bnfjsQZx2FMUxEeoLl9kKFlJR9CFy2jYNHi+sz7KY3W3ypgg6XZtqY/svaMsNuauIewtpdIbpdBfSiRYS3GklopIJelQEYUuLx6DBouiOSyaxT5MlgTRYCkJf4yQyaDYIHtNrc6IxhTG6kiSDCUo8vrx6HUbEEnq1xbH5WsgFWmkqqBJ2TLRcqpDMWI2u3Lc7brb3MbojGh1dqy2Avy+ShLhGsXnKqI1pIMpir1egtYNDeit58t54ucRvN5K4qEa0rEG5LzyUJpib5CwzYb1lvbw7XJsTnu3n3VWtEYP9lAJodIGiqtbqaxrJVPfREVlKaUJP36XGbN2u3apCY3eidVXhL+kgURVCxX1rVTVNVFVVU5JkZ+wx5I7T2dQbG3yFFNQVkJxdYZYaQupilqqa4opLCrFH64kUVFPeSZDutBL1GPEqJOXAKLH7MQZqyRU0UZRUQmpZIrCykaKa9uobGihsrKM0mSAgMuC5dZDu05vRGeyY7Q6sNqcmAPNONOn6Tq7xsz5UToKfPePyJV61Dsxu+N4U3XEpYwNHVTVt1BVXUVZKkxBwI7VkIsgzbOF0QUzFFa0UNU+RuXI2/St3uTyR29z+vQ8/Y0dtDZ1UtvYSl11MWWFPlxmo/JSQKlPpT682MOlhMqy5Wulur6RyopiSuJu/E7LHW1A1hfy7cVoouPUTJxl6sIaQ83F1AQN2I25Qd3GsdtA7ul3mOsqprOhhIKqNkrrWqmqr6eiPEFRzIPbbMCk0+byqdWi0VvRWYM4o+VE002USl3UtZCpq6e8rIhU1IXHZrzdtmbzmNtL/fixFk9R1HeZmXMLjI/UUuHW4zXce5aCRu5vvY6QK5+ayEnaQ8dp8Z4gZsxTFrbaek9tL7f6PWf/vbVFTKtVInHf+ec+7scFBYgm7n5F2u72uj9LJhGYe8HheKKRuQcN5E5PT/M7v/M7yiZgz+Vy7fmAX8BhuSy0uA9bMBgkPz+fr33ta/fNt0SbSuTx0tISv/Vbv8Xf/d3f8Yd/+IfK95deeum+52YHe+Pj48q5v/u7v8u3vvUtampqlEjbB0Wyut1uBRgLxP3jP/5jPv30UwUom0ymHaWbTX+v9qWlpZw/f16B2X/2Z3+mQPzBwcGnLhpbBbm59v0wgFzpt+VFYEKjoUWrVfTNV6xWpD8ROPtlOMwPYjEF2v56IoG06Zs116W/EQkfkdSRBTW/F43yeTDI+16v0u7Pm0xK9G7lrZkZouN+EJ8V1IhcFfDtVVuvXufp8SUV5O4Wbuzz8Ucd5OYbYuTZOqmQhaO6pumMJCjRahRQeN9Bpt5DnqWZeHycqa4FencQkZuvc6EzFhGNjVKfeYvJlvc40/4u59ovs1gzxFhRgrTLiT0/X+nUDZYo1tgCFakplkoSNPg86HQugvEpamqvM1lWR3/YjctkxukT8HWTpmQzPe43iZg3w4eNKfnOQBup2m/RX9bHXIGThM24CWrmHrSUqc66ACZbhmRilrbat5hru8lKx3XOt19mqWaA0WSSMocDxzaQqxW7mEqJxydorb/GTNv7nOv6iPNdNzjbfIbT1Z10ROLE9Cex6yXN+4NcjUaLzhTCEZmhMr3CcmMfA4kUUZ3oe5oxmgooLF6hueYC40WFtHj1WCTST9Hd1GN0VuEN9dJYkKYpGFBArkB5qds76qP1JiudN1lvv8Jy7TBTqSTlLtft+sj6g9VVgT91lbayJdbL2xnInKal/jrzbTc4236BlfoRBhNllFo0eA2iOWwiz1SB0z9CZ8MpRmt6aHKaietzU8cFROU7mggUTDFWP8poaTWlRgMebR4CAR2hQZKVHzLV9g0u93y8sXWe40pTJ52RKN57aeTq7OTrb0mHVFxguOldljve42z7Fc7UTzFdWkWd349Lm7c18lBnRaML4/a2kE6fo7/hXc50fsjZjnc427TMfHkDreEQAb0e0x4tspav96CzlxFpWqB+8SNmrn6H9fe/w+WbH3Pu3CKnRiuoTfrw6PIVkJetD43BQZ65CF/lGNXzHzF2+Vuc++BLLt38hPWLq5waraWlzI9Hd0ubUm/mpLMBZ+kcfcunmL5yie6lL5g5+y5Xr80yMLZIpnmd8XMfsHLlEsvDFbSXOrEKgNTY0erjFHSu07T+84yNzTE1NsHg+Y+ZefdLLn30BecvnGZxvJaahBfftrxm85zvqMGYnKd9dZWZ8+MPBLkavY18YxxPyQDlUzcZvPRtzn30C1z64DMuXb3E6elWuqujhKyGWy8PtJwItaGvu0r/+rd469Mf8s5nP+ba5z/ixhc/5vrnP+LdT3+wsX3jC967MsviYAUJt1WZfSCDiny9F529nFjzIk2npXw/z/kPv+StDz7m3Noc8wMlZBJu7Nq7S0LkhxrQ1l+jZ2GJ9bVumor8BHV3W5RvG8hd+YjpwV4mZk/Tc/krTl3/DpdufsTZ1RHGu4op8VoUf80NfHTkGQMYfTUUdq3RtvIJi5LX97/grZvvs7o0xkRHgrKQ/Y57OVsfspd7MM/agDu9QO9bVxldHKEnZqDIlrtPNx+vfNbryDfqaUqd5J2O1/lu8yt8u/xVOu0nCN5qx+84Z5/7dDU9Ld06nTLolkH0bkHr4zpeorYkUqteeUG0uf99PJ+PIshtb2/nm9/85r5sMzMzitSBwNz7DVr3AuSeOXNGAcD/+I//yC/90i8pEbki1/AgaYZAIIDk8wc/+AH/4T/8B/70T/+UTz75BIHQ98vzfv3X09Oj5OUv/uIvlLx8/etfp62tTZGJ2K80n8R1VZCba9MOA8gVGYWQRsOwTqdE3v4oFuN39mCBTJmVIfI+An4lYnfZYqFGq1XWKsg9z+Rs9aT7chXkPj3w7Um0e2qaT6f/qCD3gA3ijhrIlYjRfHMch7uWdGEX9SVTNJadY6zpEmvdl5nPTDOS6qEj1UNLqp2WZCVpb5CARqO8ob3dse4S5AqQNNnLcYUnqS+bYbR6lr6yIbpKhmmTBboqpxmvnaKjoIQKuw63UYvOHEYXmiKdnGQtXUZzMIZeGyEen6a17gozlS0MxCN4TD58gWYqG67SnKin3XaC0JYosg2Q6/JvBblx2+bo1M0PD0Ys7lrCBbO0pacYqZygt2yIjpJhWoon6K6cZrh6nLZogrRdh0PRudw432ArxhKcpLZ0lum6WQbSo3QUD9BWPEJn+TSDtafpLW6gw2shapH07wdyjWgMUWyuJtJly3RmZphMlilAWxaVk4hcgzFIuOg0tZnLzJRV0xV24zRk327r0JsCWGwJIk4/EbsNs06HTqNDq9Er9eGOTFJXOsVQ1RQ9pcNKGdtKJ+ipmGKkdpqOeAlVDh3eTVGEVlclgeJ36Myc52L9BOMVw7Sm+mktHqErPcNg7SrDFb0Mx4IUO8zotHo0ujh2dxv1tWcZqJmgP+iizJqzuc7gwOTvpzC1xEx1J0NFRYQMBqyiuawzYHGU4Qv1UJnoo6V0mtbMW4zXLfNWcwddkYJ7gFwdRlsKa3CU6pJpRmtm6U+P0FkySFvJBN3lMwzXztGTrKbBbSJoyi4wJ3YLYvX1UFw0yWBmiv7yMaUe20vG6CybYjAzQ19pC40+J3HLo8tVyP1hCFbjrDlN4/gaE8trDE/M0zs8R8fIMv1zq0yunaO/M0NjgQG/PZumDoO7GGv5PJUDZ5leXWd0Zon+4Tm6Rs/QN73KxPIygwMttMSNRB0SQWkmz9mEK71I/7lzzFxcpbdnnsGpdSavfsD43GmGekfomH6L3sUrnFnsYai1kLBJj0XjQKsvpKDrAi2Xf4G55RVOTQ3TMzRB++AiHePnGTl9kbn1swy1pamL6HHfxT559hqMRQs7BLk69I4olpIJSrrPMH56heGZU/QMT9E9skjP5CojSysMjfTQXuwg4dnwq5POInSxTkpbRmgfO0P7/E0mLnzMla9/wNr6OhNDU/QPTdE9OEJPRzV16RBeixGTRoC1HmOoFlfNGZpGV5hYXGZwfI7u4Vk6R5cZmF1l4swqfa0i0aLDZ8v5craNNMY7sHd/zNDcPOdnq6kocGHb/uJH6Q+3gtzu85+yfGqS6fFh2vomaBtepnv6EhOrF5lamKCnKkiZT4dJ0bsWPzBhjDXjbzxDx/Q5JpZWGRqboWdkns7RswzNn2FyeY7u+iKqAlqc5qzvbM+ziXxDMc7EMA1rHzKwOMdoWk/ae2+QqzFoyTNr6Sg5wUc9r/Hj9pf5qupl+h0nieTn75vmcdbG6n5rHcrCZhLlJDq0EjElurSPC8zuNp3fLCpSIrVkyq1Eftn36IXYTn1ir0CuTNevqqpCpvsLhHvYTWQC/uRP/kTZfvSjHyERug97rex5Evkq2rHZAaVcU6JY92O7ceMG9fX1SJRpYWEhtbW1yvdkMqnIRGSjZR8F5Iq+rWjJCvD8d//u3yEAVKJqRS/3xRdffKBG7smTJ5VjL126hETA/tVf/RX/4l/8C4aGhvB4PMo1srZ62L3kUaQeOjs7kcjh+20Ckf/gD/6Av/3bv+Vv/uZvFHkFsaPA5vudd7f/RJJB7C6auzLQfNj878d5KsjNtdMHGeSKfIL0H1MGgyJ/I7IJAnEFvO7VAplyHYnelWhdiewV6YUzVquisxvVag/UM4MKcp9OELcfbZx6zaPjKyrIVUHuPaJAcx39TgciD3OcRmfnpK0ef3SGvvrLnOp4j5WOD1jv/pDLPR9xofM9zrW9y1rbdVbbzrHWMspAYSlF+flbFwbaFcgVWGnE7u+msPw9RmrmWKpspiFUSNyVIOBpJF08z0D7h4yXtzIUNBGzGsg3BcnzjVCSGOVsVTVtkTKM2hJK4lN0159jpqaDvqJSvOZCwqEWGlrO0pSood54Er9+I+p0w0a7AbkbYMQZ6iVVdpHhiiHGijNU+KLEXEV4XTWUF5+ip/kGY6V19AfNio5kti4snnp8Je/TVzXP2eomGsOFRG1BfPYkBeEeaiov0lPaw2SBm6TDfG+Q6xJpCBt6ez2ByAx9daeZyPTQ4bGRMEuUqxaBf3qDC3dsioqKS8xlehksSlFgs+MymbAYTMp0eJ1u+1T8jfpwBnoorLihQNz5smpqAgUUOOL43NUUp6bpbP2I0fJWxsJmpT6yZcyC3I7aK1xoPcVEcR2N/ihxZ5JYsJOqyisM1S5yPlNBU8CDWaNDr3FjsVVRUnGRzpolphJBatzZaew69EYPLilH+hySl76wb8tCSzq9FYPo4lrcOFxl2KML1JXPcqmp/R4gd6POrZ5Gwun36a9eYrWmnbZIiiJnlIC7kkThKG2N1xmu7Gc25iRllwjtjfPM9hKCqQs0Vp5hrbqN7oJiEvYgIVcpkUg3dTWXGKxZYEYph+kR7+mN+rCVj1Iw9SWTK+ucXeihNVNMsqAYf2ELpT0r9Fz5HtNTA8w22Ej4s3k1Yok1Exj5Ft1Lb3P17BB9LZWkCgoJF7VS1LpI96XPmFpa4HSzg8qI/jbIdZYv0nfhAtNrs/SUl9PaMUPdhZ8wuXCK5eEMVZ2LlA5eYuniHNMjdZRYjLjzJSJ3A+S2vfV9Tp9f4/RUB83pBKnCNP5kL5mxqwy/+xWnpjuZrLERdmUBea6N2znI3bCNKViBv/8DWhbe4fKZHgbbKkhGYoQKqolVj9N4+mNGz5zndFeYxsRGpH2+wYrW7MXmDuApqMBRvUzV+AXOv7fM1HAr1b4Ahb4gXr8fr9eBy2be0K3VSJpm7OVjFMx8qUDcM5ONNJQXURBLbdRH71l63vkBM1N9zNWbSfjuhKPWVB/B0a8Yn55kfShBMmy/h59sBbm9lz9jfX2Wyf56MvEQhYlaIlWTNC99nYmL1zkzWEpnqRmLondtRNp0R80CJbPfYmHljFIfdWVJCuPl+FL91IxfYfTaF8yPNjJSYSToyNVD9p7e2BvJzw9hj3RQvvgZPafOMFdvJBM+cY98axGQm2/R01J8gvc6X+XnW17hs4pX6XWcIKqC3Hvabavd71Ufu/tdIppkERqZtvpFKLRnA+8soP2rdJq/q6zk7ysr+duKCv76nxepyv73sHsZ0H/g8zF0ayGcxxWVJYtjvfbaaw8EfzsZnJWVlfHOO+8okZ1ffvklD7uJzIDAPNn+6I/+iB/+8IcPfa1sHubn55XFvLLlWF5e5l//63991+3v//7v+ad/+if+43/8j0q0qnwXwPhv/s2/uevx26/zxRdf0N3djUgDzM7OcvPmTUXDdnFxUZFyyMomPArIlcXAVlZW+JVf+RUF5P7mb/4mV65cUeCsLFq2021qakqRZhBb//mf/7miUSt5l4XGdnIN0dQVyHM3YCoLsIlcgugd//7v//59NwHJYmeJDpa9RAg/6Jx7/S/+IqBebPQgeYusPzyuvQpyc235QQS50u7atVolOlZerIkMgsgjbJZLeNg2/kHnSYSuzByRl4+imy6LYEpE8H70kbu9pgpyjw6ce1xtoZrO4fcpFeSqIPcJd1Am8owRrI4yRW+0IjFIJrXMUMM6q90XmK4Ypr+gmcZ4C9UFNdTEUiRdPtzbp67vCuRalFXZ/dFhKmvfZzDdxkjcS8Jhx260Yzb58Ye7Kc18wGC6h/mEn4TdgsbgI8/ZSyI+xOnaZtpidbh01WQKhumvnWWktou24joC5nIKQ210ts3TWJimQpuHVyI5b/vaBpzbeUSuDpMlgtNVRswTI+704DHbsJmcmE1egtFBKjI3GC1rZSLmJWzNgTybt4lQ+usMVE6xWl5OpceL3WDBbHRit0bwetJEXBEK7aZbC49J3u5c7EwkJnTGGKHYONUVq0xUdjNYmCRhNeLYtCCbwF6Ts5FIfIae2mXGa2cZLuuiPVFDJlhEocOpRNPKwko5e1jQaLwEokNk6m7QX9LMQNhF3G7DZrRjMfnwBjsprHxPqY/FZIgih/X2+VmQ25VZ5nJdG22ROCGzDYfRgc1RhrvgFA3ls5xvaqUzEsGbr8GkMSkaucHkMg2Vyyyly2gNujd0sTQWRSIillykIbPGRFGSFq8Jq25znvWKRrNBb8ZoS2AIz5IpE5B7r4hcExqNC0+gm3Tdx/SW9zGdCFLqcuBUdJG9uDwZYkVzNBS1MxILKD4nkZgajRObs5pU5WXaKqeYKgxQ7XFgN5qxmlzYnaVEk2doLF9gubSY1oDrtm1yNt6c9wd9lvrwEahboGL1u0xMDjDdGqA44sRhd2GxB/GUdBAfeJv2rg5GGwPEfGa0GgFvblypXopPf0Xf3BIrvUFqki6cdgdWRxB3qpWiia/TM7vCpaEYDUnbJpC7QN/6acYX+2gK+ymvHCCx8EN6hweZaw2SqOwn0rTM5MV5xscbKbcY8OXL+bcici9+ydxcD+MtEQqDDpwONxZHhGDjApVLXzI3NcipjtBGXm/fixu22DnINSq+ao+2kpz7hM65FZY6g9Qn7TisVqx2L/ZoFZHet2mZusj6eAWdFe6N+pCFvAwiP2LF4ClEV7JA8dBZ1m8sMN5bQ5nJhM9swWyxYDYbMRpkIT0NWo1VAZr++nkyZ79kZLSLsVoXRUE7dpsLsyOAp3KYwrmvGJ2c4GxvmFRE9Lu31rOtdIDIxPcZmxpnrT9GUSh3D209divI7V67wcpEhp6MH5/dit3hxx4sI9ZzmeZTN1mdrGeo1ovNLIBcwHqUcNsatSufMT3exkiDjwK/A7vdg9kZIdw4T+XSt5iZ6GWh1UfUm2uvtuZDbO3DHm6lbP5Tuk+tsdBsoya68eJo67EbZRWNXIG5YXc+tdE8OsLHafcdp8CYr2rkbvOHu9lvr36TgbgMfgWIyiBcop0eNIDe7f//va6O/3P+PP/r7bf5v8vL/J+Ghj1JQxZiE+1EWUhHyrDfMFem/guskwWlBDA96sBKFqsSiCYgVkDcw27/6l/9K/7hH/5B2UQ3Njvd/mGvJ+ddu3YNnU53u4wNDQ1cv379rtsv//IvK2kLVJT0f/VXf5XPPvtMAbL3Omfz77J4mUTGSnSrQFyJdP2N3/gNJXpWolOzC3g9CsiVSFeRhvi93/s9BTILLH3rrbe4cOGCAk8FoO5kk0XWJBJWQO5f//VfK2BYrnv58uUdnS/AtKWl5a4L0kkUtETV/tqv/Rr/9t/+2/tuElUs9haAnrX7g8651//ifwK5JWI5a+tH9e29Ol8Fublng4MIcsNaLQNarSJ1891/fmYX3du9isB9UD8j6Yhsg0T+yuJpApKrH2Pfeb8+WAW5hx+67VUbpl5H9YWsD6gg94A00NnG+6hJK0jEYb7Ogt7gwC7RjY40du8wDZVznOo6RV+8gozVRcjqxmlx4rLYsRmNGLfrHe4K5NrRaKJE45M0N3/AQHEVXb6T+Mw52Grx1OEpfY/e9CArJXFSLgFGHk5aWyiMDTDT2EVrooOAoZX6WDdDVX101/ZSV9xB1NJIOtzBYNsYjQUpEnl526Zp7h7kygJjRpMHpy2EzxEh4IwRcm1sifgYmaobTJV3MZcIE7FJZO3Gg5rNU0ew5D1FKmK5so7aUIKAzYtH7KnATqMib5AbrG4FuZ3VpzlVkqIpkibia6GuYpmBxhXGk2W0eGw49LnFnJQ0ZZEwYwyHp4WK9CLdtWvM1C0yXjVOX2kXzbE0aY+PkMWsRLgqoErr2KiPwgmaW24qYH0gGqTEG71dxli0h6Ly9xirHOZcWRHFLsftMt4GuRXTXKoqIeNzbyyGJ1HCxiB57h6SiUHm61tpjkQVrUxZOMFgDmKLzFJZdpqVmmZ6CmI4NDL92ofRXElZ+jQddYv0R0NU2zWYt8Dn3IOwxhIjPzhDecn9QK68PAgRiAxR3/opvWXNDAROErHkoJTBHMDsaSbuF/1gH2GrBa3GgEbjx+Vuoqr2Kt3Vc0wURqgLhG7bJuKrIpFaobXiNOcrM3SGA48IH5zk58eJtazQdOV7jA3WMVR6nKA9d3/o3QlMqSFKyjM0pWUhMTM6jQDgKN70KLUXf4H+6VFmM6+T8uUiKI3+UpydN2meWOfd2Qpa074NzWJnE870HH3n5hmda6XaZSVR1Elg8hdp7+5iutZMtLAFb2aO4YvzjE42kbEYCWwCuc3nP2d6qIqBci2uTTIZltIhQiNfMD0zzupgEfGA7bbvZO+TnYNcAfJRXIX9ZFY/o3/5LAsdMZorYoQLEsoWLW2gsP8aHbNXuLrQQH9d6I76yLeFeaNwmqL+FdavzzDSmSaVl7d1lsHtvslFfn6KWNsKre98j/GJfsYaw6RT8dtpxuonKJr+ipm5Od4aL6aswHlHGe1lg0Snf8D45DirvWESwTth74Y9toLcruW3ONUdoCGR83md1Y2tdoWysRucnetgrCWKXaRZNG60+lISvRdpv/BNJnqL6U6+iXuTn0t9hEe/xfT0CKv9hcT9986HvPywhZoomf2MrvlznGpzUBvL+WG2/rbv9XotRqMWhyEfpz7/1kKOufxvP179vre2EcmOuEajTFH9jaIi/qC4+JEh65+VlvJPmQz/s76e/93QALOz/Jef/Yz/5/d+j//xve9Bf/8jpyGDfMmrLMg2bTSiTK3dx2isLMSVAfpOpuJnH9zvt89kMnzjG9/gu9/9rjI1/ic/+cl99wJM/+W//JfKAl8CTEXnVSCebPI5u2W/C+wTGQCJPhU4+qDrb/5fwF5eXtsHdLAAACAASURBVN5tkCvyAXV1dVs2gawTExN8+9vfVqJCs4uPXb16lf7+fpqamm4fL8cODw8rkg/bryORqCJdMDAwoESjCkgWUPqLv/iLyoJiWSjyMCBXtG9l8CSSET/96U8VyP2Xf/mXCsSViF/RyZXFy3a6Sd7kfIk2FjAq9t3puXLc97//fUSeIR6P37Zt1key0g+ycJ3UoUTdipTFbutucz3e67MA7ewLAMmXAG1ZyC5r62yenvReBbm59v4ggVxZZEwiYCUS9qrLheiWP44o3HvBXVkgTbRzF81mCrVaHLefyXL2e5zPDvt5H0lUv7THsgCjzWZDpH4e9T6VdlJe4kg/JwtbiuyPvLTMzobY7fWz7e5zzz33wLyJRrmkKWXyer0IWzl+/DjS3m9OV9oC6XulvCJDI/3T9mM2H78Xn2WGgviN2EPyJ/IzMiPn2LFjW/KWTUvKLXnzK7P1vMhimPc6NnvOYdpL+aQ8O6nXw1Sux5VXFeQ+4YZ5eydw9ECudIgyDViPQW9Eay5E6+gjUz7FfNcMndEUZTodLr0Bo16i1Azodfo7wIiyqNeOFztzotEkKIhP0tp6g/5UmnbPcbymHFQzuWtxpd6lr3yIs+kUJU6HsrBZvrGOaKSXkZZBmosHKLD20BxtYjBdT2tNH5nSYZKOLuoiXUw299AQK7wNDnN1vUuQqzNgsCZx+TqpKp6hO7PMWO0ak3VrTNWtMdt8jcW2D1iv6WW+KErUlou009vKMIeXaK46x5m2daZrphlI99GRbKEuWkba4yVoMWO4HXm0FeT2NX/Aess6pxvPM9NwkaXWZRbqBmn3h0gadZi3RBrfqkudFb3Rh92RIhJoIJ0YpKlsnr7MGpO1C0xX9dH2z1NtkxYtZiXK9VZ9FM7Q0fFNZluvstq0ynzDqlI+pYxNV5lv+wbn6sdz9XFrgH0b5KanuFieoMp7K7JWQK7BQb6lDL+vgvpECUm3V4nmNsq5Ri86Tx9FyTlONY8wmEyT0ObjMCQwObuoy8wyWD9Mi9dL0nBvGLQzkCsvD2KEo8O0dHxMb2k9fd7jhG/JUohv6HQmRdLBYrLjNpsw6SXCcWN6ucvdTnXdu4y032CteY3FxpxtphvOM9v8Hmea1rhSU0dXJHgbZOd8bucPnhqNG42mjHj7Ku3XvmRkoJr+otcJ2HL3h9ZkRWfzY7M7cdtNmA0SOWxV7it/eoLGK18xOD3MdPo1ijw5kGvwlWBruUbT+Do3Fmtorwwq5RaN3N2A3JHJRqq2gdym9c+Y6kvTW3IStzUH+4ypfvwDnyog9+xQKYmgXbHPZtvsBuTm5xfgKhyi5ty3GL/+JRevvsvqpWssnHt3Y7vwAaeufcn6levcXGljoD6CXrs1sm83IHejPtIUtJ+l8+aPOXXtYy68dY3TFzalefkTTt34AVcuLHFlqpx0geuOMtrLhojN/JDxqd2B3M6lS8y3uWmIb1qw0eLCkjlNyfB1zs51MdEWx2EWH/Ch1VdRNHCJzrc+YqwrSXvhG7g2+fnm+jg3VHLX+tioG2mLtoLcxVY7dQUP9mWdTu4nDQadVoG4uRdVDz53s1+onx/OXgJAR3Q6RaZApqrea6C8m99FSuH/W1jgv//wh/y3X/kV/uvv/i7/6W//lv/yR3+0pyBX8iQD+LddLnq1Wtz79IwocgoyqJXBuQxiZDCzFw/+ck0ZuMqCWeFw+IGbRGxKFK9Ejv72b/+2AuKyMgZZuQIBjAJUBdKJbq7o53Z1dSmQbidpZI+RgevmAagM8gW2bt5SqRTnzp1TALGAR4kE/oVf+AUF3spgVqBA9niJiBV9Vpm+n/0tu88OjCWfEim7lyBXyiBQYHJyUgGvYp+f/exndHR0ICBdpBbEhjvdBI5L9HMWosvnnZ4rxwlMfv/99xHbbfehzSBX6lCif0VqQmyXrZe92ot0hkBeqTMV5D5c2/m4+5yDBHJFU31Mr+e6x6PIG0hk7G76iL0+Vl7qiR7vt0Mh1mw2RerhcdfP5vT2E+SKdrhofX/44YecPXtWWShye1uy2+/STgoYlv5FZhecPn1aaXeEc+z2WnJ8tt3dSYS/tHvyckvK9PHHHyttnsgObQfUAg+lXxE9b3npJ7rq+2lnKYdI5ki/tLa2puRvZGRE6cOk776bXaTcMrNE2m6ZqSGa5eIXdzv2MP4mYF/KftAkeA6LLVWQu08P6Zsb3918PpogN/fAk2+IkWfrpKJsitmuaToihRRrt0e05o6/bdtdReS60GiSxAsnaWu7Tl+qjDbPm1tArsFVgz31Nj3lg5wrL1amwOtk2rCunFCok57WSRrLJih2j9IeyTBUnKKucoB06QwlnmFaCzo5VddMfSSCU7QZt0T17AbkWtDpvbgDHaRKTtNdeYrxmkVGMxvbSPUpxhuuMNvyAeeqe1lICsjdFOFmCqF1NpIqHKOzepnBzAIjVdMMVkzSV9pPT3EzdaE4CatBWZRsQ5M1J63Q13SDc43LLNSvMVZzgVMtqyw0DNMZCJIyau8CcrN1I5HWVoyWEG5POfFIO5VF43RmVhitX2YsWUGLz4HLKIudbdRHYUJA7sfMNF9gqX6eqepTSPk2tkXGqpcYL2tmMB4hZrfdBlVZkNuRnuRiWSGVns3SAiby9T5stiARjx+vxYrlFrTW6J3kWRuIxCYYbVlmsLSBOtNJgvYKbP5JOjJjTFS3UOV0EtDm3fny4FbbsVOQK1Gu4cgwrZ1fp7e0jm7PG4RMm+DYXdsiiQCN4PZ0UFN/jaHWa5ypX2SuNmsX2W/YZqx8kIliiUj2KHl9WHil0XjQaNLE21fouP5tRvoy9CRe2wpy75pXgdVJAuWTNL39JYPTQ0yVvErCnQO5el8xlua3aRw/x3un6/cc5E72ldJTcmILyDWk+vD1fcL09ATnhgXk5nwn237sHORKZHUcd2KI2vUvGHv3c9YvXmRx9QJTpy8q2+TyZWSbnp1hfqCCuhLfHfWxO5C7UR+FHWfpev+HLFx9n7X188ytbE1zavkys+M9ClSNB+6E1RsRuT9UpBV2E5HbsXiRuRYH9QWbFhmzuDBVLVI89C7n5ruZbCvEaTGgy/ej01eTHLxE15UPGe1M0F7w+haQu5P62KiXjchgW6iZ0rlP6Tq1joDcmoIcpM/Wn7rPtrsHYy/auBcdDiWi6lGmxIr27f9bVwdNTTA4qMgoSPTtf/vVX+W//MEf8J/+4R/4r3/6p3sOckWPURa+WbFakWm+e+1f2yNx9wri7mbgIVFH8rwp8E8iXUVXV6bDi/yARHhKxK3AT9lEB1UAnQBK+SwSB6LrWlNTowzUBZruJu27HSs2kMiodDqtXF+iOwVoykJroqUrQCB7nkDwRCKhaLC+9957CiiQstxtIChRu3sNcqX+BBSIVITIEEg0rdhMfpNotjNnziiwW4D349gEwgsMkOiurI2y++0gV0CA6AZLxLKA9b3cJA8C3cVnVJC79+3GXrdDcr2DAHLlWVVe/kkk7rtutyJrsFcvAPcC7sqLPekPliwWRffdtQ99wk7qdj8Aoyw+KW2WvJSSe1b6AGnfpR3OtiEPu5f2WNppecEjfYfMsujr68Pn8z3UtY1GozIjQ8CwvIiSfEufcbdIztbWVqXP+sM//ENltom01bIAqLyA21weOV/ayIWFBQWSvvvuu0p/Ii+3BPDuBBpvvp7UkUQCy4tUecG4WUooe5yUf3V1le9973vK7Iu3335bWYxT0ssek90LeJa+T+RxZEaJ9L/SVz8sDM9edy/2AmClL5R62dyPSPnlZbJIG4kNZBNQLs8aJSUlim9J/cmirLIIqdSVPIPIfxJtfDc/F9ArEclyHfHNnW5yTXlZLfnL+omAT7vdrvwui6Hu9FpynMx6kbJt96O9sOfDXkMFuU+oQb5Xo62C3IMLcrXK1PEEwWArra3zNFaeoiI0TXe0hKFCL1XpAYpLl6gMT9Eb72a1uoraYGBTtGv2wW43INeH1lBOsniOzqbLjFWINm0ZZf4kBZ5Cou5CUoUTVFfdYLbiLiBXZ0CrF93NGG5PNYloB9XJMdrKTjNUe4GFtneYrepmImInYTPcsdhZV/UZTpWU0hJtoCA4SFv1OcablxmJx6lz6hR5hHv58u1Ia4MZg8GGyejDHx1RFkKbrexkLFFAyGTCoJGI3A2w3t7+HoPlXfRFo6T9G+WTMsoW8xQRc/mJ2G1YDZLXDXveH+Tq0IoNtPo7o7l1NvJ1KfyBftqar9Bf0UO/+wTJUCPuwhWGK/uYK0tTZLNg3RZRmU1b9o8D5Lo8rdTWv01v7TzjhQnqg3HFJlnbbOwjxGQqkSUnrbE5nzv9rILccToKfCR1eXdZsXgD5HoSg9Suf5OB1bPMd6ZoySQpKCrdusULKIy48DrvrI+HAbnxjhU6b3yH8ekhRpsKqShLbU2vqJR4QZBYwIrVcueCbgJyI1M/uAVyIzuWVnjiIDfcSImikXuWxVbbjqQVdurr6nHZPmlv9806nRLFJNFMjzKQFoj7f8+c4X9897sKsP3fV69CX58Smfs/P/6Y//zXf70vIFfgs+RdNBKL9uEZUQYl2YjRvdDFfZgBgAzgRVdVQKjop8qCZjKQl+ilnp4eBUAKTJVNIKUMxkX/VbRcZeq/7D///HMlOkgGbg+Th83nSNSR2EUW+ZKp/xINLBHAAill8Cb/ZY+XwZnIRwh0luhPKYOURe7n7DHZ/X6A3EAgoEQNC5yQxdgEfkgeBI5mo8ZkgPu4NrGNDPgl7Wy5s/vNIFcif0VaQiQPBLqKbfZyk6g7kZUQsK2C3L1tU/errzoIIFckFfp1OmUWhGiUP0k5hbv1V9IfCFgWvXeBuSX70CfspH7vBriy9/nD7gUeClwVeCuLSYoEi7StArge9prZ8wSCynVkhkX2ZaAAY4Gk2WN2s5d2P6v/Lprpkm+ZgSEwdvt1pB+RGSYCP6W/kkUoZbaESEhsPlZsKhGucj1pt6Q/+fVf/3UlmreyslIBi5uPf9BnibaV6Nn19XUECguw3H5OKBRCpIIkHZmFIfYWmCkQc/ux8nKut7dX6YNl9oXYUc6927Hbz93v7yJDIXBWopiz/YhEGkv5s88LWd16eaEpC5AKvJaXsyLpJDNJ5LlD6kfsLlr2Ip10N0gdjUZZWlpSnkvEB3a6icTUJ598okRAZ/tH8UsBx/JSU/Kz02vJcR988IFSNgH1+23fnV5fBblPqEG+V6OtgtzHAXIdyPToWOEULS036C8up8N7Ar8pF+llFmmF4uuKRu5a6YYmq05jIj8/iM/fSG3jKk3VqzQnZumLpuiLOilJDVJYukJ9YoGRZDdr6SJqfHdOcd6IejWwo8XOdDE05lbK0wsMt60wkKigwe0mYHFgN8lCYA784X5KKt9jsqLvzohcxb916A02DCY/LkchIW+aeKCW8qJxmmrfZaxqjNWSGBVuB3qNHq3GhsNZTUnVNToy88pibxlvGLstTVFynuaa80ymG+iNBgkY9bejcmVqvU7vx+2OE/TFCJjNOPXZKeU6NDozZn8P0eJ1pjP9zPzzw1HcYsGicaDNj9+WuhgorafLbyZikwXd7MpmNXtwWIN4LE78t2UHdgJy7/cwvbGYksvbRHnNO/RUjDIXc1KT7Keg9DLDZc2MFwaJWEz3jMaV+3gnIHdDdiBKKDxEY9sn9JY20O87sUVaQW90YrAn8TuiJF0OXCbTrQXEgjjdrWTqRCN3gtGIg3K3dZNtnNgtAZxWL36LFYfReBtyb29nNHoDIotgMJgwGTamn28/Rqvd0GQtaFul9e2fZ3SglsHUm1s0crU2P4ZQJaFojFTUgVNeAiiLchXgS49Td/m7DEyPMF3+KilfLurY4CvF3nZjQ1phIUN7RWDPpBVa1r9gcqCcvjLNFo1cU/EA/qHPbkkrFFMYsN1RnzuPyJUI6RjuwgGq1z6jf2mJ2QY71YU2bA6nstmdXuzeCG6vn4DHtmGbbf1MvnVDIzfRv8pZRSO3/AEaucUUtK/Seu1LRkdaGKwwEwtsStPtx+6L4vV68DtNmE13glxLcR+Bsa8Ym57m7HARqbDjDjts+MJWjdzO05c51eGloTDXPuotHqw1y5SMXufcfCfjrQXYBR5rvOj0aRL9F+m49DHj3Sm6Em9s0cg1Fw8RGJaIvjHODhZRGLDeIx8bsiL2SAcVS5/Su7jCXIOZTCTnT3f67v3ud/W//baXzDyRCNYpg0HRmX1Ubdx/zGSgtVXRw/0/ly5BezuyyBkDA/yvmzf5z3/5l/sCcmUwLzDhO+GwEiXm12rv4aO78ykBewLdZPAog4rHHYkrUSQSTSKDS5lGKoMrGUwJlJWIW5mK2t7erkR2yuBbBvWyCbCtrq5WBsIyPVa+y+8CUiUCU7RvRVZAIlYkeigLqXc6EJHjJMpWBnHZyCOJ6hQoKFBZ/tusqyiDqFOnTvHjH/+Yf//v/72i8SuQWQbIctxmu+4HyJUoM7GBwEoBuZ9++un/z957v9eRnHe+/lP2Z0scJuD0CTg5IOecMwEQTCABECRBgCQIEiRBMAyHQ86QEzWjCbKkkaU7sqS7smXr2pIerWxrvbuevdY6yd7rR5Yl2bJHsrXfq0+DRTQPD0CEcwBwpn+op0/oUF1VXW+/n/rWW3a5ZXJA11IGudjXCXKBBqaumaYLvMlmwjkn9AYhHFyQu7a+Idd983Ln32qQW2RZ6rQsPReL6atVVfZCY5lg6nb4jUU7iZlL+AfsHIthLleuufg9myCXAUT6SqAqYJAZGPSl9LuANsIrAOWcCdgItFvtwB3ADJvAYBzAjoEvFmZEqbmWvo5BR+wKs0DoV4wyFRhHmQCy0s/HrAMAIX0RfRLhZLAbnMu5L2UA4L19+7YNcwGKnJ8Y4tgiBrwIO+GM7e48Pv0zqlFsEQNm2EeAcvo+lDmqWv7HfgAUsbuZ7AflBwxlsJAQPoBHYshjE9PPu9rv3DNxeVHKEufdWcfLfWagFAWtUzVMnRATnnIydgS7+MUvflFf+9rXbFBNvkkMzhpoS5z2Dz74wIa3lLVJAG2uj9I6/V6A+FyHNkQdYcfM+0mmLQPQ1D/XZKCadmeAP+8nvD/wO+ehTZG/TOfhd+A5+wD6eU9CQc07QHoet+q7C3LTHOxcdL5rOacLcjcGcqtrp3RmZE6jTd3qsvJV/FgMV8uO5cnCUxXV0xocelPHm7t1rDhfxUGPvHa8Xq/ChQMqbnl9cbGzpio1xaN2vFKPJ6ZEUb/a+5/XUO8tjbVd1PGqOh0uCqumdlxVzTc03LKgMy3HdK2xTL2pxxdWWgvI9fjrZUWPqq/zvKYPTOlgSZmafKzAzgsEsYW9SpSOqaHjU5pqfxzkMq3D612KK8wUpsUp914VxNsVr39eh9rP6W5Pp3qLi1TgIdTBUmiFw50zmq0OqS3uk8cXUaj0uOpantP5fVOaaetSU6hAyQdl7PEWK1DQpvr6EfW1HlJPKqGaQJ4do9IuVxZCSx5Usu6qpnsmNNvaoYZgSNH8sCxPub343JBZfK7w0frw+mMKhCuVDCVtQByy48cuviivrMhd+WXa47EUjrWqsuW+DrfP6lZznY52XlR792uaaOrRWFlAhUHKefnzLIHcc3p+6LBGKqtUmJ+f9pLHQmAlKi2fUP/w5zTeckAnSi1VhpfaXCBco0j5KXVUD2myplJ1sah89mJnRYolB9XV95JGuqY0Ve5TazTfrkfK1Y6tGyyyYW5pKKz4siDXK28gLG+0WKFITImQd5kF3Fh8rkqV+69q8O7v6PSJQZ1s26OyWL49TYg2FSjrVHjfTQ0cOKzT+ytUXRTS4kBHmVKtp9Tz7Fc0fm5KF/r2qLkk7+FxBaVtSh79lA6cuamXZlo13FYoyxdUNmLk7n/2Pc2c6tFEZ4EKIz77mpbXq3DbKVVOfcEGuVfHa23Fanp97o10q6Duog5du6aZW1M6XFOoBm+muMiLoS7iNcfUufCeRi/M6WK/pY7yvQ/v0ecPyR+rsGFuWWFEicjjYB2Qu6vmnOrHrunmK7M6daRdjfn5SmV0DAg9Um8vPrf/7vv24nMTLbtVFgPEU/9e+UJJ+VN1SqUKVZYMKlzweJstaDim5MR7mjx/Xrem29VamXh80cgHAz/5+UmFi/ep6dxbOnr1BV0+Vq6hBv/S9SIpxffdUPv067p+/pAm91cqHET5npDHV6/qY8/pwK3f0vT4UqgL8vmwPqZ/WzNnT+nqaJWqS5Ziej9aL5R1nWLV4+q59o7Gr1zSmW6/Okp2r/g8co7FGLmLAxXEyl1vmJFH87N8H+Dut1g2UY9Hg5alW9GoHWc2F873X3d0SL9e5CrXIJe8s3I5C90AGrLRhoC464Gc63UQcNaBmkwpJJQC6h6cX+Ig4pygekWFhXIJ5xOlKfnjejg+xrFh/0QiYYcuwIEErhKuACcJ55/z4JSiqEE9hCOG8olrcm0nWE2/F5NHrg1Y5pwARxZgW85hQoWFM4xjRxxdlKYoqpimSRk7F6vJNsjlXgDhOIFAAhxxnFkgPQ6yuT/2Ix8kHK1cJM7NdVZSdTtBLnklFESuE9dxQe7TYS+2GuS2W5ZmCwrs0AUbCcPzQWurSP/vCon/WTRzI3bpvzQ06E48rv0ejzY7xEI2QS59B30lA3QoDVlkkb4UWEgfjH0w/T9bgBZ9HgN3DLiZfm6lbbZALn0r/TigD1sD+MNmASEzXZ/+kNjp9M/YEqAeIDLdNnAs/Se2iinz2BugI8cR1octg4nMYGCQkH0zXc/5G3CUQTJgI+WJHXX+z+fVglzuA7CJbeWeOadRFnMv2NbVJqedYEAXu0DIIlTB1O2TEgAV4OyMw85nZusAOI1t4Z6XS7wrkLDX3A82gno0sBdgTT0TBiG9zLC5wGLaJecAzpvjMm2pc95tqEPCa2CjjX1m9gqhLYC45IP808YznYfY91wT+Mx9sR9xlwHL6Xncqu8uyF0B0GyFc+aC3HWCXG9SeYFeVVSd1okjtzTRcVBHEmHVhiMKF0QULAgpxBR/2yFDiRlVqnxcLd2v62TnhM421qstVayiSLFi0UbV1JzUvoE3dbJtRGer4qq1YQxwJKBYqlt1Xfc03H9bM/2zNsjdF4+ouGJMFU03dLzntmY7RzVXG1VHcikEwFJ7WkNoBW+VrOCwrcg9ceiaTjR2aX9hocrCScUjVUokutTceEGHBl7TXNdRhyJ38RrhWIOKq06pvapfgxXVqo0XKhWMKxosUnHJsOrb72u866xudzSpuzAhn8f7qCL3Achtj3PvBfJFulVcflojfVc12TOhkbKUmsKL6j+PlVCgoFE1DdMa6JnTOHktLVdFOKlUqEjRaK3Ka6fV1fW8ZruO6Ex9rSqDQRV4ADYxFZZPqLXnUw/qo8FeiK0ojBK3SuWlA2puntG+6g4NFYZU7FAcbgTkAsL9kSZFqxc00HpFt3vGdHbgqg4P3tJYTZOG4pYSfueoO+Xgld8fUkGAdhVRMNaoYMUF9bTN6vb+UY1WN6rcH1YiEFIwEFTA65XfQrEaUbz4kOq739JY55QutrSop7hUpeEixSPVKis7qPaOZzXSclRnq1JqjAZleVhAKqJwrEM1rXd0oPuSrrR16kB5hUrDcSXCZUom2lRXe1zddYd0oLRQjdHHwaHHF1Z+oFbJukPqmLisgyfHNXG0VS2VycUYzo/0g9RHXMmes2q+8n9p+sKMLh1vVXdDqUqLyhQraVZl/5S6L72jEydHdW4wqZoi1MPkNaZo7WHVnP9tjV28oVtnujTcWanSohIlS5pV1nVCPZfe1YmL87pxtFR9NcGsgdwDz7+vufkzOj/aqvaaEpUWVSpW2qH6kWvaf/OLunBuVLP7C1VZWPAYCMwLtitQcUaDV+7ozN0FndzXoN7SiBKxmCKRmMKRsEIBvwJen4iVHaoYUPXUuzp88Xk9O9OnI73VKitMKVlUpcKafjUcnFHvkXGNdBWpuSxDfQRLtbt8UrVHr2v+U7c0ffqQ9hclVJNMKBqLKRYO2TDWD/y0qI+ECnvPq3X+fU1dOKuL483qqi9VSWGJ4kUNKm8/qraJ6xoa6tWBpqBK4o8rcq3y/SoYeEXHLl7V9YWjGmwsUZlvrwrsBQedTuejitzRW2/p+qURnRhuUE1xUsXFdUrWDqt16mUdu/qaFiZ7NNYZewCPQ7K8xSoemlfn5c/q/OwpnTvWrOaqEhUXV9n10TCyoOGb72lm6rDO9sdUkbGPtESbzYv1K9V5QUdv39fpuUmN1vrVEHXE6n2k3S7eA4MzJcl8dVXv1WjVbo2V7FZ1QZ49sJINGLfUjzvLzP1MubAw2AnL0quplL5TX78hh3k5Z3szQe7v19TYTvthy8oQZmX1dZ6uxMX5yvVLv1kZm/hwqGWZPooKCMcLxxDnBnUJi2SdPHnSVpjgHJrph5lALs4/iiagLvFxcQTfe+892wHifDhCTGUkHiH/cV7iEuLcpk9pNfdPPgmdQIxCQAHOKqowVGIooWhXZl+zxSFDIYVCi2v+4Ac/sJ1CrotizMBo9s8myOW8KHFQIOOEAglwYMkH90H5mDyiVjp9+rS9L0rnXCRgBQ45MQrNddO3TpCLI4pDipNLuaHGzmYyDi+OugtyV98/bKVN2SqQiy1G0Trl89kqV9Suy/X5q/ldw8P61a9jRf/7/fv6xauvPpZ++dJL0tGjYpbHD9ra1n0tQix8pbLSVhATYoFZKLl+rzD2I11Nmv6sr+U7kBU4hhKV/gDgRSgbVIw8x4A9fgfqop4EeNHHo7pHPbqaa2UL5BJGgJkgQFXySf6AeoQ+SM8H10RtCqgD+BGOAFjJvWI30mEssBSlJgOU2BvUroQAANhxPPeOnUSZy2wWzp9+Tef3bIFccx8ASMrewE8Ur8RgJ3wBat/VJuwWalrsFAOhqGsZgi3ACgAAIABJREFUvMXWUu9PSpQ5amAUwuZ+00Eu58KG847BewHgF/hOQuHNILJJ5Jv3EgA7MY9JnC8ejz9iv821nCAXe4/K2xyXaYttZDB4JZBL+8ZOfelLX7JnKGU6D/kF5KOwpg5ckLv97NpvbKUBzXRtF+SuF+RGle9tUmnZcR0cflEnek7rdE2jekobVJWqU2WqWmWxIqUC/kU1q8encGpI5Y3Pa7T7guZ6xnWoplsdpT1qKB9Vf+sFnT7wok429+twyq9yhyoznOxSectLOrDveS0cPGeD3M5QVPHiUZU33NTU0D1d7B7VuUqfWmP5j0EjQKDHs8rQClaRPL42NTRe0JH9dzXdNa4TDV1qL2lTQ9mAGmsmNdR5U6f2v6yF3mNpIDegWOGQqjte07Hui5rrOqgD1R1qKW5WXVGXWmtPaH/vSzrdeVJXGsrVlgjLuyzI5eElPEKZwvEBdXTe0mj/Jc021WiwOGLDIK8Vkj9QpbK6GfX3PKezvSd1qnlAvaUtainpUV35Ie1rn9fxfc/qfGu/RstTSvn98npQSfsVLtyviqY7Gu+ee1gf7YC4smF1N89odPhlnWgZ0vHSkCpDS4B8YyDXkidYLatoWl3NC3pu+FnNH76hM8MXdaS8Sm2BvYr6nB0XgwBhBcNlSiUbVF7YoMqyQVXWX9XB7qt6fnhKky1DakvVqS5Vo/JEqYqDAUV9+bbaO5ToUbLhro50XdZ8/ykdretXV2mHGssOqrtpRmODL+hU+1FNloVUa8cspmwsodZNVl9Wf/s1LQxMa6J5v7pKmtVc1q/m6uM60PusJnrOarK6RJ2JDODQl1BeeEjlA9d1/LWvaOFTL+nlu8c00lml8sfUw4vtM9hwTCUTb2niynO6dvWcjh0cUnfXkJp6Tmrf6ec0+dLndXbqiE53BlWZegDzPZYKyrqVOPKaDsy+oNu3Lmpi7LB6u/rU3HtC3WPXdOr2m5qendJUZ0jNxZ6sgdyDd7+iy7duan5mXIf39aqz+4Dq+mZ04Px9nbv/GZ0/OaDxVr9Kos76XPyc76tTQeGYumZe1MSd+zp38qBG97WqsbFFtQ2NqqmvUVkqqoQ/3x4MChQ1KzF8R/3n7uvmc5c0dRLVfKdau46o7cCsjsx/SqcuX9X54XL1Vmeoj0CR9qRGVHlgQdOvvKKzc+d0qrdT/R0dqm9qUkNVkcoLgwr6KdfF+gg1jql84h2dvHJLC/PTOnZwUF2d/WrsGlffyZs6/sJ7mj49osmupfpw2pj8ZKfyG65ocPam5u7OabyvXh1xr2L+dEfkUZA7dufzuvnsJZ2fPKrBzg6194yq9eC8ji28oZlnb2v2SJ2G6vwKBhb7CBTWobbTqj35pqbnb+ryxdM6ONivju5Dauif0YGZuzr74uuaHuvVkXqfiiPA6rQ68QZkBQvlqzmpyiO3dOb5eZ09M6x++mLfyqEVPJZPbVV7dW5gl17veUavNuxQT2SvYpvgcD12H+n39RH/XmpZulBQYDvmKJdW44CvdZ/NBLl/WFdnx8kFNjy6YGlae12hXnEQAaS5VuICEXHSdu3aZSvnUd/i/OAA41ThgADxUKnglKHCwkFBXZVpmubk5KTtAOMEo5RJn04LjEZZxBRW4sYZCIuii2sYpx+V7ezsrA1zcSQpCwMkUJgBhYG45AdnEqcVuEgsRWAteeO54liTcNRx7skjDpaZQss9ck9mERycwGyBXAAA1wRwo0rjHoG4JPJhHE6zpeyZokzeAAK5SAAGwAP1YK6bvnWCXPIAxAdUoGYGlmczoURDwUQ9uiB39X3EVtqNrQK5EY/HXuCM2RvYivWG4fmr9nYbzv773bv62Z/9mZ1++l//q5yJWOo//uEP9eGbb0qHD+uf+/qEHUGhu1b7w/7AXBY/G7UsFWZptsZybSAX9gNbwQwpppcDZulz6afoT4BwzLYg0SdjK1DBMmiFCpL/nYpcQCiDf9ge+nNnIu/MkgAYciw2gmsC7Jz7mc+AVtSFpg/j3HxncTBsDOcAphFShxismfo9bAbQEpvFzAPsEf0wA5rmvCttsR1AUuKqGoBNX0bMW+L9Yl9XOj5bIJf6aW1ttWe5GDsDlKQMGSxda2KwkRju2F8GBhjwJK47dgy7wBYQC9x0JtSqDAACTwHpAGBz/+kgl3phYIAwFgBQQC3hOEjrXeDOXMsJchlcQElu/su0pR6xRyuBXN4XSAyyZnoH4rzpZcX+riJ3e9k2F+Su4IAsZ1hy+Xu+f50g1woIRWg00aO65gUd7L6p2f55ne27qun+KzrTP6PxliH1xcOq8jMt3St/sFrh5AG1N57VsZ6rOtU7r+neeU31zWu6e1rT7Qc0UFqh6oClqK2MW2y8hCRINtzRcN9N3Tp8WmMVtWryhRWOH1Bp3bxOD7+o8z2jOlViqSm8UZBbIK8vpWTJYTU2X7HzeXbfVZ3tu6yprjM62T6iw52XNdR5Txc7Rhwgl7x65Q/XK1JyQl3NF3Rq3zVN9V/Tmd4FnelbPMdZFMWNvRpKBVQWNNDo8dAK7fHF81nesALhOhXWXFBvx1Vd6j+qsdp6VXk9itjT/GMKJ3pVXnVCwx0XdaJ3XqcflCnXPNM7o8n2oxouq1BjOKDwQzWgV75gjSKpg2pvPKfR3uua7F2w62Kq57JdH6c7RzRUUaO6kFcx3xL82TDI9ZUoP3RQjfWXNXPkU5o/clXzg6PaX1ymSm96iISYvN4qVVSOqbf7uo73XdP0vlua3v+qLh16TXeP3tfC8HOa7VvQ2b6LOtF+TAeKU2oILiofvQXlCiSG1FQ3pSO9CzrRc1XTvQ9Sz4ymOkd1sKpRzWGfEv6lztLnTyoQ61VV1YQOdV/TxIOysdtrz6ymuk5opL5LbfGwSgJLZfPwWfUmtDfUq9K+Kxp56cu69PId3bt1SIfay1XyGMhdrGtfokmhhgl1jC9obP5FTV19UTMLD9L8gmbnJnW4r0EtKa/ijoEOb6RC/sojajh4SaPz9zXpPO7KdVuleWx/u5pTfhUGrayB3P23f0dnL1zS7JlJjc3e1PEr93Tuxmu6eOOm5q5M6XBPjZqTlqI2cFwqW8rI443LF2lQ2dCcei68rulr93Xpxn3NXr+n89dv6vzCRR3rrVd7fLfiAY+8oWL5y4dVNTSrI5fvaXJhcd+ZhRc0M/+sZubOafzoPnVVhlUWefRa9vV8EeUV1CnZekJdc69r4sbrmr95X3M37+vC/A3NnRrQ0a5iR1gGr7zJRoXrJ9R5/LrGF+5r+to9nb/2os4t3NHMlXnNXJjUod4GNaW8SmQIreAJlMqK96tx7LqO3npNM9NHNdFXqep4QJFHwg88CnJHbn5Gc+emdO7ceR29cFen5l/S+Zsva+76vA3yB+tTqolZCpgBD0K5pNoUaz2pnlM3NXH1ns6YdrPwos5fmtO56SMabClXdcRS6BHF+4OyChTLX9ijqiO3tH/uvi7NHdXJ4VpVhH12Xh+263T75fXK4/NpoGGPXjjyjH6re4deqX5GraG9tqIy18qZZfOVns+P6HfiBt6IRPTlykr9SWPjupzkJznWmwlyWfCMOLnA6fXEQzRKKhzVXMfExUHDscV5Qv1CmAOccaAoDjCOGHCVKZKoZXHCiOcHHDVTDp0OEUoZICwJ5zt9cRWcbJxapkGyEAnA1MSw41rAARJOFzAYp4rFsFDpsj/XwlHFQcbRxmHEoWQLUOBcOISAaO4HZ8tAR/5D5cO9sD+qK5xNpgdzzyjGUPZwjWyAXO4VhRT5RsHMlEym3hoHOxPIBaAC0Ik9iYOci/SFLzx5FXgnyMWpBeLi1FP2xIzMZkL1TWxEAIgLch+3+9vRPmwVyK3xeHTK69VbxcUbWtzsV4ODYhHMn3/96/rn731P//HsszasBdia9MvXXtNPPvhAP/3ud/WvX/mKrdzVwYM2zH2Svcn0PyEgWJQNW0coofXYhtW0hVzZDxSZzIIAjvKcMguCON/AMVSpQE8SCkX6bfpY+g4gLv03dsPYCtSsDKzRjwA6AW4mAXHpw4GiXINp9MwKob80+5gt12XwkXs2qlkGCwFs5IsBO6AsiXMw4yETVMUe0efTzwFyuS73AGA1eV5pi63mHOQdVS95p58FfAKJzYyV5c6RLZCLLUd1SsggY2ewcdhU+te1JsqMe8Lep8NJbBPQHjhu6sNssbvA89WAXGw5IZIYnKUMeWdgtgiJcAbLldlqfic/JrSCC3L/0yNl6YZW2GYO1cddkevxlSgv1K+6moM60nNY3UVlqrLSYVrmFySUi/5QpWIlx9RSf1bHuuZ1CkjmALn9icgDkGvJ8kZkBSpUUnJArY1ndLDjgk50z2qy64zGmgd1sKJcNZGIQmlKLl+4WqGySXU0TWi6a7/6CktVZoUUDLUpVTqq/Z1ndbihT/viHpUHMqvHyGs02WmHYuiv6dNISUTlDpXpI0be61cg0qhE0RF1Np3VSNecTvVc1ImO4xpv6lBv3Ygaqs7qSE2PjlYUqyQUfKhw8/gS8gQbVV5+RP2tszrWfUWTvVc01XtJpzsnNQHcLqu087moPEX9F1I40qiqhvPqrj+kw6VB1UaWpmrbUDE5rOrqCY11HNZwZZ2qfPmKESvX6xfAKBLvUH31cfW3zWis+7JO9cxpqvucjrcc0HBlverCYcW8i3Fezb0Sg5f6KC49oNamczrceUkT3XM63bV43KGqKtXHIgpbjx5XEKlXsvKcemoOarK61I4ta865mi0QL9/XorKyY9rfd03j3WM62dyu5ng8g4ovJsuqfgByry2C3L4FTT+WrmraCXJDexbj0XojyveXKFm8T431Uxpuu6iJrks6Zd/jER2pqVdzIqGo5Umbylsgj7dQsUSnamtPa1/bBU30XNGp7vM62X5cI3Vt6ioqUmEgs3KMss0LNCjZeFRdZ2/p2LnTOnOiXZ01qQyhFRafL48vLitSo6L2Y2oZm9fhmec0eek5nbm0oMnJUY3ur1dTRVxRK++RvC6GcShXomFYTUevaPjMTU1evq0zl65pauqExvY3qaMmobj3wXRlb0B54VZFakfUd3JEw0c61RgJqbS8S8kDd9TZ26XDTQEVlXcoVn9Ug1PHtP9QuxqCfiXzo7J8taoeeU5Dt76k05MTmhob1vDUVR2ZvaUzV27q9NS4Rg82qbk8brc5v9cZKsP0JV4RhzlUc0AVg5d04MxtnZp/QeeuvbgIcudnHwG5qE7zA2WK1QyoduSyhs48q8n5O5q+fEPTM2c1PtKjvpYSFQV9y7zko+yOK1jSoeL9c+o7fUunF17UuWv3NHvlui6cGNBId4kD5BJqIC4rWqeSzjG1H1/QsdnnNXWFcr2qycljGttf96A+0tuOucfFsAdFXVNqm7qvyblLOnsalW2TGstSKgx7HkBVBgJiKkg2qerQZXVNXNHhwUEdGhnXwNnbGrt4y77mqRMHdLCnWlXxoN1elyApMDUhf7JJZb2n1D2xoNELz+n05Wd1bu6KTowP61B3mWoLWejwUTWwtyAqb7xK8Zoh1fad1fDMbVvZPH2kSQMNMYX93hWnMXr8lvJDXh1r3a3fOvYJfab9k3quZKdqg5kG1Ey5uNvV9JOr2afasvRiIqHfra62VUuZnOCN/raZIPd7jY32AjxXw+FlnuPl247TCcfZBQauxmFZ7z44aKhlUKSiusQ5Q0mFw4czi+IGoAskZbomjvNKCacO556EoooQCSvtDzxllW6j8MLhRAHMlnyQUPSw8rRRRxH/D3UreTTOKvszJZLzkFcUSKg8gac4cCjEuA9zXu7LqIBxdFHMAHxx/CjLbIBcHCWcU6aDkiegBtcyec4EclEgUYbAa8BzLhLnB56sNrQC+QZqAFwpHxYdymYiP6iyaG8uyF2+b1hNX7pZ+2wVyO3zem1bwQJnG7EJLIb54bvv6sP33tMv3nhD/zEw8Nj5ALoffvaz+tmf/ql+/Dd/o59/4xv61bVrtpJ3vdcmdBALn50PBBTNAUfIpf1gQIrBHPpjIC19LTMNTEgaQCrtjz4CiIktod+lLwPUMWho7BQhcxgUZPFMM+BmwsjQD2M/gJH00ah+AbIMDpp9zBa7QF9NLFoTogZoCtAkr4SCYaAPO4LalnvI1HcxAEk+uSYgF9sCgKbvzrT/cr8BPSkTrgXMJW/p+xJqIRQK2epiUx4bBbncM+VL/F9sDWVPv82AIKEN1puY9UJcV9pVOshdSWVKuXH91YBcwk+Ycsj21gW5j8JbZ/m6IDcHHfBGDPDHHeRaTKn1xRUKJZSMxhUNLCphliDBE16OvEH5AwmFQ8VKRUtVGCtVUbRURbFiFYbjivt9Cj5cAA1gwYhR3N4/GSlVYbREhdHFfRMFAbGoFtd+5PreoLwFhYqGC1UcjSseCKrAYnGliAIFSSUixUqEovaU5YKM0GjxHvz+qApC5YqFYkoWeJcUbY+1Sa8sH2ELEvaCVslIiYpiJSqMpJQMRxQLJhUKFisZjCoZLJDfsRCYDVZ9jIwlFQsXKxkte1AeJSqKFtllEisI2mXCokCLbdcrr4/wASWKhpJKBLwK+R0qTxR3/qSCoZQKIwnFgyH7+MUyWixT7i0YTCkWWawH8ltsyjUYzlyu9uJtBQoULNZfwq6LpePiBQUZj/P6gvIHSxQJxlUcXNxnbc9gwIb6gUBS8ViZUtGUioit7Pc/XvcW0+RDi+UZLVMqVq7iaOa0WEdJe/ExlMcPy8cbkD9AGy9U3C6fB20uklAyFF7muiwUFRDlGgoV2+VK27bbaiSlRCisSCDwIAZ0pmeE48Pyh5OKFlcoWVykosKwoqFM9/jgeK9/sd1FUgqnSpUsrlBhaYWKSstUSDzYRFjhggzPx4N69IcTCiVLFS8uf3hcUVGhfdyj1wX8RewFu6KFSSWSEYV8XhUUROVPVCgajSoRthQoiMgfTilemFI8EVHQa8nviS2B3Juf19R4t8Y6wyovL1OihEGBcplrZs6ro6xo18G4CuIldp6LyipVXFal4vIKlZSVKBkLKeL3yG+ryBfbuS8Ys+8xVlQu9qdsioqLVZiMKRoO2M/0I33Hw2eb4wPyBSIqiJfKHG9fr6xMpYUxJaM8y48+d3Y/EEkpkipTqqRCRWVL9ZGKE1c3U32Ye3zwbMYbFW8YVefpuxq79qrmrt/Q1PigBivzVBE1A09e+fxhhZJlilD38bgSiZTixRVKlZQt3mdRUsloUAW+DHCVtuMPKxB15JWyKS1VYSpu31so8HhefYWtCrRdVNfkizr77GuauzSl6WMdaq+Mqzjke1D25n4e33qClvJSXp3q3K2vHv2EXqnboanQbpX7XJC7tj7x8bJdzfE1v45n+koqJUISrHeq7JMc680GuV+vrtb1SGRNINdMh90MJa55oTcgF5hqFLHANBSqwFKmu6MixaFGmQssXSmxD+ch4UziSK+0P2ornGZUsUzDxfHHgUY1ixPK+XCIUYIybZR843QT8498GijKsTiOnMcAWr6jCuI38sK5ALtMAeW6gGucUaAugBf4i3IMeJ4NkEsoCEA1KmAgshPiku9MIJdjqBMcfdRJuUicH6WTWY3btAXn1qnIpWwpNwAOK4tT9tlM1DXlQ325IHd9fehq+tls7rNVIHf817Mc36+o2HAs9Z/09kpjY9LgoPhMqIV0G/LDzk79W3+/DXt//A//oJ/+z/+pD99+294/fd/Vfse+YecYuCQ2fDbrJNf2g3A4PKsmXjYAlgEhMzMDMGSm3tOP8yzTT7DIJf0N/5s+hj7IxJWlP6Z/Nglwi/2g36bPxP4AYoHHZh+zxbYAeLEJRvVKuAZUwSy2yX7GNmCLUNxm6ruwOfzPvZnQCvR5AORM+y/3G3FTmV0AEMaeAFDT92XhMeKgA3RNeWwU5AJxAa4MyDIghj3D3gGzUSGvNxlbQdm6IHdxsTPeGUgMJrihFbLbh2WzP3zSudzQClk2QE8qcPf/p/dhcevOrbvt1wYcIPfZz2p6tEVHm3YrETKDEm6dPVpnDAol5IvVq6RrQm2jlzV6bl5HjwxqsHqvKuN7suqQPHrtJ9eFv6hFBZ0X1Tk6p5NnZjR6sFN9jSkVR/yrWlTEF/UoUOHR+a5d+v2Dv6nr5TvV59uj5MPBuyfnYa15dvdfKtM6y7JjyhKSYCMrkK/kTG8myMVZ/1ZdnW7HYgqv8l0pXUllpokaRy9XW6aZogIFYLLICECXqaHEqmNxLhxhHFvjDANJs5mAqCimDORE5YUyitAIKDXJA+oeplvioFMOrBRO/FycZIABQPab3/ymDRoJt4BTzhZnGocLB519CW/AvXFu1MWcA2eMfQAHKHhRnQJTgQ/AbO4fpxiHHvAKZCcPqL9QCKMI4/xASBxnvgM2OAcQ9vr16/Z5ARFmRXMTXuFJIJf4wrlIOOdmsGC5duUEudSNAQNAF+PIZmtrlNJAdxfkLvWL29lGbDbIJQyBiaWejQE/7AEAl+1KdoMFzn758su2Ivef/vZv9a9f+pIdK3elY570H/bh7eJidVqWEqu0D09qC7m0HwygoZ4lNioDe4Skoa9jtgCLQwFvWcSSLQtH0h9iIwCK9KH0ufyHOpI+k7wiPiNUD/09fSeDeShJScBizkHfawbigKqE+zH7EHbHwF0GHLFXBuQSzobvQFXgL/0XNoY8cZ1MyYBj0zdzXfYH7GbafyO/MfsA1TFhKkz/u1GQy8CficNO/WAXUTUzAApAJyyGEfwR6mE97xdPO8iljrH3DK4ulyhD2pmx57wnmIEKBiNoy5QtbZN3CtTEmc7F7wB76pq2hK10Y+RuL9vmgtwsGZ8nGSf3/+3V8N36cOvjo9EGHgW5Z8ZadKx5j5JhF+QuX7+os/3y+iMKJqoVrx9WeX2zWsv2qii6d0tBri9ZoYKmg6qsa1RLeUyF0QJb8bs0W2Dl5zacsFTckK/r3bv0h32/qemiXSr1rC40z/LltfI13eOWyqfBsvSZkpINxTx8kvO8mSDX5OXVVEqRVb4roagxC5vlOpyCcR7Z4tABJXEEcdbZ4gjjvOB441AbiIvz6lzQJBufgXg4zMaBZgr/2NiYDZeBoSYvxD005bJ79257Ki2rcL/zzju2CgmHi4XOzGIpqMeYFkrMXxJQuL293VaGcU7OTWIKLtck/ALgl9iMgAsWrtkIyOUcqNWIdwtEwLkGgqA2A0Asp8jlOPKJogyYnItEvQLGDZR2tgfz2QW5j09Jpf3xjLp9t6XNBrmoV4kreyceF6FrTB+73u2ft7TYi5axXekcgNx/v31bP/0f/0P/9Hd/p59/5Sv6l76+FY9Z6XzmPxY9YzHMhgeLMm60TeXSfgADUbdiC4CigCkGdpjVAFBlEI2EAhV4i71g8I9BOmwEYIz/AK70xSwqlg5yibWKQpfEYBqgE1BmBpCIc4ra1OzDABnXB9Smg1z6NUAaA3rAO/pa8kMi/8sls89q91/uPE/6nQFDVMQoaE1/u1GQS6xhwC02mutTdgzOEj8Ye8eCZQMDA/ZMEwZCTRgKc/3VbJ92kEu5AGixv8slMzNoJZDLuwL/887C/pnOxe/sg+2nXbkgd+l9f6N9XbaOd0HuKp2TbBW4e57t9xC4deLWydPbBlyQu/6688obiNjhKyKJlAqj+QoVbG0IAm8oJn9hlWLxpFLhtJAuq7BVqcJ8tbXv1Y2Onfpy8yd0JLHHVlJmDm/hPvfrbzuZy67Rsuy4gX/W3LxhB9k4yunbrQC5rxcWrgnk4oA6p5+uxrnK1j5cG4gI3DTnxNHEecchwUHE+SSmYTYTC52gqMUZwuEBfBIDl9WjTT7St4QEQGEEEEAJBnTEEQbKoi7GeQWA3rt3z16MBXUui7agCjOqLXNO7hmnH5UuABknF1jH542AXPKG4gyAgVMHJEZNhkMHnFgO5BLrkSnLgBMAcy4SZd7Z2WlDe1MO6VsnyMVhJe+o7YAs2ax/zkU8SWAP5eIqcjP3kdnuczd6vs0GuSyIedrn06cKC3O2IGa6zeA7IPc/ALn//b/bIPdfv/rVrIDcr1VV2aF3gNMbqQunEpe+jQGv9Gd5o9+Zlk9/SogAnlHsgbEJKGX/+I//2FYpMigHvAWYGfUr6kX2YQAL8Eqf2tbW9hjIxbbQ95HoOxmIY1E1jiPEDhCXBTnNPv39/XaflAnkUg7YApSSgF8G9JZLDAAChelnGWwzsA9wvNwxG/2deyOWLjDb1M16QS4Dl8TFZQDS9KHAdJSnwF1mXzAzhBALlDGhJShLBgqZ7WGuv5rt0w5yGWBASQtIXy7RXk37RnWeSZFLe2ZQlkECBipo97y/sDXn5ZngeJ4X2pQLcjfWz22kj1zuWBfkbtD4LFew7u/br7G7deLWyUevDcTk9VWr6tB1DSx8WpMjzTrc6IZW+OjV85OfXWJclRbma3/3Hs0379JrFTvVHdlahfHHrR5cRa5lL1SyFYrclRw4A3JxUnBYcEBxkrOZmGqLE43zuVqQu1Ke+Y/84eCiSuK8mZx9cw7CNcTjcdvZ5Tjz+0Zj5BKz8f3337edOxw8FGYkwC75WQ7kopYFPAPOcTxzkYCyAA5gh7nf9K0T5OLYEpYC55+V5rNZ/5zrwIEDduxdyskFuU+2WdvBPmw2yK3zeDQfCukLZWU5WxAzHeSi1v3L9nb9x/PP24rcH//wh7Yi95+zoMj9Rk2NHRd+bAO+tImJa+xG+jOcre8M7tHmgFrAWCAtSkMgFVCLPg1QRb9GX4FiF5BllLrYDo4BohFnm8U10xW5t27dejjjAgUpsJffUD8SaoEp7ywaZu6JgT7sxkp9u9l3pS2DggzmEbOW+2HQCpsBNF7puGz/tx6QiwIXQMtAGH06dppQEJTX6OioXZ6EA0CNy8wV/qPeKFNindPvUrcMHpvZLivdV65ALmWfDZuCytg5c4dALCcaAAAgAElEQVR7YXYLMfZpt5QPIZIYJF0uAboNgAXKEioJtTsD3TwDhFZgcJt2T3xmBjew16Ztczz1wkAAoT3Yh4FcIDs2lFlPK5XxZv5HvXNvm92Xbwf7RR5ckLsB47NdKtHNx9PxwujWk1tP2W8DLFQXVaS8RcUtfaqpiKs8kaegzw2tkP2y3v7tNxTyqKwoXy3JPPVE9qoosLUK449bHXxUY+QyDXi7x8hdyXEwIBdHBOcGJSeOSDYTIQyII4e6ZStALs4fzi6OmlPNtlGQi6oMlS/TfpniCwQl1i9O30ogF4ee2JMcByDJReL8g4OD9oKgy9W/E+SiVAOaoERDCZfN+udcACKmVgOvXZC7/e0l9mmznf9my7Jjjn+1qiqnIXicMPdvOzr0cxY7e/tt/dNf/7V+8r/+lz783Of0097eDc8cIc7vZ0tL7fAK67H3m6HENX0DwAfgR59BaARUi4BZ4BQx1enbAFzEuwWCArV4ppktQWKGgVHmbjeQS7zYnp4e+z6wc9gh+lxmb5j734ztekAu6mZgNzYF5TJqaBZaw6aWlJTY+QeQMvjGwKZZdJN7pJ8FOhJyiGtj/54UbiFXIJdYshu1KQwIs3gcCmQT05Z6A2ITggm4ik0l3MRK16K90paZfUK7Rb1MG6ecadPMsuH/mzdv2vH7maHCuRnA4B2Jdxli/BP/nncIwj0B2on1z/e1qqBz2fZckLvNQKYJYs0Dux6j4B7zdLw8ufXk1pPbBtw24LYBtw18lNpAjWXZ6qRsLGLjdMSdnzcztMKfNDbq69XV9tRZFulZbV0ZhRVOFQ7YehYkyeaLvwG5OCk46MA8nKJsJhbQQfkCGFgtyN25c6ftnPK+mykR5xcHCziICgnHFWeX6adMM810DA4g5U/ZU4YbBbnkAeUZTh8AHNUvDiRQdyWQy3444iiBcCJzkTg/6jYc8+XaixPkouICbgACyE82659zoZhi+jSKOBfkPh22bbNBbrtliZjjKFlztSCm017wGYirs2f189/9Xf347/9eP/vjP9YvX3pJ/9jTs2GQ+536er1fUaHzgcCq7YOxI+l2YrlnONu/A/wAf8TF5Vl1LgBJqADC4gCz6M+JD26uDxTlGFS72w3kYg+4J+4FJTHAGcCJktPkfzO26wG52BIgKGXKbAbyfvfuXXuADlWzyTezTgC7wFwUpKilTZxj+l1sJbMzaF/su9x7R65ALjNnNmpTgKyEZALosoCruXeU20NDQ7ZymYFIwoSY/zJtsf8MwjI4gWIZCItKm/KlvJnJwnuRMwF8GbwgodalTjiWEE+UO88G+/PdmbdM19/M31yQ64LcNRsfY4Tc7dPxoubWk1tPbhtw24DbBtw2kOs2UG1ZejGR0O9WV+ds2uxmglwW40E5thAOay0gl3J2Kq2Y9rmaKY+5evk3IJcYbzh+KCaZopjNxDRPlFCEECDcwGpi5LL4Do7bcgklLFMbcaoAxCQ+8xuKmkzH4cyi1sGhpjw3CnJRsAFcAKbE3QU+rwbk4kgizEC5g9OZi8T5yQ/ta7m24wS51D8xAXFUgQXZrH/OxXmpI4CxC3KfDnuz2SC327L0VnGxvlVXt2kgV1NT+ufvfMdW4qLG/bf33tOvSY7+rrNzwyD3vzQ02DbiQkHBmnxpp33Y7MG+jyLIpX8l5A3wmf6HWOaoLVFyLtc35uL39YBcgDMhJxgsvH37tj3IRrxcYKFTXctME8JvADVNyArAJKEGSIBgygB4mUgk7EHkTPeYK5DLwOZGbQpx9gkfMTU19UjsYYA2oTMA9tFo9OFAbab74zfKjcVUiS9MeAoGGQG5vD+gRie2POEInIlwSMQkNiEWgOMMUAOVuTbJhGfgmV3u2pv9uwtyXZC7JuOTa0fQPf/T8fLn1pNbT24bcNuA2wbcNuBsAyxkcyMS0ZcrK3O2kM1mgtzvNjTot8vLhZO+VpBLuWyls+50JpwgFycXpw+Ym82EssssMrNakAtwxflcLjHFF/UXKmIANInP/MZ/mY5j2iVOG0oaymCjIJdzAOFxJAndgNO0GpALAEYdjDIXZzIXqaCg4BFH31nn5rMT5KKURpVNXeF0r1T/lDP7oYJeaT/nf+zP+YH5Lsh9OmzDZoPcPq9XnystFQA0XTmbre8ftLbqr9rb7dAJOnBAv3j3Xf34Rz/Sj//mb/Sz73xH/7GwoH8fGLD32eg1mbXxB7W1dtxfpy1c6bPTLmzFIF86yCUuK4NiwFCgF1P9eX4Z7AEoBgIBO6EEBW6hBKXv3Q4xclGd0tc2NDToC1/4gj1zgwErgB2xTJkaD6DbSELVS59fXFz8RIC4HpD7mc98xl6UE8WzySeLfS4HC7FB2CLKn/A6QGvTV3PfwFzOZWalGFtgtrkCuQzkOu1B+mdsCvYBO4SN4DMzbZz70e6YMTQ7O2tDWxZDpexNuax1SxgkyoN4w1yTNs35UeSmn4sZLmZf7oX8AZZRAKMGBv46j0HxC9g15bpVWxfkuiDXBbnbrA2s9ALg/vd0vBy79eTWk9sG3DbwcWsDpZZlQ09iBubKUd9MkEuIiE8XFdnxDwNrCK3grHczfTbXC9ms5EQYkIsiBUUmzjgLeGUzAVaJ72cctdUocpmGyf4rJeAtDhjOn3EA+W25Y3AWuT8UPQDYbIBcyhZgYBZgWQ3IBX4QhxalFc5hLhL35px6m6kNOEEu5ciUaZxappeuVP/8z35AHuD4Svua/wjbgDKbGI8uyH067N9mg9yBX/tbhCL4flNTzkAuC5uxkJnm5vSzb3/bVuL+449+pJ/+yZ/YUFdDQ/biZwDfjYJcjudebkWjq/KljT0Asm22Etf0D06Qi4Ke55ap50AvwscQHxS4hsL++vXr9qAYA2OEYwHiAsO2C8ilDJmZQF/IglTGVjCoCNykH2KRto0kVL6UCWWDItSUY6btekEu+Qek0y5IxIddbhYPv2OLALJlZWV2OAPiHANFqU/sH7FciRucKY+5ArkMsBpbkGmLTaFNAdqxEdgi1K/OfYGsxLFlAAEFLPaL49Zbf1yDcjHvJbwDMZCNkjn9nLQVsy95JNGOzAyW9P1ZaI5ZOpnKeDN/c0HuNoN4bozcp+Plx+mouZ/dOnPbgNsG3DbgtoGPextIWpZOPIiBSOzAbDjJ6efYTJD7+zU1YqGzw5alwAbeFZ0KLBxP52Jcm/HCb0AuzgxOCVMLcdqzmZgWChAAFANcVwNyUXixqMtyidi4TNXEucIBI/GZ3/gv03E4gqxkzfTSbIJcZz2tBuSiqCJmI+pgnOxcJEA4yixn3sxn2hhxEisrK+3YiUwRJYYhcf+Ay8ePH89Y/6dOnbKhDmWLGgmIC8DhmCe1F5RL9+7ds+M3Uv9MbQZmM4hh8rUdtrQL8vRx76+5/80GuYOWpa9UVuZkobMftLXpw337pBMn9Ktbt/Tzr3zFjonLAmc/+/739YvXX5fGx/UP3d1Zt023Y7FVtScnyHVOm9/M58IJchkUwyag6mSxJ/pV4BeKRBLfialNMotZAsG2C8hlIMuEGWAQidkgzsT9cR/AO2zTahPHmBkmwGHKCLtCyIKV6goYC0SlLAGQw8PDj+1PHNv79+/b/St5RZF76NChR0IJrHQN8x/vEvRj2CNCCmH7vvnNb9r9N+B9OduQK5D71ltvrWgjsDnYFcqTmR7EM063KwBtVK9G/cy7C22QwYO1JNoCIN/UoQG4AGTaBJCWfJjZSbT5tZyffVGuuyB36/2+39huhtwFuVvfKLZbm3Dz47YJtw24bcBtA24b2O5tIOrxCEcddRIxENMhbDa+bybI/c9VVboUDKrTsuTbAMg19cY0vK1Q5hqQi9OCqgSACujLZqqtrbUdSRSxOEmrAbk4QYDD5dLp06ft6bEssGMccD6/8cYb4r9Mx42NjdkQF0cQhxfHEIcLRxzHzrmwD/8DU4iBx6JkTEsFduPU8d25arZxntmuBuRyb0x7RR1l1MTZ3jJ1mDiAzryZz0zZRpFFaAfAzcDAgF3v5Iv2COTNVP84+QBi1G1Ac+AvAJeVxDPt7/yNUA9McQYisMo3cJ/yJ46vydd22Logd8mWfpRA7g87O/Wr+Xn9y+/93kMVLqAMiPtvv55OrUOHhAr3z1tasm6bnlaQS/nQLxkFIlu+Z/rd/AeE2y4gl/6PvgZAiI0g3yZxH/T5QD3AG2ri1SbUmdwnIHAtIJc+l1AM9HuEDiKkTnqfly2Qa87LbBGgLWEkWCQN+8S7xnIDBbkCuVzfaQ/SP6M0ZmYK4Z2wx6jAUTin78f9kLg/YtO/9NJL9uAgC7ytNn3pS1+y7Tk2zABb3n0YhKBNAHapW9oFs06A4Ks9t9mPsjbvGaYutmLrKnKz8HJuXtKzsXVB7tILRjbK0z2HW55uG3DbgNsG3DbgtoHctwHCDxAn96zfr69XV+dk+uxmgdw/a2624+OOWJaKswRy05W5xlnJ9cu/AblGkQtgZOpiNhPgE0UuThIO9GpALs8kjtByiWmjnNcowXCscbpYBA1nONNxrCjNAmMmdt1WgVzANipY4LABCiiJUbiyWNt6Es4mIAJVEVBlJZCLg0wcQNS0d+7cscECZYMikP9QRxEX8+zZszZ8BW7SDgEjQHLySRxdHF0cV6A5arOVVuvGUQ+FQjp27JhefvllW5H26U9/2v6OQtlcI9ft/Unnd0Huki3YbJBLjNwvlJWJhSSzMbBnzvGrwUE79i0q3J988IH+6X//b/30+9/Xh2+/bcNdHTmif+zpyeo1ufafNjXp2/X19oKYq33HAPbxnKEmRVW52c+FU5GLTTDPOHFJma1Bn0U/zvMPRKMfIdHfAOCAnMuBXACasSv0AwzmYAsAaoA0BuFQ7pt96H+YrcC16HMYZKRMnvQMm/8pS5T/nJt7IbwPg3V8p4/k3ug35+bmNDIysuqEYhYAbJS5KJa5F/o3c+1MWwbICKuDchf7RP7S9zOhIMg3dgAAyqJsxmal77+a75RZSUmJDXGJzb5SaIZcgVxsxEp5JU9OkIuNYPBvpWPIa0tLi3p6ep6YKEfOT3vjXYS2SqgJBrBRR6P+pQ5p44TLoL3Q7ph5QhshdMbhw4c1ODj4xGuRHwPMV8r/ZvznglwX5K5qOshqDZS739ILklsWblm4bcBtA24bcNvAx60N7H/grLNYmHG0s7W1Qe7+/fr3O3fshWv+5Q//cDHu4eHDWbvWf2tuFnknPm59Dt4RncrczXDiDchFhYKDjuNMfLdsJgArjhPO0WpB7pOcHJxTHHtUoSh91+Psow5lVXAcevIHaJiYmHi4EEyuFLlOkAtQACywGA/hFoDL60k4ytQZZUFdZgK5DA6gxmW6MbCFfQESgFtT3kBVYAdAmHLBwTXtEBiLI4taiv+oTxLAgTwDc3Eczf6ck+vRplGFAS6oM5xpE2cTJxmosxVqdHPPzi15d0MrLNrlzQa5Pb9Wg7/968EbZmzQz27ULvxFW5v+tqNDv7p2TT/97nf1k7/8Sxvi/uQHP9CHn/uctH9/TkIpmHwTC56ZG3PB4Jp8aQCVgbkoEp3Pk7Ot5uKzE+RiD5yzFPr6+uxnl1kJwC4gmskDC2gxI4JYqMuBXI6jj6WfYiYEdoEBLPoQrsXxTJU3tocYqUDe9fTt9DvRaNQOeQCwo08krjegmP6H70A6oCzK2NUMnFIXAEf6K/o/MxOE0BKAYAbCTHmstDV9Iv0hde1MzJJobW21+9Pz58+LMqdPBmo691vPZ65HX0w/vtz9cl7qkoFGbAD1SVgE3hPS74nZGNSdU4Vt9kmfmZILkGuuxfNB3fBOwOJ23B/2hmeI++W+gasMXDIggM0D4JJvZsUwy4TypR2wcNk777xjvw/QJr///e/boBfbDAxnPwYsOT/X4Xq0Ca5NHkyetsvWBbk5eEnfiNPmKnJdp38j7cc91m0/bhtw24DbBtw2sJVtoNWyxFRTYiFmw1k3TjNbHPf/r6tLvyAW4pEj9nRZDQ5m1VlnJfIvlpfbKisUxtkuSxwp42zh8C3ncGXLUTAgF6BoYC5QM5sJRxyHj2mMTG3FkcbxjUQi63Z8sgFycZhv3Lhh5wewcPv2bdtxRjlF+W4WyMWZRAnNSuMoYteTUG1xDuqNOH+ZQC73hTMKnAUeA0kAKaxGb9rTSiAXpxBHFqcYNR7ghXrF2QXQUKcozkz5cU6mv6J0QhFFTFyOxalHFYUzzXRWlLmonYAYJh9btXVB7lKfttkgt92y9Hphof6gtjYrtgE78H+uXLHj4doQl3i43/72ogp3cNC2FcTOddqQbH5mwA87N1tQsCY7ARAEPhmYS1+3Wc9DLkEuYNBpV7AL9AHYBWN7GFwy+/CZvmw9IBcoR58DVKaP4hyoLeknmbWBOhegB9gj7ipQ7kkgDrvMIBx2AjUuiX6UMAn02c5+b6X6Mn0ifSh9nzMRPxdbBMSmj0QtyqwH4KJzv/V85v6Z8s+gGyAyUx6fRpDLexJwFdtFXRJTmLpnxg51hV3EPqEmp94BtHwm/jD7EVKI+ud5Q1XNYCWLqrFIK/aJ9ojqmjpgBgsKbo6jHLHZPDPM9OH4TGW6lb+5IDcHL+kbeel3Qe7SC8ZGytE91i1Htw24bcBtA24bcNvA5reBSsvSKa9XbxQV2VNPs+k4b8a5UIvdSyQ0alliAbdctCHnojc48bmEuekgF5UKYC6bCedpK0EuDrpx1Pbu3Ws7fUxdxtln4TPAJlOHcQAJ2WDAyWaBXIAoDiLTbdfr9OGA47QytXk5kIujyf0CeYG41AvxI52L7qwEck3eaPOcB2Uuji5thi3lCJynbHEgUbYCd4HFwAlWuUephePLNGoUeuQVdR9gAvXZVitzXZC71KdtNshttiy9mEjoa1VVWVnwTGNj+vk3vmGHU/jx3/+9PUvjl/fu6Se9vTmDt04bhK0gVAThhNZjJ3imDcylL8qlHTDPdi5BLv0NKlwS6liee34D4gJ56btQyZp9zBbV/vPPP6/e3t6HfbPJb/rWKDMJz8BMAc4JLAaKonClf6HvApQCcglHQxxd+r3lQCx9Av0ZscDp45gFwswSAB/qYWJ/p+djpe9GvQxQ5DzEhSUmqzNRJgBuBljZx8Bu+kuzH5/Zz+zDlnM592FfvvMfW8oDW7OcejhbIJf3CsqYe2TwNpuKXOwz+QeeMjBZV1dnA1XgKqpbFMQAcNoSdgnlNPkA5qMwRvVN6AZmh3AO3g2oY+qM9kP4CdTmDPJit7Bf1LUJAWIAO4uVAsZReXOu7u5uO6wToZ3IF1CY55dnd6X2kMv/XJCbo5f09XToHOOC3KUXjPWWoXucW4ZuG3DbgNsG3DbgtoGtaQMRj0c1Ho+uhsN2/MDvNzVtilPtdLDX+5m8Et/3XCAggDRxf3PVjnConMpc42hk+6XfgFwcPhwdlCvE58tmYkVvHCimuG5FaAXAIo4VClxgITCRmLBmuipb3q9xDnHqDDD5qIFc2ipOJyo11GQogYkbSBsw7Wo1IBdHmvbJNFRCQnA+1EsAEmAIzjCLmBnlGY40U5EBMiimvF6vDY9RShFiASebgQNWdAck0e5NfjZ764LcJbuw2SC3zrLsmQ6/XV6elRjqmpl5GE7hp3/xF7YS95/7+pRLFa7TtqAsRmF8fJ0sgf7IwFz6JaBMrp+HXIJcBmvoEwBdLCIJeOM3+gAUkkAxBn7435kY4AK4MQj3JDtI/8N+xPimz6GfA14C7uj7+R9VLbMEvvnNb9qQl/ARMzMzti3PVL7YAfozZhNgH4F6wEmALmCXmLeZjlvuNyfIBbDS/5FHZ6JMANAG1PIZ6A2YNPuRD2w2tpvzMFjKoBq/m33Y8p3/NhPksqgbYZq4brZBLs8Eg64MXGJTiJMPXGVgADhvbAqDA5Qb3xksJYwS9cV7AG0KYEtoBCdopX2h8AXAorLGXtGWCJ/BObBTAF2SCU2EKpv2Sx6cgw8od7kWgwfLtYVc/+6C3HV2vrl6sXdB7tILRq7K2D2vW8ZuG3DbgNsG3DbgtoHctAGfZSno8djO7WdKSuxptE7ndzt//t3qatsxH3pwD9xLLtuJgbmAyCc5sOt1CHCsmTKISoWQBzi0qFGymYilB7RjGivOMwuH4CDhSK0l35QD0BUHi2n4QEkcJ5xXYCGOFMotpjt2dnbajjvT+Zm2jzOGEonprNwj1+dcK13/owJyaTs4rMBsYh/i3OPkoiYDvgJJTDmsBuSafTkOJRLlSQxBFM7mP+oW0AvEB0YAIVBJ4eADU6g/juU34ASQAaecxdS2MsQCZYXjncvn+mk592aDXAbHUK++VVy8odkahNghNu5/XL+uH//oR/qnv/s7W42rLMZKX42dIj7urWhUwxu0E84wC4AZM9BknrVsbp0gl4G3P/qjP7IHe4CghCSgvwWM8cwyi4F42yTijAJOSSZGLkB1YGDAPo5+h5jkxo7Rl3McU9iBbyh0gWzYo43cD5yE/h/wZsIfMMhEX0MMbwah6PexDwYicy+EL+AeCQ2TXr5M2wfIYbfIK+CVMuA7UHitA09OkAuEpR+mHJyJEAuASa5F3whERGHMwJvZj5kVwGTyTx9Lv44Klri/Zh+2HANoXA/INXGNUdTSNpwJGE7+sb+mzk3dUb4M3gJyqQfK3/yXabuWxc4MyOX+uXeuYYA3A8XkCYALbCX/KHN592B/Bg+w/Qwk0NawidgqU+fYfL7ze2Vlpd0msG9mgU4DcwHoPB9cy4SMMqpnfueavJ+YsA2Z7nkzfnNB7gY732wbaxfk5tZpynZ9uedz68ttA24bcNuA2wbcNvBoGwCANng8mvL59NnS0qzEQ1yNY72Rff6suVmfKizUCcsSsXFzDXFNm0GVBVgyDnC2X/5xaomRioMDcCW0AKAtm4kphgDVEydO2NAPR5v3WVRma7kfjgEOEpuOvBLzDwcVxwknFeeKaZAodHC4gAo4t0BEA3tx8FCRjo2N2Y79Stf/qIBcnFS/3287pYRSMI4uYBsIYUJJUBZrAbkcR9sEdJCc5wG2s5o9Cjam+1IXgIimpibbaWZfVHfAAOAQDjh1xWDCWqcqr1SHa/3PBblLffVmg9xCy9Jhy7JD1xCLfL39NYte/lt/v3750ks2yP3Jn/+5/vXLX5aGhtZ9zvXk5cuVlfbsDeLCm/58vVvsACrBXCtznSAXOAYMA8jxjAKn6EsBZyQU/QwAkuiH6VtRfxqo5wxpA4x29ve5ArnMLmDQkPzQ7wBcGahkkIk+h+cbuIXC9uzZs3bsU+6R/gl7Anh29mP0HyyaxgAg+2BngIfcM4NgAEjucy39jBPkAmqBnPTDzsS5GdhCAcogJRCSAUkGz8x+9KUMoAGqGZgjjiv9KSEgzD5syT9gez0gF7tJvdMvE0rHmbCzQMxMIJcwA+SdNkG5kfeVymgtIJd2RH0CWLH3lKEB3uQHpSwQnHYIwKUcUeMCx4H3DCrQRl544QV7FgjvI7QJ8sd7D0CfcgSAsy/HEE+Xc3Cu999/3y5rlLhci2fBAGTywfPC/tgx7stA4pXuP1f/uSA3C53vejvtTMe5IHfjxjBTubq/ueW66jYQiMsbrVKqpktVDa2qKQ2qJJonn+/BFFuvX4FUjSLVPaqur1VdZaFSYZ9CXs+mOf6rvpdt1r+5+XafQ7cNfHzaQMKy1GhZuhGJ2Ct7s8L3epzlzTjmO/X1wiln9fE6j0fRHIZUyPQMsDDJRkAuTitqJFQoTA91JqNWZVo7UwGBus7/s/EZJRZOM4ou4s4B+JgaiUNrzo8CGIiMCobQBzjUOLgAZvYn4VzhlAMEUVABa3HCcVBRwwAogbo4ljiQOFhsca7YD8iAU4kTx7WBjTjtwGymWqYnnEWUSFwT551zAy9wIJl+mcn5Sl+tm/yn74eKCwcR2EC+UXnhHKIaZmrxehJKVs7BvQMwcPwBP1wbII36jfiBOJmUB8poyjT9PgzIpUxxUnF2UScBBNLvI9N3zoeiljoHjAABuEejlqZ+zXEoq4AR8/Pzdn6AJbQ/6sXss9lbF+Qu2aDNBrlhy7LD7syHQiK+LINn6+nfWfBSBw/qF2+9tajI/au/0k+/9z19+MYbdniFX83Pr7j9P7Oz0vi4Pty3Tx+0tq4rD+SdGSeDlqXiLL1rO5W5Bkpm+/lwglz6UwZXeIaBYvR99KH0q/xH/wXgJQHOAI5OkLtS3pYDucQ7ZXCIvpi+FAi5mjijnA9GQj9IPunjUIICIBlAJJyLMz/0iZwfJTF9E8CX+wTeASHpw7guMI7YuvSX3B/nxfYwkIhNdZ5ztZ+dIBe7BLRNPxbVKHYOe8U16RsBjM5+GPuEfUGFC8ilHlCBpt8r90FfvB6QS10zQEo+qG9noq7p250gl/4fRevx48fttkCZYXOw9+n36Py+FpBL2+dZQO1KfXNvKMcpS/KDnWbAgTwDep15dn4GfKOGJq8G3gOJKVNi41Lnzv3NZxPCgXKhjTHgAcjFXnIMs4IYcKYcnPe4FZ9dkJulzjfTi/l6fnNB7tILxnrKb73HeL2WvF6PnTZLhbPevG7OcV55fT55vT75/P5Hkv2b/Z9XlNvm5OdJ1yEvXll+v71dX768srx+WdEaBasOqfnogg6emtWxnoQ6y3epwL8Icr2+gIJNR1R25IZGJiY0Ptyu5uKgigoW28/2KI8nlZf7v1tPbhtw28DmtIGjXq/uJ5MibMF6nPbNOIaVx2/HYtqHHdmC98KNglwWoAIOMhUUJ3Q7JhxVFp1BYUTsO6bcG/UXMfZMwmFyJhw3Z0KRA8jEAcUBRhWEg46zjooK5xgQy+rlgEQAANP9WXkcaOtMOIkomXAGcdhwWFEhsY9x/NKds7WCXO4FJxwnkLzi9K4n4bSSPwAL5eEEueSVe8FxNWUCSM6kPgPkUvaUI2WIQ8v9Ag1wCp+UcIUjm3kAACAASURBVLBZaAjlFuXO9cgPU4CnpqYywg/ANlOA2aaX52Z/d0HuUr+/2SDX9K0nvV7bHqxXlfvjnh7p1Cl9+N57+vE//MOa008++EA//9rXRIxdwjSs1cYAcRmYfCWVEipjc1/Z2BplLv3WWpWgq3mWnCAXIMZgGQNEqBlR87M4GINj9IcARJSHJCAifRjg1yhyV7reciCXAT1YB/CVGQNAToApSsmVzoePx3R++jVjH7AfhGvgeELLOI/nOceuYgdQXLIvQI774zsDnChbGfziN/poyoPPDEpuZGD1aQK52F3K02lj0z9T79Q/5U+ZAr8ZsAWs0v9jP7EJzvJP/7wWkJt+rBN6m7zyDrBcwraxH/aN0AsMoHJ9zkv+GTBmcJX/uVfzTpF+Pn43ZUE5YbdZaM0Zcz49r5v93QW5We6AN9qJuyA3uwbxSfXh8XrkCXmUKszX8drdOlG+S42+fKU2WY3zpHxu3v84sVEFU40qG5hW59icjk5e0Ojpixo7PavRU+c0MnZchw7sU09LlSpjfsUeAM7Ny+OjbcTjCcvjqVCqflCNx6fV3l6t5tRuxQrWuEhNqFRWUZ+q9p3WwPR1jU1f0PjRQ9pXH1V1Yo8CvgfX9frlL+1UovOM+o7Pa3z6gk6dOKT93TWqjlqK+fOz+lK3VeXqXvfRduaWh1sebhtYXxuosiyNWJYNc1lIbL3O+1qd7dXs/92GBnsF9ediMQ1Ylkq36J1woyAXCIfyiGmBAL/tmHAEiUMH0MORAhLgSBlnCUAJQMA5xMlCFYPyCjjJfeF8o7Tl2ImJCTt0AqopHEhgwODgoK1owumjPIC4wAHUSgBkwi0wDRNYYRLgF8cdVRFOHKpcwO7w8PBTBXIBPijcgPmADsrJgIp0GMTUXSAw92oUeZQH5YvS6EkJIA/8Rb0EWAZ+4MxTr+SBEAzpzixwCnUVfWj6f5v93QW5S/34VoFcVKwsErbewb2/am8Xi5qhykVdu9b0a6m6NDKin/f3r0uRC8T9Ynm5LodCimXZZvCs5FKZ6wS5KC4BU8BQVKqXL1+2+2WgJ/0DMXIZBCNhX+grsS0bAblMc6d/pp9B3UhfRb/lVKI6+wT6L6Aws00AvwzYAdXIO4NHqFjpcwBazuP4zAAXfQ77cD1AHMexRanJtTkf/Rh9GIN4qHMpo/RzreX70wRysX2EEGBwD9uXKRGTFxjKzA3sKqGP2A97TXliPwittFIZZQvkUk/37t2zZ/MwoydTIq/Yp5VALu2YvJuF8DKdh+eCdxZCWzAI4ILcJduxXfyh39guGTH5cEHuJjcSn6W8uFdVNXl6Y2CH3u74pA4X7FVV/scVxgXk8RQpVn1Y7Zff08mXv6Z7b35edz71eT376ud08+V3deOFV7RwfV5nJg5qsC6q6pjXDimwVUpmjyelfE+Xag5e0cibn9fE8X4drXxGpeHV1iHwukD+oi6FOuc1eO6O5u7e09mpcR3ta1BDSVCJgjxbrW0/pyi2ohUKVg6p7tC8Dl64p7nnb+nc6SMarg6pKurb0vIwfYm73eS+JMsv8279ufX3UWoDTKk95fXq1VRK36ip2dBCN6sBtE/a5781N9tA+atVVXoxkbBB81aW90ZBLot6oHIFjgJCt2NCvQk0QMmDepQpsQADVKpAWxxqHGmcc9RhONk4kKiMUW8BalEEob5Kh5MrOZA4ngAAwASOXbrqhu9MSQVIsiAPMAPVLVNzM513PYpcnE8cR2A2EHQ9CYeTsuIeUAk5FbkmnwANE2MYYJsp9jLTQXFQyQPlz31zzrUmFGw48twX7Y5QCyYf23nrgtwl27pVIJeQO7MFBfpcaema1bBP6ts34/8/qK3V3Xjcthss7JkL20G/xSCUUeZuRCHqfB4JbQDo+ta3vmU/u9evX7fDnzBlHuBJv4yKkT4Z9aw51sBJYNZGQC6hdlDJAgLpQ4DDhHchxEImGMtgHP8xeMf0esAjg3/0OYRsQVVr8phpSz8OJO7t7bUH8rCNqDU5h5ndQP/P4CH2hhkLzli/mc75pN9MWdHvc73tHFoBhTUQF1BPH54p0S4IkYPtICwONhJbhs2gnWCLWCxupXLJFsilnmhDK12LGUoM/pK/5RS5tGMSgJ/Bk0zn4xmkLhkcpa26IHfJduSiz1vPOV2Q+3GHDy7ITXsBeRTkjt94VTdmDunE6LC6Bg6pe/9x9R+7oJG5lzR5aUGXTnZqqKVQOOlbBnK9ZcoPDKl+5JIm331Nx0c6NZzcreLVKnK9EeX7apRqP6nOK+/o+MyMzo93qa+lUmWpmGJBnwoeiX9LCIew/JESRYtbVN51XF0zr2h89pKunGhRf0NS4fz8LSuP9XSE7jHbzzi5deLWyUepDWAfKj0e2/G9l0iIUAZ/2tS0ZU48StwvlJXZ8Xu3Uolr6nijIJeVuHE4CClADMDtmHAUjx07Zq84juKJzwAFYuuh+AIaAElRXvE/C2URUxeVJ84jTiQOVyY4mckJM7+xsjrXBhQDQlHhpCcUSSzahYPKtTlmOXCyVpALdAVWAKdREHN/60k400xxZpor6qBMIBcFGuVETGBgxHJghPiQKJk5B+AcMLPWhAoLZ5myxYlnsTVT5tt564LcJdu6VSA3aVlqtywbhjJDY72xcjcD2qZf4/tNTXY8dRbyrM6h70Nf54S5y4V6WeuzxoyFu3fv2tPhGYTZbJBL38e9oeBnIAk1LP0IMb653/SFo+jPCP3CQlRAUQae2BKPPZVK2VPlVyoDA3K5b2Khc89mujxboC7AFZhJSAVCOGTqN1e6Rvp/TxPIpTwIR8QsFN4jMiXKhLoBiJtQFQyMMgjKACMxZ7HT6eXg/O6C3P+0Yvk4y2otn2mr1MtW9eXmHXarti7I3SYg1++3FA57VBrNV1s0TzWxPJXG89SQzFNbcq9aE3mqjeSp0J+vUFqeCY/g93uUDHtUmchXcypPbYV56kjuVXMsT9WhPMV9iwtR2bDRZym/wKPSWL7ai/LUXr1XR9v26PPDn9QX+3boculujaT2qLMwT52pPLXG8lQUWARzHB8qsFScyFNVNF+1BYvnNg2Y+whFFu+jI5qn4kDeQ1Dq81kKhTwqiearJZqnuli+ShP5qkvmqT21eI91kTwV+fMUth5dOCse9qgska+aaL7Yp+ZB2ZjjGqKLeQx4Hj3O5Gv120dB7ujcdV0+lFR/Y0yxRKFihdUqrB9W3fGXdPjyS3r+5phO7q9TkcejrIxKe/3yBhMKxMuVLK9XWU2TquqaVVVTq6qqChUnIooGrKUwB5YlT6BaefExtYxf1uw7z2psuFXdBXuUZHEyX4GsYJHChZUqra1TSXFKhWFLIf/Si6wnUKy8xLBqDl3W5GvvaHLyoMYag6qM+eRdcaTdK48nqEBhmxL772jg3C09d3tCxwZqVenPU8S7/Cj9Ypv1qjjqseuf9l0TzlPU8iiQ1r5XX3dL9+Qe45aF2wbcNrAd2wDxBI9blu7E43q/osJe8AZ1bLqznKvvwOP/p7ZWny8r00I4bC9UkxXbtcF+e6MgF7iJagkIyRTZ7ZgAoKidgIw4HihrURKjOluL47LWfSkbnFTAAWEBUPqmJ8AGziiqI/Zf6Ros5sXxKJKIDZhpkRemoKIWQ93GFE8gLpAdlexK517pP8qMab8AB9R0KJtZ5G6lY1b6j3pAfcWCaAD1tSbyAmABzCynXl7p+lv1nwtyl2zjVjn/+FIRj0fnAgHbDny7vn7TbMBGbAsQlxklxMbttCzb77H9yg32/yvZahNm4UkxZFf7PBE3m5kRDGrRNxHXmv4KUJxLRS6xeOkTuQZ2gNi0QERUk/Rn9EMM3Jm+hC1Q0QxgocREOcsxgF9s3HL3zL1gU+njCOPAQCHhdRisQ6GJGpfrAnBR5bJlYAqozb6UB4OH9LmcKx0uL3dd8/t2BrnM2kCVTXkAx7FlhNCgnEz+M20BhoBzQhAw6EcMZcrwzTfftM9HG850nPnNBbkuyF2pn1vvfy7IzaHxWUulAHGrqvM00bBb7zQ8o2stO3W8c7fu9O/UZ/bt0Ftdz+hazU4NRPaq3LcER7lGvs9SLJKv7pq9Ote5S68NPKN3B3bo8/t26JWWZ3S5fJfagnsVewA5PUFLewotjbYswtvfPviMfufIJ/Wt0U/oW0c/oa8f+KR+Z/gZfWn4Gb3fu0NvN39S++N7FM33yOfxqrwwXyPdu3W+cZeuF+1Wa2jvQ1jLfVRU5+t44x59tmGHjqWW/gsGPaqozNdIw1693rBTz7bs1NGO3Xq27xl91r7HHXqubqcOxvao2pcn/4OFxBgJa6nO04muXbpcv0s36nZqvnOXXTafG9ihT3c+ozt1O7U/tkeFVr6AuWsp+0f3TQO5F67q0v6Auis98gcC8gWC8iVq5Ou4pKaTz+vGC2c1faxd9fn5Smzoug9eLH1BBYq7lOqYVu+pWzpx9SXN3npZF69d1+zsSR3qqVNj0qNYwdKLaF64XrsqZtRx8oquvXFBx/ob1GTlL646HiyWp/igqvfPaPzGTY2O9Gu43KvSyNKCNvmxOuU1XVLHyWt67pWLGhtuUVPIs8rYv15ZwQp5S06q8eiCZt+4o4mxPu1L7HkE4j9axpYsn1ehsKVDTXv0bN9OvdW1QwuVO9XozVM8G+W4TZ7rx+7bzdcGns2lNu+Wq1sWT2sbYKAKmNtjWbYT/1Zxsb63SYosnHBWSscJR03VbFl2fMNcO+KrqauNglxCDeAoocLEUduOiXtkQRqm8OIUAiaWU40a5y8bW8oGh5zQZTjnmVIoFLL7ZvJoQMJy1+Y8wFvCE6BGBZ6n78t7GwoznF7gBepjQDb5SN93td/N4kGAF6ArQGYjcId6ID/kFTXtWtN6FdKrvd9c7eeC3CX7uZUgl34XO0CcWQb1NnNAb70wF1tFeKATD+Kpb4btMMrcjU73N88T8WhR4aOGZTCKfom+BViZS5DLrASmqJsY6UBEpqoDBFF3vvvuu4/EJidPo6OjNmwE4gINSSzkSfgYps+be0rfMqMCMEn/SzxV7pdBN4At5wDeAoSJv87sDH7jP36jTMgn/bvps9eqht7OIBf7xmAl/X4ikXg424XyTi9H53f+pzyJLfzBBx/YoQaoN5TRnO9JZeSCXBfkruZdeK37uCB3m4CVSNSjhsY8XezapW/2fcIGW3PtO3W7c6de7tmhN4GyHTt0vXynhqJ7bNUiBtTr9Sgc9aixPF+zbTv1Qs8zerl7Kb3WtUP3W3fodNEudRbstVWSqHH3JiwN1e3VffYf2Km39z+j3xv5hP7g8Cf1hb5n9Fb3Tr3as0uvtS1C0p7o3sXp8h6vakryNT20W8917NRrpc+oL7IEayNRS7WN+brQvkt/1P6bOluy+yG4QY1bW5ev05279H/37tBvde8Q9/hsx0690vOM3ujfode7duhm5TM6DDj2WfJ6LPm9XvU25Glu/y690b1Db7c9o+fan7HL5n7vDr3Vt0Of6fmkLlXs0kAoTynfamPDLr3MLT04j4Lcoxcu69Kgpc4K7nExlqwvXqtA91W1Td/Vcy9Ma2qkTbUez4YBZH4gJW+iReW9k+qZvKGxmes6ffGGTs89pzMLL+j8cy/pzIkDGu1IqCIReBi6IC/RrF1NC+qdvKQ79yZ0uKtKFR6vQv6UgqXdKh2a176p67p4fUajB1rVUehVKrh0796iFvn3vWgvcPbq80d0uLtCyTUAcY83pbyCfaocnNPYp35LJ04d1HjlLlVFHx1wWCpjS/l+S5G4penu3frMkU/qDw78pl5veEbdvj0q/tjGZ16qE2dZuZ/dcnHbwEevDbBADCD17K+nYwNWCXPAwjcsIpPNabacC7XXf66q0mdLS+14uKyYXm9Zdkig7dK2NgpynQ6X+zk3DpMpV+oKZRIAF0cfoGn+M1ucXtRgKLtY4RsFGvttBLziKAOcUTGjgsUJ3+gUYJPfj9PWBblL9mSrQK7pd1lcsvfBQpjEnd1OC2Gmw97v1NfbwJnYvlthP7IFcpl5gAIWGIdClb7JPP+rBbksUsZ5/v/2zrM7bitP8/NRdrrnzJw2M1kAKrFYxWKoYmYxh2ISoyiJVCKpxKBIKmcrWMGWg2z12G57pu3O0927O71z9pw9Z1/Pi/kmz+4DCSqKomSKolQo1vOiDhhQwMW9P1zg/vDH/7IPZMoCfo+TXVGw8iEXPwcPHrTzmzMXNyUp0yEwBzlFKT/MrUqZTKnKXNvMoU55ygdM7DuZD52pX5jDlflJKVz5Gj/TH/BhHOUh5TPrhQ+hKG67urrssszOzuLixYt2ygBOmPmf//mfdm5dboPRpIwiZfQt98c0RCwj0+uwnBTLlM6Uv8w7f/jwYTvHLR/M8XjZ7zLNAB9Kcv+MmObbJc71gNcEPmijpOZxMRUEH/jx76s/3DffrqAM5T4ptvmWA3P5OuvxASDLwPaibOaSk2/xIZ6zDpfMGctjYModtivfAGF7OOuwbnjt+ClZ63Cwdsn65vY4ISbLyzbjkmXeaG70rRK5TMXBvLYOZ+stWbdOnb0qRy6lPXlgO/PNkvW2w78zfzNz9zMaXDlyU9cOpw9P91Ii120id7gA/2PPL/B1fx4u1hdgb6wEo/UlWBoswr3RfPy+PwcrdYWIGAb85tOUCvWNJvb2FeOfh/PweXceZmJFGI2VoK/WgxP9hXgwkYdHbbk4U5WPGr8Bi6kVAgZiZR50VnrQ0eDBnu5ifD2Rg18N5eJkrBi7ok9THfSUl6AjxNf0jaev2Zu+txa58zsK8cfdOfh+MA/XGgpwIF6CwRoPjvUX49ZYPn4cyMX1xgLUMCp3lcg9t6sA303k4tu+XJyuK8JUvATJOg9O9RfiyVQeHnfn4UqsEIngqwXiT59wPyFy/ZUI1Ayi4cBH2HP+AW5fO4gjk21bklrBiPbB334K46du4eTtG1iY2YU9g0m0tQ+ha2oF41d/i1PnT+PqQhd6m8oReJaH1oglUTR0C2NHl/Hwyk5M9tai3ArBF06iuncJk1e+wsL5czg33YDBRAhB74v5fIN1A4ju/QJ7Fq/g0+Ukxrurn0vin64vdmoRmGYragaOY+zOH3Bo4SAWevPRWpkS/Gu3YwR8iFSaODVciO8P5OBvUx/gi648jPqKUSuR+/zhx9p60+/uu4iqTdQmm2GAD2L54ZscjZaFYz4f7lVW4vdNTfZgfiuisyhxGUH1a04EVl6Og5aFesuy39Zw9r+Zsr+L70jkvlv5unZg+ja/c/DOqCZKVMrV9SZeoyzk3511uD5/5983u+/1trnZbWXz9yRyU9esdItc9sOcY4NvSHwRi+HfW1tdm2Lhx8ZG3Cgvt6OI03H92CqRS8nIPNuUWMy5TQnp9AcbFbmUrpR6lFwUYcw/TmHKyFnKS0dgUj5SLjo5aVdPNMn0Bk6OWv5Mmcl0C3zYRWnICF3KNmdSMspfymPmTmd/yvOY/S8l48DAgP3mAwUmUzhQMnLflG/cpyMeKU5Pnz5tT5BGGUsZTJFNicfJ1yjq+B2Wi+V2InV5vEznwBQ8lMQtLS32gzmWgwKXwo8TalIQ88M0DRSqzvGz7M7/nOUPP/xgy2zKY+6TaS4oY5nH11mHopSTulF4szyU2n/5y19sUeuswyXbkakyWFeseyedj7MO25wTrjFVhdPWb7Jk/bDuyIzTZo7MpyTeyLa2SuRy/6xXh7P1lmSJdcH1XiVynShv1ivXf9V2uA0yxFzKErmpa8e7uA/ezDYlcl0mcleGCvEf47/A7dZ8jERKkCgzUBs10dXqwdJAIf44koMbzfloMgw71UEwYKGvw4PFHQX4rCvXjtjt5ndCBmJhE0NtJVgaKsBX3Xm405CPhlITzE/KT8hvIlpqojxmorfNg8fjuXjSn4e5SBG6Ax5UBg1UBkxU+A17sitGx5qm9dYid2GwAH8ez8EnnfkYjxSjvcxAPGygI+HBof4i/MtwDu635aPb50HUMJ9H5K7sLMCTwTw8bM3HeJQ5VQ1UhQ2MthdjZbwAj3vz8ZCv54e2TuTOXv8cV88exsKxOezcdxg79y9h95FzmDl/F8eWl3HqQDfGOLnXFiT8DzTtQeWu+zh46izOntmLif5WJGqqEa2sQWVyDnXHfoWjKyu4vTyMHa3VtsznzZS3dhC+XY8weXQZ98/0Y7S7GWWRNsT7F9A/dw2LF1ZweHYCY4ky1JenUio4HUawYQDVM08wvXQZn5xox1hXxRuKxBBMswGxvnns+PDfMLcwhxODRWiLvSYy2udFaciL/iYPDncWYbmtAAfjhWjyPUsJ4ZLz0qkjLd138VKbqE22AwPsw5mjtt2y7InQGO10PRLBo+pqO4KWg2dG6nKAz7QIayN2mfOWkVL8H3PfMvKW4vaXNTV2pO/VSMSO+t1tWUg8y+XOfbqt7iRyM0fkbmTQqnXc254Suan+L90il/0w+2Pn7Qym2mFkLtPgrI2ITdfvnBiT1xVelyafpVRIx/XjbUUuo1Y5KSHz41JaMSKW0ajMre70V8zhzXzilLRMO8A83BSX/DCXKoUixRhlKcXnZ599ZktDRttSXDLylRGTXI+ijFGuFLzcljM5Ir/HXOWMiL127Rr+8Ic/2IKQwoziktGl4+PjtrRlJOR//dd/4W9/+5sdhZlIJGwJy1y6jEplXl2mauAxUZZS/FKMMoKX26PQ5b5ZduYop5DkZF3MLU4JzIdyTEPEKFtGwnJ7lLWUrJSmFHwUhywDj4fCmlHM3B7rhPnSnfQNPA7WKT+OSKZM5PdZH87/nCW3x7qiZOY6/Jl1y2hgZx0eD7fF4+E6jO7ltlivzjpc8jv8H9ehFOa2Vq9DwU2BvVraO23+uiXTLzDKmZxQ4rJO+aEopsRnezAi+XXbcP63VSKXdcqyrD7+tT+z3pyyvkrkUnyzXdfW1eptsV75fTLFupXITV070tEHrrdPiVyXDGic1Apn+wvxvwdzcKqm0I645QXeDFjwVFvY0VGCfx3/wJa8fYYH1YaJslITu5PFuDhWgI+a87FQUYh40ETYbyISMFHfYGCipxhf9+Xh89Y8e+KzF0DwWfBEvWhKePDZWB6+7MvFVLDEFsUvrPesnrZC5C72F+KvAzm40lCAoJO312/CrPSivc2DL0cpeZ3ozFUid7wAjzrzcDleiJpVk6jV1ZkYHyi200A8aclFb9nWidzDD/+Eu1/+gLuPf8StL37EnV/+Hne/+h737t/EuaUp7GopQ3PkNcJyQ3xx0jA/IsljaD7+aywuHsLZvfVIxEqfTzZm1I+iZPxT7Du5grsXd2GsLY5Kw7BTbAQbRxA9+M+YWjiHe4vdGE72obxxCn1LDzF75T4uLu7A3v4qRH3WuhOJlTYMIn7oa0wvXcKDhWaMdETfcJAfhGnGUd17FAPX/4y5hSM4PWKg/XUi104LYiEQ8KIsYNqT+JV7n06otx53+pv7Lh5qE7WJGHg3DHBG8/FnaRccqftNbS3+pb4ev2tqsqUtX8Hlh/KWsvf7+npb/DJNw5Vw2I7wYv5FPmTMhHaSyHWv+HMGolpujzaSyE31iW4QuU7/zDQLp4NB+yEcH85txVsZbyt/+VYH3xJ5UFkJPgx0ypqO5duKXEaRUnpSRlJyUZIyUpNpDFb3bRScTCfACEwKVMorfihqKdEotihlKTMfPnxoCzWKXP6dgo+RmpSazKXKqFqux/1yQi1KT05SRhHr5OdmGRhlSmnK1+EZ2crIYMpVphHgNrkNvsLPCFrKSObO5bYduchoSYo2lm+1yGS0MKN8mWKAk2oygnb1sa79mYKXEbqM/GV0LEUe62p1VDH3w98pnZ30EYzWpZillHXjhzKbgpr1vvaYX/c712cOXLLC42ZkKgU3Bb7THq/7/ur/va3IpYxme5AT8udEG6+35CSjZIPrUuqSMe6f5eG91qVLl2zRzXUYbc1tr7cdMkYOyCC5ouTlQw7K7dXHls6f+dYPzyU39eXvs3+UyE3zhclpbEfkriSL8L/6PsBSvNB+SmuLXL8FM2yhpcaD5Y4CzNQUIWEYKDdMhEu9mE4W48Pdefh+JA/fDObhVrIA1599bg/n4/PxfPxlRw4et+YiUep58bX5NIjchb5C/CmZg4v1q46RUcJlXtTFTCy1F+FYQ6E98VXlqojc5bECPGjPw/nqgqcpIp61XbzWwHBfCR4l8/F1ay56VuXsdep348sXUyvMXPsMV5bnMH/0JHbO3sDRD5/g7Cef49zSbszuqEGi0odI4G1vbhjRWoHYyBn0XfwN5o9N4/hoCI0Vvuc3TWbjOLxTX+HgyTO4szKC4TZG5D6dfK4sMY7a+X/FgUu/xL2PbuDM+Zs4dPoWTl+/iZMr89g/0IDOWBCllvli2z+rP4rcmsPfYvr4lS0TuWeGf1rksk18lMs+C6U+66WUDxtvs7etf31fdS0GxIB7GGCELgf1jNJl/kRGQe23LMx4vWB+W+bV5Wzn/PCVXE48c+BZRO9Or9eeTbzVNBHbgjdF3hcXErnbQxKmc0CnfW+MIYncVF/vpsE/+30nMpdpFvgmRjplLnOr8wEhHwzywSLT8ryv68F6+3lbkctX4BmVSkFLGUdhypQEaydgpMhltCkFFqWvI3IpxPg9R6pSZlEOc2IvSj3mx+XPjGxlflvmlO3s7ERra6sduRqPxxGNRu18ttwnxRqjYfk9CluKYArg5eVlOwc4/5dMJsHJ2ShimUKBZWNKBKYzcKJEGYnKD0UqJfJ3331n56RlxC7z9zJqlhPGMfcuI3Bf109y+xS+lMXcN+uBEpoRujx+RmYykpN1yOhdymbWIcUv87ZScLrxs9nUCmwncnP16lWbA0Y9cyI41q3THq+rz9X/exuRy/bnQwPunxHezJPs5P9db8mockZOs60osbk+25/l4cMARiczV7ITrc0HnQaUHwAAH3ZJREFUB+tth9HhnFyUkpfbotAmd+R+9bGl82eJ3DR3zGs7a86Gy5kY+QrE2v9t598dkcvJv/699wMsxlOThDENAieHqggbGIyVoDNSjGrDQMj02iJ3b7IId6fz8Ls9Ofjzrhz8OJmLHybznn9+HM/H7wZycJspGYLPct067Z4OkZsswp96c3Gh7qnIZbs+PUYvImUmklUlYG7euMVjTEXknhkrxL22PJytelHkVtcaGEwatsj9ti0fyS0UuQdWruHc3lqM9nYh1rQPgyfuYu7WA5w40IWpdj/Kgy/mm90co+UwjGY0TV7AxJ0fcezQGA71FKOuPHXT5E/sQvjgt5g9cRq3T/ahP1GJoMnJ4IIob9uD1tO/xcyHP+DOx49x9eE3uPLgG9z9+CounNqNodqInW/4Va/Trha5DxdatiQi1xa5Nanyb65e9H3VmxgQA2IgGxiQyN2YhEvngEn73h5tJJGbuqa4SeQ6/Xzzs7cxmF7nr4mEnef8bSNr3+T7TOvAiGBK3ItlZRhzxotpXr6tyKVbYMoCRmZSdk5NTdkyzolUdPo3iiEKWa7HlAXffPON/fn666/t/K27d++25a8jxpzvbWbJfLicEJKRrczzSklGKUxBSulK6UahS8HqbJ/f4ev8FGwUqpRrXDJlA1M1HDp0yM6j66z/NksyyfQBFIGPHj2y5SAjMikCKfNYRk5iyby9lNeU0m78UFJSorM+N1MfFJ0U+JxAjukpmHLhTbfDNmRUNmU7xTjl8ka3Q5nMNiAflP6c8PN1+2e78YEA8w1zfeYHdhjiJHXT09P2trg9ssdI7PW2x/sy7mtubs4+F5hO4tixY3Z6j/XWT8ffJHLT3DE7Fy5nKZH7sshl3VB0BilzSw2U+00EmJJglci9PpmHL5L5uNVaiLmGIuxb9dlfX4z98ULsKC9GxLcmDYBLRK5zjH7m7Q0aiAZMO28gj9Hv9WJHuwfpELn7z1zAymQIg4kISqMtaNh7DaPnH2PlxB4cGa9BrMy/bpSrw/PGljEYRh9api9h78ff4vDMIPYlChEvS7VVqH0a8YXf4/DxU7hxpBU9jRF4rQAssxoVXQeQvPQjZs7exIUj45ieXcbwsQc4ffcmzl6Yw+6mciQCJa8s5/PUCozIXdyMyGVEcRyx5FEM3vgz5hYPbyi1wsbqJnXDrfVVF2JADIiB7cmARO72kITpGMhpn2/GjkRuqg91o8hlOhzK3L2WZYvU7+rqtmwCzJ8SupS4lMdM0cM3P3osC9Uu8QRvK3JzcnJsccYcsYxUZUQlpdbayRopJ3mfUV1dbUdjUmTxQ1nJV+0pLinF1n5vM/0Qt0G5yEm4uH3uk9t3jpWSivtaHUnL7/BvXJfRsIz6ZYQuy8ZIWnoUXk83U56136GspkhmXVEmsu64pBRn5C77Eopw7o9ymWLSjR9G1rJOWZ9rj3EjvzOi2YmoZvuslf8b2QbbjfXW1tZmtxdzM290O2SEbcA2ZzleJV6dcrDduH0ywfXZJg5DLAePgSk0+CF7r6oX/p37IlPcFvcfCoWe8+nsL51LlpHt68a+/H2MV5RawSUXqNdF5L4KBOardVIrXB3Px73WfJyoKrAnAasptcBPXZkHDWUGWkIG6oNPJy17YXubELnNNR4cnSjEjf58fF6Xh9FVEbD2cXQaOJMsxP/sycF8vPB5ZHUoZKKl1cDCOhG5L5RpTZukU+TuO30WK+MW+us9sAIRhPtPoWP+M5y5uISTh/rRXhEEc7u+svxePyxfAD6/Hz6fCa83dQPpfMc062BaQ2jffxEHPv8cc/v7sKeuENWl3C4nJwsh2jOHtrN/xeHFeVycrkJ7XdD+u2m1INZ7FCO3foWZ4wtYGoigp2sc8cEz2Hf5Lk5cXsHhvjj6qkx7/84+Vy9L6wdQffCXmFq6go9PdmGsq/KV0nf191I/U+Q2It6/iOHbf8ShhUM4MVj8+snO1rRxalsv14/+pzoRA2JADGxvBiRy30zGpXPgpH1ndltJ5Kb6UjcP/pkah3nOz/9/ccLJK5kfnZNeMjf6VqZcYB5cTmj2l0TCjsK9V1lpp/Bpsyw7aMgt115Hbr5t/0N5SznlRCi+7fbS9f3tchzpqj/tN7OvY077SeS6TKgoInf9iNz1LqQUuanJzvJxP5FrT3ZWwYjdZ7lHQ0ELFSHTnuSsMfB6kftoLHcDk52ZaIh7MDNahOt9+fiqMQdjz0Qun1hFIyZ6uwww1++fuj/A0Vjxc8mZ0SK3wQPTF4LReBDVuz7E/M0bOLN8ELvrQ2gOljw/xrXt5PWXwltWhWBpmT2pF9tl7TqW1QDLN4qOgxcx9+VDzE73YmesCNVBitxn0a4DCxj48C84ND+Dk8NetFRzO1GYVhK1A0vY8/ALzMzvw0y9B4loLcK1k+g78Qlmr9zD2QOt2N0RhH/dfVsI1PWhfO9n2LN4BY/ODWFnb83zifZeLut65WdqiA7UDp7E5IPf4fDiQcz3FKC18m0mnVtvP/rbxtpD9aR6EgNiILMYkMjdHoMqZ3ClpXvbUyI31Te6WeQyHRqjcxtN086VvlJaCubOZcTs/+3sxE9F127k/5S4/6ejA79uaMDtaNQWuJ2maUfhMmfvq1KypeP6ulUil5GJjErkeZDJ/dR2OY5MbgOVPf3XOYlcidx1xFrqIv++LlabjcilqO3v9ODEcAG+6MnFlYYCdJSVIF5q2gK3o8aDseYizMQLMRkpQtRnvnC8TNngiXjR2GjgwXg+ngzmYTFahIGAx05vUO43EPExT23qe/FKA8P9Jbg8kI8fez7AsZoiNJR6UF1moq2mBIeHinCzvwC/SuRgfzSV6zezRW4JLF8QJeWDKO85ianLD7B08QwWBqvRH/O+dLNjekth+usQqR9Ey8QcBnaOY3xHMxI1EYTX3hx562B6h9F+4DJmPv8Kx47uwsGuKJpiUYQrEihv2I3ufedw5METHJqZwHRzCWojJixvJTzBMTSOnMLcZx9h9sgu7C4vRkMgBH+0E7X7bmN85WNcWp7EofEGxAOWna5iLdO+6h4Ehm9hdOEa7t+exd7hhJ1TN7TBvsH0x+AJT6J58iwOf/olDh3ZhX31hagPv17k+rwW4hUGOms9mIgXI1nuQdQyEdjgftceh35///2W6lx1LgbEwFYwIJGb/gGRBqXZ0QYSuak+280i1+lXeU8cNU0MWhaO+Xy4HA7bqQ8YpUsB+6fmZvz3lhZwcjJG1q6N2KX05d/5f0b0chI1RvcyBy7FMAXu6WAQU89SOrhN4Dr1sFUiV/1cdvRzaufsaGeJXJdJE0XkvklErgnmlG1oMnBwsAj/MpaLr3rzMFtdjMGKErRWe3CkrxB3JvLxuDMXl+L5qAu8KNfsScZCXjTUG7i1Mw9PxvJwo7YQMxUlSIQ9dpqGhqCBslUCOBI10dhu4MJQEf5j8gM7L++eqmL0xT3Y3V6MB7vz8MWOPNyP52OiLBWtmvEi1/LCtOoRrp1G8vRXmL16F5fnEtjVWfpSygTTVwFP2QTqRy9h5uFvcPHRR7h3+wD29jeh3jBeEKqmWQXD6kPL3quYfvQbnD5/HKf296Cvox0NnbuRmLqDvcu38OGnK5jd1Ynu0hJEfQYoUEui+9A0uYzFL65hdnYUI95i1FC6h2vg7z+LjvkHuHz7DE7M7UB3kLmuUkLeuTkyI20oaTuLvqPX8OFXV3B4dy/6SotRtTaf8iv6CrOsESVNS+icvYqLX97E0QNDGA4VI+Z/dcoJRpOXBiwMtZfg9I4CPB7Iw8XmAiR8JYgYr/6eU2YtUwMR1YXqQgyIgUxnQCI3OwZdGlynv50lclPXi0wQuU7fzuhY59P4LIcuo3Q/qqjAk5oa/NDQgN83NdlSd3XELiXuH5ua8GNjoy1vP62uxtVIxM6By9QNjrh1tu3sz21Lidz09x3qv9UGbmNAIvcVciZdHbhE7sZFLtvI57MQrjDQ01SCCwOFuD+Uj4+SBbiVLMT1ZCE+GszHvb58nKkrxHi4+KWIXG7D8HtRWWlirq8It0YL8Lg/D4/6CnAzWYCbbQU4V1eItlBKyAZKTZRXWdjdVoR7IwX4aCAPd5L59vp3+gvw2VAuLrcUYKqsGM3+1Pe2g8i1rAiCVX2oO/gAk2cf4Pr5PZgba7AFKW+Gnp833gp4QiOoG7mAfQ9+g7Mf38W9G9OY6qtH7RqRy/QJlhVHRe8cOhYeYWb5Jk6dv4AjJ85hdvECZk5exaGFozg204eBtmpU+w2UWibM0loU1R1By74LOPfJCo7sH0TS9DyVtYEozNr9aJi8ioXb97B44iD2NfvRUv6yJDUDMXgqRtG8axmz977C/OIcDu+oR0cshLCXeX1XHdfq/sIbgBWII9Q4gca9d7Hn5BVcvrQX0zuaUO/zILxOPmCnfgyvF2UhC/uTRbgzUYBv+3Jxsb4QNT5DEbmr61g/p84p1YXqQgxsWwYkcjVAdNsAcbuWRyI3M0Wuc//MJd/s44Ro/ZaF3ZaFOa8X8z6fLWdPBYN2Xt2LZWX2ZGnLpaU4Hghgwe/HEa8X+y0L45aFLstC/JkcXr1tt/4skatrxHbtk3Vcm2dbItdlA6OsFblhE82tHix2FeK3XYyqTaUk+KmLquGzUFFuYbStBCtDhfjnyVz8sCsXv9uZiyfJXFxtLsBQuASVlvFSCgBu+2muXS+6mj2YHyjCk8k8/HZPHv48nYt/25GLb9rysKM8FclrR/H6LDTFPdjTW4QbI/n4bjIHv9mZi+8oklvycLCyCFWW54VE+cGQicZmA7NdRfhVVx5OxAvXLc/a4+VkZ30tHiwMFeBaSz6WKgtfiPasihlIdntwq6sAnyby0blq8rW12/rp3wMwjEpEGibQufQZdh1bwsIOE721qeP3ReoRHDyH7iO3cP7qURze3Y0Wy7RffXq+fV8URjCJeN8SJq58iYWrF3BpeQSjnTFUG8YL9eJ8x1fdh3DvKQzPf4T5m1/i3EePcenWXZw9fxJzU/0YqPOiJpy6AfWU1aCw+SgSU2dw9voRHNzZiYTHgwiFsjcMTyCJqs55TFz6BHMn5zHfH0Bn7GWR+zQPbwyVPYfQefZ7HD53CZdOTmKitwmN0RAiQa+dc9kpJ5d27t9QNUpjQ2gYOoFdFx9j4ewKzu9rxFBLGN616SPW9DN8eFBebuHEcCGe7MnBd515WI4VIrLBKODVZdHPKSZUF6oLMSAGMpEBidzND2Q0CFTdvQkDErmpa0QmReRmYr++lWWWyFU/9yb9nNbNDl4kctcIlq3sdDezrWwVuUyREIkYSEQ9GI+WoLF0PeGWuvlYXbcUq4GAhXi5gfZqA8O1HozVFmNnTQmGKkvQGfbY4jPwGrnm93sR5f6rDAzVlmC8rgSTdcXYGSvGcNSDWODF8nCf4ZCJugoPemIejNQUY7ymBCPVT3OdMh2D87qOU1a/30I4bKAx6sFwtAQtIc+GRC5f96mMGGiuNtAdKUEi6EHpqom7KIgrGZVc4cFAxANO9ubs882XXlhWEIFwLaItA6hNtCARs1BZtmqbgTB8VR2oaO5FZ1czmuoqEFmb25XRqt5KlFYmUNM1hERXB7raYohHgy/Vi1NGb2kVApVtqE70ItGzAx3JIXT29KGjoxWNdZWoDnkR8qcY4ORrnnAzyuva0N7TjPqaClviPs0x+3T/wWgzajoH0NCaQKLKa+dNdvaXWvKYQwhWdSPafRT9s5cwe/EOjp06jUP7dmKkNYLGck9K5nr98MaTKO89iqG5q5g9fQ0nzixgdnoHBpvCqC33/2S7GiEvonETF0bz8d3OXDxoLMCBcBHKXhPFmypvqg70N9WFGBADYiDzGZDIzY5BlwbX6W9nidxUfymRm6oLt19HJXLT33eo/1YbuI0BiVyJ3LeQfplzAXT7BVrlcwFLvig8gSbEBw6jf+EeDp27heMnjmFvMoqu6iIEn0lk0+eHv2kS1RNXMHX6Do6vLGNhfxKjHVUo95vrRhu/1L7lJmJNJm6P5uNfR3KxUlWAQb/HThnx0rou66NUPhewKiZ03RID24oBiVwNEN02QNyu5ZHITd3DSOSm6sLt97YSubpGbNc+Wce1ebYlcl02GMrWiFy3X0BVvsy52dl0W3n9sLxlCJbXo7yhFw3JKXQMTCCZKENzRfELEbn+2l5U9Eyju28AfR1NaK6JoDIcgN9r/mQ0LssXjllo7/Dg0Y48fN+fi+lIMeqsjUVob/r4XNbX6Tiy4JwSc9tKNuqcfXfnrETu5gcyGgSq7t6EAYncVD8mkZuqC7df3yRy1c+9ST+ndbODF4lclw00JXIz56Lq9ou+yrdZlrywfCH4KxMI17SgtjKIyjJPatIzrxf+aC1CNa2IV1WgOuxLSd4N9iexOgMjyRI86s/H4/Z89IdKUJZBky6Irc2ype+JHTEgBl5mgCL3Zz/7GTT4yo7Bl9o5fe3M84znm/ohCxK5L/fFbuVCIjd9fYb6a9W9WxmQyN2geHlfHbtEbuZcVN8XE9pPOpjwwusLwOcLgvmTfb5VOYI52ZnP/+x/Pvi81oaicJ12NE0TrU0GDgwV4V5nPj6sK7DzHjMXsrOOlqoLMSAGxED2MECx9POf/xyMFnTrgEHl0mA20xng+cXzTCL3ad8qkZs51xiJXPW/md7/qvxbz7BErsvkiURu5lxUNchWW22GAYrcWIWB7kYPdseKMREpfssJ6tQOm2kHfUfciAEx4BYGCgsL8Y//+I+2ZNJgZ+sHO6pT1SkZoMTlecbzzS3nfjrLIZGbOddAiVz1YbqOiYG1DEjkSuTqZsZlDKTzpk77zpybOrWV2koMiAExsD0YKC4uRk5Oji2Z1t6o63cN3sTA1jBAiUshxvNNfadSK2QSAxK5W9MHqC9VPW4nBiRyXSbxFJG7PQZlmXRzoLKKOTEgBsSAGBAD6WPA4/GgqKjIlkyKzNVAczsNNN1wLE4kriNxeb6pv5PIzSQGJHJ1XXBDX6oyuItDiVyJXN3MuIyBTLqxUFnTN/BX3avuxYAYEAPbhwGm3aHMZWTuP/3TP+Ef/uEf9FEdiIEtYIDnE88rnl88z9RvPu03lVohc64fErnuEmgSmmoPNzAgkesyiaeI3My5qOpGUG0lBsSAGBADYkAMbBUDjBTka9/8MI+nPqoDMfD2DFDg8pxSJO6LfbVE7ov1sVX9+LvYjkSuxKEbxKHK4C4OJXJdJnIDgQBCoRB8Pp+eGLusbd7FhVnbzJybKLWV2koMiAExIAbEgBgQA2JgOzAgkZs5HEvkukugSWiqPdzAAFNx8SFltvblf+e2C7HX67UlLpduK5vKkzkXfLWV2koMiAExIAbEgBgQA2JADIiB9RjI1sH/enXh9r9R5P7sZz/D3//938MNAkllkMgUA+llgH2BRK6iPiWMxYAYEANiQAyIATEgBsSAGBADYiBLGJDIzRzBn5+fD75GTZkrgZZegab6V/27gQHOo/CLX/xCEblufwqn8mXOhVZtpbYSA2JADIgBMSAGxIAYEANiwM0MSORmDp/M80xpQ3njBomkMkhmioH0MeBE4zJSv6SkRKkV3HyhVdky50KrtlJbiQExIAbEgBgQA2JADIgBMeBmBiRyM4dPypqCggJ88MEHisz9b+kTaJKXqvt0M/Dzn//cTqlAicv8uIZhSOS6+UKrsmXOhVZtpbYSA2JADIgBMSAGxIAYEANiwM0MSORmFp+madoyl5G5TpoFJ28uI/T0UR2Ige3LAM91fpgX15G47BN4jcnWvtx1k525+YKvsmXWBV/tpfYSA2JADIgBMSAGxIAYEANiYC0D2Tr4X1sPmfI7pQ0jcxmFV1hYCObN1Ud1IAayiwGe+04krtN3ZWtf7nKR64VlBeEvrUA4Vo+KeB2q49WoLC9DJOhFwMv/68ZEdSAGxIAYEANiQAyIATEgBsSAGBADG2MgWwf/4mNjfKieVE9iIDMYyNa+3OUiNwTTbERFYhd6Fq5i14nzOLZ4DHtHuzBQX4qKkE8iVyJbDIgBMSAGxIAYEANiQAyIATEgBjbMQLYO/iWnMkNOqZ3UTmJgYwxka1+eESI3mtiN7sWb2HPuDpYu38aJhQM4tDOB1uoQyiwLPt20bPimRR3CxjoE1ZPqSQyIATEgBsSAGBADYkAMbE8GsnXwL563J89qV7VrtjKQrX25y0WuF6YZRiBSj2jrABrGltB75GMcu3wB5y7tx87WOJosA6XPEh1nK7w6bnXcYkAMiAExIAbEgBgQA2JADIiBjTGQrYN/8bExPlRPqicxkBkMZGtf7nqRa1le+PxlCESqUNa0G1U7rmP/hSs4e3cJ+7rr0enzoMx6OmOdTrbMONnUTmonMSAGxIAYEANiQAyIATEgBtLFQLYO/tNV39qvznUxIAbeBQPZ2pe7XOSuht0Lo7QLRmwew6cu4fiDszjQ14hksBhhr0TuuzgptM3V/Oln8SAGxIAYEANiQAyIATEgBrYDA9k6+N8ObadjUB8kBsSAw0C29uUZJHItGGU9MGpPYOT0JZx8sIz9yUb0+koUkascwcoRLAbEgBgQA2JADIgBMSAGxIAY2BAD2Tr4d+SHlhJhYkAMbAcGsrUvzyiR6wkn4Wk8g7EzF3Hm/klMdzegyyuRux1OQB2DLiRiQAyIATEgBsSAGBADYkAMvA8GsnXw/z7qVvvQOSwGxMD7YiBb+/LMErnlffAkzmJs+TxW7i1hurMBnYZHk53pyfuGnry/r85E+9GFSwyIATEgBsSAGBADYkAMuJeBbB38i0n3Mqm2UduIgTdnIFv78swSuZFeeJqW7Yjc5XsnsK+7CV1eQ6kVJHIlcsWAGBADYkAMiAExIAbEgBgQAxtiIFsH/xJFby6KVGeqMzHgXgaytS/PKJFrhDrhiS9g+OQVHH9wCbPDLRgsNxHxGRu6YOsEdO8JqLZR24gBMSAGxIAYEANiQAyIATHwPhjI1sH/+6hb7UPnsBgQA++LgWztyzNK5Jr+OliRMbQfOIvpa3dx5PAsZiaGMTg4gp7uDvS2VCNeEYJPT6IltsWAGBADYkAMiAExIAbEgBgQA2JgHQaydfD/vuSK9iORJwbEwPtgIFv78owSuZYVgOmLorxvAe3zX2Lh1te4/um3uP7JN7hx/RLuHB/CeHcNvKYpmbvODcv7OJG0D3XYYkAMiAExIAbEgBgQA2JADLiZgWwd/Lu5TVQ29RliQAy8KQPZ2pdnlsj1VsAqbUfdzmWMnP8cixdu4szKORw5voJDs/txZLIVnU1RW+S+KQBaX52GGBADYkAMiAExIAbEgBgQA2Jg+zOQrYN/sb392VYbq42ziYFs7cszSuSa/haY0QPoW7iGIw/vY35uF/Ymm9HaWI+aeBVqqkIoC/n0+pCiccWAGBADYkAMiAExIAbEgBgQA2JgXQaydfCfTYJHxyqhKQa2PwPZ2pdnlMj1hLvgqVvC8KlLOHn/AmZGujFUFUEsEkFZqBShUh/8folcdVjbv8NSG6uNxYAYEANiQAyIATEgBsTA5hjI1sG/eNkcL6o31ZsYcCcD2dqXZ5bILe+Dp+UcJpbPY/mjBUx11KPDNFBqmus+adXJ5s6TTe2idhEDYkAMiAExIAbEgBgQA2IgXQxk6+A/XfWt/epcFwNi4F0wkK19eWaJ3EgvPE0rGD9zHmfuLWG6sx5dpgdlemVIIlsMiAExIAbEgBgQA2JADIgBMSAGNsDA6wb/+t/fQXWgOhADYiDTGXgX4tgt28wokWuEkzDqT2H09EWcun8Ke3sa0OOlyFVErluAUjn0pE0MiAExIAbEgBgQA2JADIgBNzOQ6YJC5ZdkEwNiQAy8ngE3X4PetmyZJXJLu2DGF+0cuccfrGBfXyOSwRKEvRK5bwuCvq+bbTEgBsSAGBADYkAMiAExIAaygQEJkNcLENWP6kcMiIFMZ2A7X8sySOR6YUX64U2sYHz5Mk7fX8b+ZCN6fSWKyN3A60PbGWIdmwYcYkAMiAExIAbEgBgQA2JADGyUgUwXFCq/JJsYEANi4PUMbPR6kInrZYjI9cI0/fDGRhAa+BBTF67j/L0T2N/ViE5LOXIzETyVWTfaYkAMiAExIAbEgBgQA2JADKSDAQmQ1wsQ1Y/qRwyIgUxnIB3Xlve1T5eL3ABMswrheBIN44fQN3cJe858jOPnT+H08TEMNlUiZhoIKCJVkxqIATEgBsSAGBADYkAMiAExIAbEwAYYyHRBofJLsokBMSAGXs/A+5Kq6diPq0WuaZbBNNtQ3T2P4evfY+GT73H7s89x8eQ+HB2Oo6myFF5T+XHTAY72qegJMSAGxIAYEANiQAyIATEgBjKRAQmQ1wsQ1Y/qRwyIgUxnIBOvTRsts6tFrmUFYBiVCMW6UD96AD3jUxgZ3YFkRyNa4iFEgj74NvDEdaOVofV0IyoGxIAYEANiQAyIATEgBsSAGBADYkAMiAExIAbEgBsZcLnIfZob1xcII1hRjbJwGcoCFgJer14ZksAWA2JADIgBMSAGxIAYEANiQAyIATEgBsSAGBADYiBrGHC5yKX998Lr88MXCMDn88HnM+H16qmAG58KqEziUgyIATEgBsSAGBADYkAMiAExIAbEgBgQA2JADLwbBjJA5L6bAxdQqlcxIAbEgBgQA2JADIgBMSAGxIAYEANiQAyIATEgBjKFAYlchZ9nTfh5ppyUKqcuIGJADIgBMSAGxIAYEANiQAyIATEgBsSAGBADaxn4f6qLwYK2v1NaAAAAAElFTkSuQmCC;" vertex="1" parent="1">
          <mxGeometry x="263" y="190" width="644" height="109.95" as="geometry" />
        </mxCell>
        <mxCell id="WzrB27unxxDF3hPiiffK-59" value="&lt;font color=&quot;#ffffff&quot;&gt;&lt;u&gt;&lt;i&gt;异步&lt;/i&gt;&lt;/u&gt;&lt;/font&gt;" style="text;html=1;align=center;verticalAlign=middle;whiteSpace=wrap;rounded=0;fontSize=26;labelBackgroundColor=none;" vertex="1" parent="1">
          <mxGeometry x="900" y="250" width="70" height="30" as="geometry" />
        </mxCell>
      </root>
    </mxGraphModel>
  </diagram>
</mxfile>
